M48
; DRILL file {KiCad (5.1.9)-1} date 08/19/21 15:30:48
; FORMAT={-:-/ absolute / inch / decimal}
; #@! TF.CreationDate,2021-08-19T15:30:48-05:00
; #@! TF.GenerationSoftware,Kicad,Pcbnew,(5.1.9)-1
; #@! TF.FileFunction,Plated,1,2,PTH
FMAT,2
INCH
T1C0.0276
T2C0.0295
T3C0.0315
T4C0.0354
T5C0.0394
T6C0.0472
%
G90
G05
T1
X4.65Y-4.1
X4.65Y-4.2
X4.85Y-4.1
X4.85Y-4.2
X5.1Y-3.75
X5.1Y-3.95
X5.4Y-3.75
X5.4Y-3.95
X5.65Y-4.1
X5.65Y-4.2
X5.85Y-4.1
X5.85Y-4.2
T2
X4.9Y-4.35
X4.9Y-4.4
X4.9Y-4.45
X5.6Y-4.35
X5.6Y-4.4
X5.6Y-4.45
T3
X5.0Y-4.15
X5.0787Y-4.15
X5.4213Y-4.15
X5.5Y-4.15
T4
X4.55Y-4.35
X4.55Y-4.45
X5.95Y-4.35
X5.95Y-4.45
T5
X4.55Y-3.16
X4.55Y-3.26
X4.55Y-3.36
X4.55Y-3.46
X4.55Y-3.56
X4.55Y-4.2
X4.9381Y-3.27
X5.1Y-4.4
X5.25Y-4.4
X5.4Y-4.4
X5.7255Y-3.27
X5.95Y-4.2
T6
X4.6531Y-3.7
X4.7516Y-3.8984
X4.85Y-3.7
X5.6531Y-3.7
X5.7516Y-3.8984
X5.85Y-3.7
T0
M30
