G04 #@! TF.GenerationSoftware,KiCad,Pcbnew,(5.1.9)-1*
G04 #@! TF.CreationDate,2021-08-19T15:30:01-05:00*
G04 #@! TF.ProjectId,astable_dev,61737461-626c-4655-9f64-65762e6b6963,1*
G04 #@! TF.SameCoordinates,Original*
G04 #@! TF.FileFunction,Legend,Bot*
G04 #@! TF.FilePolarity,Positive*
%FSLAX46Y46*%
G04 Gerber Fmt 4.6, Leading zero omitted, Abs format (unit mm)*
G04 Created by KiCad (PCBNEW (5.1.9)-1) date 2021-08-19 15:30:01*
%MOMM*%
%LPD*%
G01*
G04 APERTURE LIST*
G04 #@! TA.AperFunction,Profile*
%ADD10C,0.050000*%
G04 #@! TD*
%ADD11C,0.100000*%
%ADD12C,0.700000*%
%ADD13C,0.500000*%
%ADD14C,0.120000*%
%ADD15C,0.150000*%
%ADD16C,0.300000*%
G04 APERTURE END LIST*
D10*
X120396000Y-75692000D02*
X124460000Y-75692000D01*
X120396000Y-73152000D02*
X120396000Y-75692000D01*
X124460000Y-75692000D02*
X124460000Y-73152000D01*
X124460000Y-73152000D02*
X120396000Y-73152000D01*
X146304000Y-75692000D02*
X146304000Y-73152000D01*
X142240000Y-75692000D02*
X146304000Y-75692000D01*
X142240000Y-73152000D02*
X142240000Y-75692000D01*
X146304000Y-73152000D02*
X142240000Y-73152000D01*
D11*
X139885714Y-76942785D02*
X139885714Y-76192785D01*
X139600000Y-76192785D01*
X139528571Y-76228500D01*
X139492857Y-76264214D01*
X139457142Y-76335642D01*
X139457142Y-76442785D01*
X139492857Y-76514214D01*
X139528571Y-76549928D01*
X139600000Y-76585642D01*
X139885714Y-76585642D01*
X139028571Y-76942785D02*
X139100000Y-76907071D01*
X139135714Y-76835642D01*
X139135714Y-76192785D01*
X138421428Y-76942785D02*
X138421428Y-76549928D01*
X138457142Y-76478500D01*
X138528571Y-76442785D01*
X138671428Y-76442785D01*
X138742857Y-76478500D01*
X138421428Y-76907071D02*
X138492857Y-76942785D01*
X138671428Y-76942785D01*
X138742857Y-76907071D01*
X138778571Y-76835642D01*
X138778571Y-76764214D01*
X138742857Y-76692785D01*
X138671428Y-76657071D01*
X138492857Y-76657071D01*
X138421428Y-76621357D01*
X137742857Y-76907071D02*
X137814285Y-76942785D01*
X137957142Y-76942785D01*
X138028571Y-76907071D01*
X138064285Y-76871357D01*
X138100000Y-76799928D01*
X138100000Y-76585642D01*
X138064285Y-76514214D01*
X138028571Y-76478500D01*
X137957142Y-76442785D01*
X137814285Y-76442785D01*
X137742857Y-76478500D01*
X137135714Y-76907071D02*
X137207142Y-76942785D01*
X137350000Y-76942785D01*
X137421428Y-76907071D01*
X137457142Y-76835642D01*
X137457142Y-76549928D01*
X137421428Y-76478500D01*
X137350000Y-76442785D01*
X137207142Y-76442785D01*
X137135714Y-76478500D01*
X137100000Y-76549928D01*
X137100000Y-76621357D01*
X137457142Y-76692785D01*
X135778571Y-76871357D02*
X135814285Y-76907071D01*
X135921428Y-76942785D01*
X135992857Y-76942785D01*
X136100000Y-76907071D01*
X136171428Y-76835642D01*
X136207142Y-76764214D01*
X136242857Y-76621357D01*
X136242857Y-76514214D01*
X136207142Y-76371357D01*
X136171428Y-76299928D01*
X136100000Y-76228500D01*
X135992857Y-76192785D01*
X135921428Y-76192785D01*
X135814285Y-76228500D01*
X135778571Y-76264214D01*
X135350000Y-76942785D02*
X135421428Y-76907071D01*
X135457142Y-76871357D01*
X135492857Y-76799928D01*
X135492857Y-76585642D01*
X135457142Y-76514214D01*
X135421428Y-76478500D01*
X135350000Y-76442785D01*
X135242857Y-76442785D01*
X135171428Y-76478500D01*
X135135714Y-76514214D01*
X135100000Y-76585642D01*
X135100000Y-76799928D01*
X135135714Y-76871357D01*
X135171428Y-76907071D01*
X135242857Y-76942785D01*
X135350000Y-76942785D01*
X134778571Y-76942785D02*
X134778571Y-76442785D01*
X134778571Y-76192785D02*
X134814285Y-76228500D01*
X134778571Y-76264214D01*
X134742857Y-76228500D01*
X134778571Y-76192785D01*
X134778571Y-76264214D01*
X134421428Y-76442785D02*
X134421428Y-76942785D01*
X134421428Y-76514214D02*
X134385714Y-76478500D01*
X134314285Y-76442785D01*
X134207142Y-76442785D01*
X134135714Y-76478500D01*
X134100000Y-76549928D01*
X134100000Y-76942785D01*
X132742857Y-76871357D02*
X132778571Y-76907071D01*
X132885714Y-76942785D01*
X132957142Y-76942785D01*
X133064285Y-76907071D01*
X133135714Y-76835642D01*
X133171428Y-76764214D01*
X133207142Y-76621357D01*
X133207142Y-76514214D01*
X133171428Y-76371357D01*
X133135714Y-76299928D01*
X133064285Y-76228500D01*
X132957142Y-76192785D01*
X132885714Y-76192785D01*
X132778571Y-76228500D01*
X132742857Y-76264214D01*
X132135714Y-76907071D02*
X132207142Y-76942785D01*
X132350000Y-76942785D01*
X132421428Y-76907071D01*
X132457142Y-76835642D01*
X132457142Y-76549928D01*
X132421428Y-76478500D01*
X132350000Y-76442785D01*
X132207142Y-76442785D01*
X132135714Y-76478500D01*
X132100000Y-76549928D01*
X132100000Y-76621357D01*
X132457142Y-76692785D01*
X131671428Y-76942785D02*
X131742857Y-76907071D01*
X131778571Y-76835642D01*
X131778571Y-76192785D01*
X131278571Y-76942785D02*
X131350000Y-76907071D01*
X131385714Y-76835642D01*
X131385714Y-76192785D01*
X130171428Y-76549928D02*
X130064285Y-76585642D01*
X130028571Y-76621357D01*
X129992857Y-76692785D01*
X129992857Y-76799928D01*
X130028571Y-76871357D01*
X130064285Y-76907071D01*
X130135714Y-76942785D01*
X130421428Y-76942785D01*
X130421428Y-76192785D01*
X130171428Y-76192785D01*
X130100000Y-76228500D01*
X130064285Y-76264214D01*
X130028571Y-76335642D01*
X130028571Y-76407071D01*
X130064285Y-76478500D01*
X130100000Y-76514214D01*
X130171428Y-76549928D01*
X130421428Y-76549928D01*
X129350000Y-76942785D02*
X129350000Y-76549928D01*
X129385714Y-76478500D01*
X129457142Y-76442785D01*
X129600000Y-76442785D01*
X129671428Y-76478500D01*
X129350000Y-76907071D02*
X129421428Y-76942785D01*
X129600000Y-76942785D01*
X129671428Y-76907071D01*
X129707142Y-76835642D01*
X129707142Y-76764214D01*
X129671428Y-76692785D01*
X129600000Y-76657071D01*
X129421428Y-76657071D01*
X129350000Y-76621357D01*
X129100000Y-76442785D02*
X128814285Y-76442785D01*
X128992857Y-76192785D02*
X128992857Y-76835642D01*
X128957142Y-76907071D01*
X128885714Y-76942785D01*
X128814285Y-76942785D01*
X128671428Y-76442785D02*
X128385714Y-76442785D01*
X128564285Y-76192785D02*
X128564285Y-76835642D01*
X128528571Y-76907071D01*
X128457142Y-76942785D01*
X128385714Y-76942785D01*
X127850000Y-76907071D02*
X127921428Y-76942785D01*
X128064285Y-76942785D01*
X128135714Y-76907071D01*
X128171428Y-76835642D01*
X128171428Y-76549928D01*
X128135714Y-76478500D01*
X128064285Y-76442785D01*
X127921428Y-76442785D01*
X127850000Y-76478500D01*
X127814285Y-76549928D01*
X127814285Y-76621357D01*
X128171428Y-76692785D01*
X127492857Y-76942785D02*
X127492857Y-76442785D01*
X127492857Y-76585642D02*
X127457142Y-76514214D01*
X127421428Y-76478500D01*
X127350000Y-76442785D01*
X127278571Y-76442785D01*
X127100000Y-76442785D02*
X126921428Y-76942785D01*
X126742857Y-76442785D02*
X126921428Y-76942785D01*
X126992857Y-77121357D01*
X127028571Y-77157071D01*
X127100000Y-77192785D01*
X137653571Y-77417785D02*
X137475000Y-78167785D01*
X137332142Y-77632071D01*
X137189285Y-78167785D01*
X137010714Y-77417785D01*
X136725000Y-78167785D02*
X136725000Y-77667785D01*
X136725000Y-77417785D02*
X136760714Y-77453500D01*
X136725000Y-77489214D01*
X136689285Y-77453500D01*
X136725000Y-77417785D01*
X136725000Y-77489214D01*
X136475000Y-77667785D02*
X136189285Y-77667785D01*
X136367857Y-77417785D02*
X136367857Y-78060642D01*
X136332142Y-78132071D01*
X136260714Y-78167785D01*
X136189285Y-78167785D01*
X135939285Y-78167785D02*
X135939285Y-77417785D01*
X135617857Y-78167785D02*
X135617857Y-77774928D01*
X135653571Y-77703500D01*
X135725000Y-77667785D01*
X135832142Y-77667785D01*
X135903571Y-77703500D01*
X135939285Y-77739214D01*
X134689285Y-77882071D02*
X134117857Y-77882071D01*
X134403571Y-78167785D02*
X134403571Y-77596357D01*
X133225000Y-78132071D02*
X133117857Y-78167785D01*
X132939285Y-78167785D01*
X132867857Y-78132071D01*
X132832142Y-78096357D01*
X132796428Y-78024928D01*
X132796428Y-77953500D01*
X132832142Y-77882071D01*
X132867857Y-77846357D01*
X132939285Y-77810642D01*
X133082142Y-77774928D01*
X133153571Y-77739214D01*
X133189285Y-77703500D01*
X133225000Y-77632071D01*
X133225000Y-77560642D01*
X133189285Y-77489214D01*
X133153571Y-77453500D01*
X133082142Y-77417785D01*
X132903571Y-77417785D01*
X132796428Y-77453500D01*
X132475000Y-78167785D02*
X132475000Y-77667785D01*
X132475000Y-77417785D02*
X132510714Y-77453500D01*
X132475000Y-77489214D01*
X132439285Y-77453500D01*
X132475000Y-77417785D01*
X132475000Y-77489214D01*
X131796428Y-78167785D02*
X131796428Y-77417785D01*
X131796428Y-78132071D02*
X131867857Y-78167785D01*
X132010714Y-78167785D01*
X132082142Y-78132071D01*
X132117857Y-78096357D01*
X132153571Y-78024928D01*
X132153571Y-77810642D01*
X132117857Y-77739214D01*
X132082142Y-77703500D01*
X132010714Y-77667785D01*
X131867857Y-77667785D01*
X131796428Y-77703500D01*
X131153571Y-78132071D02*
X131225000Y-78167785D01*
X131367857Y-78167785D01*
X131439285Y-78132071D01*
X131475000Y-78060642D01*
X131475000Y-77774928D01*
X131439285Y-77703500D01*
X131367857Y-77667785D01*
X131225000Y-77667785D01*
X131153571Y-77703500D01*
X131117857Y-77774928D01*
X131117857Y-77846357D01*
X131475000Y-77917785D01*
X130225000Y-77417785D02*
X130225000Y-78024928D01*
X130189285Y-78096357D01*
X130153571Y-78132071D01*
X130082142Y-78167785D01*
X129939285Y-78167785D01*
X129867857Y-78132071D01*
X129832142Y-78096357D01*
X129796428Y-78024928D01*
X129796428Y-77417785D01*
X129439285Y-77667785D02*
X129439285Y-78417785D01*
X129439285Y-77703500D02*
X129367857Y-77667785D01*
X129225000Y-77667785D01*
X129153571Y-77703500D01*
X129117857Y-77739214D01*
X129082142Y-77810642D01*
X129082142Y-78024928D01*
X129117857Y-78096357D01*
X129153571Y-78132071D01*
X129225000Y-78167785D01*
X129367857Y-78167785D01*
X129439285Y-78132071D01*
X148657428Y-110970190D02*
X148895523Y-110970190D01*
X148895523Y-110470190D01*
X148490761Y-110708285D02*
X148324095Y-110708285D01*
X148252666Y-110970190D02*
X148490761Y-110970190D01*
X148490761Y-110470190D01*
X148252666Y-110470190D01*
X148038380Y-110970190D02*
X148038380Y-110470190D01*
X147919333Y-110470190D01*
X147847904Y-110494000D01*
X147800285Y-110541619D01*
X147776476Y-110589238D01*
X147752666Y-110684476D01*
X147752666Y-110755904D01*
X147776476Y-110851142D01*
X147800285Y-110898761D01*
X147847904Y-110946380D01*
X147919333Y-110970190D01*
X148038380Y-110970190D01*
X118685428Y-110970190D02*
X118923523Y-110970190D01*
X118923523Y-110470190D01*
X118518761Y-110708285D02*
X118352095Y-110708285D01*
X118280666Y-110970190D02*
X118518761Y-110970190D01*
X118518761Y-110470190D01*
X118280666Y-110470190D01*
X118066380Y-110970190D02*
X118066380Y-110470190D01*
X117947333Y-110470190D01*
X117875904Y-110494000D01*
X117828285Y-110541619D01*
X117804476Y-110589238D01*
X117780666Y-110684476D01*
X117780666Y-110755904D01*
X117804476Y-110851142D01*
X117828285Y-110898761D01*
X117875904Y-110946380D01*
X117947333Y-110970190D01*
X118066380Y-110970190D01*
X149089904Y-96500190D02*
X149042285Y-96500190D01*
X148994666Y-96524000D01*
X148970857Y-96547809D01*
X148947047Y-96595428D01*
X148923238Y-96690666D01*
X148923238Y-96809714D01*
X148947047Y-96904952D01*
X148970857Y-96952571D01*
X148994666Y-96976380D01*
X149042285Y-97000190D01*
X149089904Y-97000190D01*
X149137523Y-96976380D01*
X149161333Y-96952571D01*
X149185142Y-96904952D01*
X149208952Y-96809714D01*
X149208952Y-96690666D01*
X149185142Y-96595428D01*
X149161333Y-96547809D01*
X149137523Y-96524000D01*
X149089904Y-96500190D01*
X148708952Y-96809714D02*
X148328000Y-96809714D01*
X148137523Y-96500190D02*
X147828000Y-96500190D01*
X147994666Y-96690666D01*
X147923238Y-96690666D01*
X147875619Y-96714476D01*
X147851809Y-96738285D01*
X147828000Y-96785904D01*
X147828000Y-96904952D01*
X147851809Y-96952571D01*
X147875619Y-96976380D01*
X147923238Y-97000190D01*
X148066095Y-97000190D01*
X148113714Y-96976380D01*
X148137523Y-96952571D01*
X147518476Y-96500190D02*
X147470857Y-96500190D01*
X147423238Y-96524000D01*
X147399428Y-96547809D01*
X147375619Y-96595428D01*
X147351809Y-96690666D01*
X147351809Y-96809714D01*
X147375619Y-96904952D01*
X147399428Y-96952571D01*
X147423238Y-96976380D01*
X147470857Y-97000190D01*
X147518476Y-97000190D01*
X147566095Y-96976380D01*
X147589904Y-96952571D01*
X147613714Y-96904952D01*
X147637523Y-96809714D01*
X147637523Y-96690666D01*
X147613714Y-96595428D01*
X147589904Y-96547809D01*
X147566095Y-96524000D01*
X147518476Y-96500190D01*
X147137523Y-97000190D02*
X147137523Y-96500190D01*
X147089904Y-96809714D02*
X146947047Y-97000190D01*
X146947047Y-96666857D02*
X147137523Y-96857333D01*
X146447047Y-97000190D02*
X146613714Y-96762095D01*
X146732761Y-97000190D02*
X146732761Y-96500190D01*
X146542285Y-96500190D01*
X146494666Y-96524000D01*
X146470857Y-96547809D01*
X146447047Y-96595428D01*
X146447047Y-96666857D01*
X146470857Y-96714476D01*
X146494666Y-96738285D01*
X146542285Y-96762095D01*
X146732761Y-96762095D01*
X123689904Y-96500190D02*
X123642285Y-96500190D01*
X123594666Y-96524000D01*
X123570857Y-96547809D01*
X123547047Y-96595428D01*
X123523238Y-96690666D01*
X123523238Y-96809714D01*
X123547047Y-96904952D01*
X123570857Y-96952571D01*
X123594666Y-96976380D01*
X123642285Y-97000190D01*
X123689904Y-97000190D01*
X123737523Y-96976380D01*
X123761333Y-96952571D01*
X123785142Y-96904952D01*
X123808952Y-96809714D01*
X123808952Y-96690666D01*
X123785142Y-96595428D01*
X123761333Y-96547809D01*
X123737523Y-96524000D01*
X123689904Y-96500190D01*
X123308952Y-96809714D02*
X122928000Y-96809714D01*
X122737523Y-96500190D02*
X122428000Y-96500190D01*
X122594666Y-96690666D01*
X122523238Y-96690666D01*
X122475619Y-96714476D01*
X122451809Y-96738285D01*
X122428000Y-96785904D01*
X122428000Y-96904952D01*
X122451809Y-96952571D01*
X122475619Y-96976380D01*
X122523238Y-97000190D01*
X122666095Y-97000190D01*
X122713714Y-96976380D01*
X122737523Y-96952571D01*
X122118476Y-96500190D02*
X122070857Y-96500190D01*
X122023238Y-96524000D01*
X121999428Y-96547809D01*
X121975619Y-96595428D01*
X121951809Y-96690666D01*
X121951809Y-96809714D01*
X121975619Y-96904952D01*
X121999428Y-96952571D01*
X122023238Y-96976380D01*
X122070857Y-97000190D01*
X122118476Y-97000190D01*
X122166095Y-96976380D01*
X122189904Y-96952571D01*
X122213714Y-96904952D01*
X122237523Y-96809714D01*
X122237523Y-96690666D01*
X122213714Y-96595428D01*
X122189904Y-96547809D01*
X122166095Y-96524000D01*
X122118476Y-96500190D01*
X121737523Y-97000190D02*
X121737523Y-96500190D01*
X121689904Y-96809714D02*
X121547047Y-97000190D01*
X121547047Y-96666857D02*
X121737523Y-96857333D01*
X121047047Y-97000190D02*
X121213714Y-96762095D01*
X121332761Y-97000190D02*
X121332761Y-96500190D01*
X121142285Y-96500190D01*
X121094666Y-96524000D01*
X121070857Y-96547809D01*
X121047047Y-96595428D01*
X121047047Y-96666857D01*
X121070857Y-96714476D01*
X121094666Y-96738285D01*
X121142285Y-96762095D01*
X121332761Y-96762095D01*
X146395238Y-107368952D02*
X146680952Y-107368952D01*
X146538095Y-107368952D02*
X146538095Y-106968952D01*
X146585714Y-107026095D01*
X146633333Y-107064190D01*
X146680952Y-107083238D01*
X146085714Y-106968952D02*
X146038095Y-106968952D01*
X145990476Y-106988000D01*
X145966666Y-107007047D01*
X145942857Y-107045142D01*
X145919047Y-107121333D01*
X145919047Y-107216571D01*
X145942857Y-107292761D01*
X145966666Y-107330857D01*
X145990476Y-107349904D01*
X146038095Y-107368952D01*
X146085714Y-107368952D01*
X146133333Y-107349904D01*
X146157142Y-107330857D01*
X146180952Y-107292761D01*
X146204761Y-107216571D01*
X146204761Y-107121333D01*
X146180952Y-107045142D01*
X146157142Y-107007047D01*
X146133333Y-106988000D01*
X146085714Y-106968952D01*
X145419047Y-107368952D02*
X145585714Y-107178476D01*
X145704761Y-107368952D02*
X145704761Y-106968952D01*
X145514285Y-106968952D01*
X145466666Y-106988000D01*
X145442857Y-107007047D01*
X145419047Y-107045142D01*
X145419047Y-107102285D01*
X145442857Y-107140380D01*
X145466666Y-107159428D01*
X145514285Y-107178476D01*
X145704761Y-107178476D01*
X120995238Y-107368952D02*
X121280952Y-107368952D01*
X121138095Y-107368952D02*
X121138095Y-106968952D01*
X121185714Y-107026095D01*
X121233333Y-107064190D01*
X121280952Y-107083238D01*
X120685714Y-106968952D02*
X120638095Y-106968952D01*
X120590476Y-106988000D01*
X120566666Y-107007047D01*
X120542857Y-107045142D01*
X120519047Y-107121333D01*
X120519047Y-107216571D01*
X120542857Y-107292761D01*
X120566666Y-107330857D01*
X120590476Y-107349904D01*
X120638095Y-107368952D01*
X120685714Y-107368952D01*
X120733333Y-107349904D01*
X120757142Y-107330857D01*
X120780952Y-107292761D01*
X120804761Y-107216571D01*
X120804761Y-107121333D01*
X120780952Y-107045142D01*
X120757142Y-107007047D01*
X120733333Y-106988000D01*
X120685714Y-106968952D01*
X120019047Y-107368952D02*
X120185714Y-107178476D01*
X120304761Y-107368952D02*
X120304761Y-106968952D01*
X120114285Y-106968952D01*
X120066666Y-106988000D01*
X120042857Y-107007047D01*
X120019047Y-107045142D01*
X120019047Y-107102285D01*
X120042857Y-107140380D01*
X120066666Y-107159428D01*
X120114285Y-107178476D01*
X120304761Y-107178476D01*
X146657142Y-104428952D02*
X146895238Y-104428952D01*
X146919047Y-104619428D01*
X146895238Y-104600380D01*
X146847619Y-104581333D01*
X146728571Y-104581333D01*
X146680952Y-104600380D01*
X146657142Y-104619428D01*
X146633333Y-104657523D01*
X146633333Y-104752761D01*
X146657142Y-104790857D01*
X146680952Y-104809904D01*
X146728571Y-104828952D01*
X146847619Y-104828952D01*
X146895238Y-104809904D01*
X146919047Y-104790857D01*
X146157142Y-104828952D02*
X146442857Y-104828952D01*
X146300000Y-104828952D02*
X146300000Y-104428952D01*
X146347619Y-104486095D01*
X146395238Y-104524190D01*
X146442857Y-104543238D01*
X145847619Y-104428952D02*
X145800000Y-104428952D01*
X145752380Y-104448000D01*
X145728571Y-104467047D01*
X145704761Y-104505142D01*
X145680952Y-104581333D01*
X145680952Y-104676571D01*
X145704761Y-104752761D01*
X145728571Y-104790857D01*
X145752380Y-104809904D01*
X145800000Y-104828952D01*
X145847619Y-104828952D01*
X145895238Y-104809904D01*
X145919047Y-104790857D01*
X145942857Y-104752761D01*
X145966666Y-104676571D01*
X145966666Y-104581333D01*
X145942857Y-104505142D01*
X145919047Y-104467047D01*
X145895238Y-104448000D01*
X145847619Y-104428952D01*
X145180952Y-104828952D02*
X145347619Y-104638476D01*
X145466666Y-104828952D02*
X145466666Y-104428952D01*
X145276190Y-104428952D01*
X145228571Y-104448000D01*
X145204761Y-104467047D01*
X145180952Y-104505142D01*
X145180952Y-104562285D01*
X145204761Y-104600380D01*
X145228571Y-104619428D01*
X145276190Y-104638476D01*
X145466666Y-104638476D01*
X121257142Y-104428952D02*
X121495238Y-104428952D01*
X121519047Y-104619428D01*
X121495238Y-104600380D01*
X121447619Y-104581333D01*
X121328571Y-104581333D01*
X121280952Y-104600380D01*
X121257142Y-104619428D01*
X121233333Y-104657523D01*
X121233333Y-104752761D01*
X121257142Y-104790857D01*
X121280952Y-104809904D01*
X121328571Y-104828952D01*
X121447619Y-104828952D01*
X121495238Y-104809904D01*
X121519047Y-104790857D01*
X120757142Y-104828952D02*
X121042857Y-104828952D01*
X120900000Y-104828952D02*
X120900000Y-104428952D01*
X120947619Y-104486095D01*
X120995238Y-104524190D01*
X121042857Y-104543238D01*
X120447619Y-104428952D02*
X120400000Y-104428952D01*
X120352380Y-104448000D01*
X120328571Y-104467047D01*
X120304761Y-104505142D01*
X120280952Y-104581333D01*
X120280952Y-104676571D01*
X120304761Y-104752761D01*
X120328571Y-104790857D01*
X120352380Y-104809904D01*
X120400000Y-104828952D01*
X120447619Y-104828952D01*
X120495238Y-104809904D01*
X120519047Y-104790857D01*
X120542857Y-104752761D01*
X120566666Y-104676571D01*
X120566666Y-104581333D01*
X120542857Y-104505142D01*
X120519047Y-104467047D01*
X120495238Y-104448000D01*
X120447619Y-104428952D01*
X119780952Y-104828952D02*
X119947619Y-104638476D01*
X120066666Y-104828952D02*
X120066666Y-104428952D01*
X119876190Y-104428952D01*
X119828571Y-104448000D01*
X119804761Y-104467047D01*
X119780952Y-104505142D01*
X119780952Y-104562285D01*
X119804761Y-104600380D01*
X119828571Y-104619428D01*
X119876190Y-104638476D01*
X120066666Y-104638476D01*
X137469523Y-98524190D02*
X137755238Y-98524190D01*
X137612380Y-98524190D02*
X137612380Y-98024190D01*
X137660000Y-98095619D01*
X137707619Y-98143238D01*
X137755238Y-98167047D01*
X137255238Y-98524190D02*
X137255238Y-98024190D01*
X137207619Y-98333714D02*
X137064761Y-98524190D01*
X137064761Y-98190857D02*
X137255238Y-98381333D01*
X136564761Y-98524190D02*
X136731428Y-98286095D01*
X136850476Y-98524190D02*
X136850476Y-98024190D01*
X136660000Y-98024190D01*
X136612380Y-98048000D01*
X136588571Y-98071809D01*
X136564761Y-98119428D01*
X136564761Y-98190857D01*
X136588571Y-98238476D01*
X136612380Y-98262285D01*
X136660000Y-98286095D01*
X136850476Y-98286095D01*
X129849523Y-98524190D02*
X130135238Y-98524190D01*
X129992380Y-98524190D02*
X129992380Y-98024190D01*
X130040000Y-98095619D01*
X130087619Y-98143238D01*
X130135238Y-98167047D01*
X129635238Y-98524190D02*
X129635238Y-98024190D01*
X129587619Y-98333714D02*
X129444761Y-98524190D01*
X129444761Y-98190857D02*
X129635238Y-98381333D01*
X128944761Y-98524190D02*
X129111428Y-98286095D01*
X129230476Y-98524190D02*
X129230476Y-98024190D01*
X129040000Y-98024190D01*
X128992380Y-98048000D01*
X128968571Y-98071809D01*
X128944761Y-98119428D01*
X128944761Y-98190857D01*
X128968571Y-98238476D01*
X128992380Y-98262285D01*
X129040000Y-98286095D01*
X129230476Y-98286095D01*
X135647809Y-104366190D02*
X135933523Y-104366190D01*
X135790666Y-104366190D02*
X135790666Y-103866190D01*
X135838285Y-103937619D01*
X135885904Y-103985238D01*
X135933523Y-104009047D01*
X135338285Y-103866190D02*
X135290666Y-103866190D01*
X135243047Y-103890000D01*
X135219238Y-103913809D01*
X135195428Y-103961428D01*
X135171619Y-104056666D01*
X135171619Y-104175714D01*
X135195428Y-104270952D01*
X135219238Y-104318571D01*
X135243047Y-104342380D01*
X135290666Y-104366190D01*
X135338285Y-104366190D01*
X135385904Y-104342380D01*
X135409714Y-104318571D01*
X135433523Y-104270952D01*
X135457333Y-104175714D01*
X135457333Y-104056666D01*
X135433523Y-103961428D01*
X135409714Y-103913809D01*
X135385904Y-103890000D01*
X135338285Y-103866190D01*
X134862095Y-103866190D02*
X134814476Y-103866190D01*
X134766857Y-103890000D01*
X134743047Y-103913809D01*
X134719238Y-103961428D01*
X134695428Y-104056666D01*
X134695428Y-104175714D01*
X134719238Y-104270952D01*
X134743047Y-104318571D01*
X134766857Y-104342380D01*
X134814476Y-104366190D01*
X134862095Y-104366190D01*
X134909714Y-104342380D01*
X134933523Y-104318571D01*
X134957333Y-104270952D01*
X134981142Y-104175714D01*
X134981142Y-104056666D01*
X134957333Y-103961428D01*
X134933523Y-103913809D01*
X134909714Y-103890000D01*
X134862095Y-103866190D01*
X134266857Y-104032857D02*
X134266857Y-104366190D01*
X134481142Y-104032857D02*
X134481142Y-104294761D01*
X134457333Y-104342380D01*
X134409714Y-104366190D01*
X134338285Y-104366190D01*
X134290666Y-104342380D01*
X134266857Y-104318571D01*
X133862095Y-104104285D02*
X134028761Y-104104285D01*
X134028761Y-104366190D02*
X134028761Y-103866190D01*
X133790666Y-103866190D01*
X132599809Y-104366190D02*
X132885523Y-104366190D01*
X132742666Y-104366190D02*
X132742666Y-103866190D01*
X132790285Y-103937619D01*
X132837904Y-103985238D01*
X132885523Y-104009047D01*
X132290285Y-103866190D02*
X132242666Y-103866190D01*
X132195047Y-103890000D01*
X132171238Y-103913809D01*
X132147428Y-103961428D01*
X132123619Y-104056666D01*
X132123619Y-104175714D01*
X132147428Y-104270952D01*
X132171238Y-104318571D01*
X132195047Y-104342380D01*
X132242666Y-104366190D01*
X132290285Y-104366190D01*
X132337904Y-104342380D01*
X132361714Y-104318571D01*
X132385523Y-104270952D01*
X132409333Y-104175714D01*
X132409333Y-104056666D01*
X132385523Y-103961428D01*
X132361714Y-103913809D01*
X132337904Y-103890000D01*
X132290285Y-103866190D01*
X131814095Y-103866190D02*
X131766476Y-103866190D01*
X131718857Y-103890000D01*
X131695047Y-103913809D01*
X131671238Y-103961428D01*
X131647428Y-104056666D01*
X131647428Y-104175714D01*
X131671238Y-104270952D01*
X131695047Y-104318571D01*
X131718857Y-104342380D01*
X131766476Y-104366190D01*
X131814095Y-104366190D01*
X131861714Y-104342380D01*
X131885523Y-104318571D01*
X131909333Y-104270952D01*
X131933142Y-104175714D01*
X131933142Y-104056666D01*
X131909333Y-103961428D01*
X131885523Y-103913809D01*
X131861714Y-103890000D01*
X131814095Y-103866190D01*
X131218857Y-104032857D02*
X131218857Y-104366190D01*
X131433142Y-104032857D02*
X131433142Y-104294761D01*
X131409333Y-104342380D01*
X131361714Y-104366190D01*
X131290285Y-104366190D01*
X131242666Y-104342380D01*
X131218857Y-104318571D01*
X130814095Y-104104285D02*
X130980761Y-104104285D01*
X130980761Y-104366190D02*
X130980761Y-103866190D01*
X130742666Y-103866190D01*
D10*
X111760000Y-116078000D02*
X154940000Y-116078000D01*
X111760000Y-71120000D02*
X111760000Y-116078000D01*
X154940000Y-71120000D02*
X111760000Y-71120000D01*
X154940000Y-116078000D02*
X154940000Y-71120000D01*
D12*
G04 #@! TO.C,BT1*
X133731000Y-84709000D02*
X133731000Y-81534000D01*
D13*
X135001000Y-85598000D02*
X135001000Y-80518000D01*
D14*
X146728000Y-86908000D02*
X146728000Y-79208000D01*
X146728000Y-79208000D02*
X143728000Y-79208000D01*
X146728000Y-86908000D02*
X143728000Y-86908000D01*
X143727936Y-86908171D02*
G75*
G02*
X143728000Y-79208000I-10352536J3850171D01*
G01*
G04 #@! TO.C,C1*
X138700000Y-107960000D02*
X138700000Y-102860000D01*
X138660000Y-107960000D02*
X138660000Y-106390000D01*
X138660000Y-104430000D02*
X138660000Y-102860000D01*
X138620000Y-107959000D02*
X138620000Y-106390000D01*
X138620000Y-104430000D02*
X138620000Y-102861000D01*
X138580000Y-107958000D02*
X138580000Y-106390000D01*
X138580000Y-104430000D02*
X138580000Y-102862000D01*
X138540000Y-107956000D02*
X138540000Y-106390000D01*
X138540000Y-104430000D02*
X138540000Y-102864000D01*
X138500000Y-107953000D02*
X138500000Y-106390000D01*
X138500000Y-104430000D02*
X138500000Y-102867000D01*
X138460000Y-107949000D02*
X138460000Y-106390000D01*
X138460000Y-104430000D02*
X138460000Y-102871000D01*
X138420000Y-107945000D02*
X138420000Y-106390000D01*
X138420000Y-104430000D02*
X138420000Y-102875000D01*
X138380000Y-107941000D02*
X138380000Y-106390000D01*
X138380000Y-104430000D02*
X138380000Y-102879000D01*
X138340000Y-107935000D02*
X138340000Y-106390000D01*
X138340000Y-104430000D02*
X138340000Y-102885000D01*
X138300000Y-107929000D02*
X138300000Y-106390000D01*
X138300000Y-104430000D02*
X138300000Y-102891000D01*
X138260000Y-107923000D02*
X138260000Y-106390000D01*
X138260000Y-104430000D02*
X138260000Y-102897000D01*
X138220000Y-107916000D02*
X138220000Y-106390000D01*
X138220000Y-104430000D02*
X138220000Y-102904000D01*
X138180000Y-107908000D02*
X138180000Y-106390000D01*
X138180000Y-104430000D02*
X138180000Y-102912000D01*
X138140000Y-107899000D02*
X138140000Y-106390000D01*
X138140000Y-104430000D02*
X138140000Y-102921000D01*
X138100000Y-107890000D02*
X138100000Y-106390000D01*
X138100000Y-104430000D02*
X138100000Y-102930000D01*
X138060000Y-107880000D02*
X138060000Y-106390000D01*
X138060000Y-104430000D02*
X138060000Y-102940000D01*
X138020000Y-107870000D02*
X138020000Y-106390000D01*
X138020000Y-104430000D02*
X138020000Y-102950000D01*
X137979000Y-107858000D02*
X137979000Y-106390000D01*
X137979000Y-104430000D02*
X137979000Y-102962000D01*
X137939000Y-107846000D02*
X137939000Y-106390000D01*
X137939000Y-104430000D02*
X137939000Y-102974000D01*
X137899000Y-107834000D02*
X137899000Y-106390000D01*
X137899000Y-104430000D02*
X137899000Y-102986000D01*
X137859000Y-107820000D02*
X137859000Y-106390000D01*
X137859000Y-104430000D02*
X137859000Y-103000000D01*
X137819000Y-107806000D02*
X137819000Y-106390000D01*
X137819000Y-104430000D02*
X137819000Y-103014000D01*
X137779000Y-107792000D02*
X137779000Y-106390000D01*
X137779000Y-104430000D02*
X137779000Y-103028000D01*
X137739000Y-107776000D02*
X137739000Y-106390000D01*
X137739000Y-104430000D02*
X137739000Y-103044000D01*
X137699000Y-107760000D02*
X137699000Y-106390000D01*
X137699000Y-104430000D02*
X137699000Y-103060000D01*
X137659000Y-107743000D02*
X137659000Y-106390000D01*
X137659000Y-104430000D02*
X137659000Y-103077000D01*
X137619000Y-107725000D02*
X137619000Y-106390000D01*
X137619000Y-104430000D02*
X137619000Y-103095000D01*
X137579000Y-107706000D02*
X137579000Y-106390000D01*
X137579000Y-104430000D02*
X137579000Y-103114000D01*
X137539000Y-107686000D02*
X137539000Y-106390000D01*
X137539000Y-104430000D02*
X137539000Y-103134000D01*
X137499000Y-107666000D02*
X137499000Y-106390000D01*
X137499000Y-104430000D02*
X137499000Y-103154000D01*
X137459000Y-107644000D02*
X137459000Y-106390000D01*
X137459000Y-104430000D02*
X137459000Y-103176000D01*
X137419000Y-107622000D02*
X137419000Y-106390000D01*
X137419000Y-104430000D02*
X137419000Y-103198000D01*
X137379000Y-107599000D02*
X137379000Y-106390000D01*
X137379000Y-104430000D02*
X137379000Y-103221000D01*
X137339000Y-107575000D02*
X137339000Y-106390000D01*
X137339000Y-104430000D02*
X137339000Y-103245000D01*
X137299000Y-107550000D02*
X137299000Y-106390000D01*
X137299000Y-104430000D02*
X137299000Y-103270000D01*
X137259000Y-107523000D02*
X137259000Y-106390000D01*
X137259000Y-104430000D02*
X137259000Y-103297000D01*
X137219000Y-107496000D02*
X137219000Y-106390000D01*
X137219000Y-104430000D02*
X137219000Y-103324000D01*
X137179000Y-107468000D02*
X137179000Y-106390000D01*
X137179000Y-104430000D02*
X137179000Y-103352000D01*
X137139000Y-107438000D02*
X137139000Y-106390000D01*
X137139000Y-104430000D02*
X137139000Y-103382000D01*
X137099000Y-107407000D02*
X137099000Y-106390000D01*
X137099000Y-104430000D02*
X137099000Y-103413000D01*
X137059000Y-107375000D02*
X137059000Y-106390000D01*
X137059000Y-104430000D02*
X137059000Y-103445000D01*
X137019000Y-107342000D02*
X137019000Y-106390000D01*
X137019000Y-104430000D02*
X137019000Y-103478000D01*
X136979000Y-107307000D02*
X136979000Y-106390000D01*
X136979000Y-104430000D02*
X136979000Y-103513000D01*
X136939000Y-107271000D02*
X136939000Y-106390000D01*
X136939000Y-104430000D02*
X136939000Y-103549000D01*
X136899000Y-107233000D02*
X136899000Y-106390000D01*
X136899000Y-104430000D02*
X136899000Y-103587000D01*
X136859000Y-107193000D02*
X136859000Y-106390000D01*
X136859000Y-104430000D02*
X136859000Y-103627000D01*
X136819000Y-107152000D02*
X136819000Y-106390000D01*
X136819000Y-104430000D02*
X136819000Y-103668000D01*
X136779000Y-107109000D02*
X136779000Y-106390000D01*
X136779000Y-104430000D02*
X136779000Y-103711000D01*
X136739000Y-107064000D02*
X136739000Y-106390000D01*
X136739000Y-104430000D02*
X136739000Y-103756000D01*
X136699000Y-107016000D02*
X136699000Y-103804000D01*
X136659000Y-106966000D02*
X136659000Y-103854000D01*
X136619000Y-106914000D02*
X136619000Y-103906000D01*
X136579000Y-106858000D02*
X136579000Y-103962000D01*
X136539000Y-106800000D02*
X136539000Y-104020000D01*
X136499000Y-106737000D02*
X136499000Y-104083000D01*
X136459000Y-106671000D02*
X136459000Y-104149000D01*
X136419000Y-106599000D02*
X136419000Y-104221000D01*
X136379000Y-106522000D02*
X136379000Y-104298000D01*
X136339000Y-106438000D02*
X136339000Y-104382000D01*
X136299000Y-106344000D02*
X136299000Y-104476000D01*
X136259000Y-106239000D02*
X136259000Y-104581000D01*
X136219000Y-106117000D02*
X136219000Y-104703000D01*
X136179000Y-105969000D02*
X136179000Y-104851000D01*
X136139000Y-105764000D02*
X136139000Y-105056000D01*
X141900000Y-105410000D02*
X140700000Y-105410000D01*
X141300000Y-106060000D02*
X141300000Y-104760000D01*
X136394278Y-106589723D02*
G75*
G03*
X141005580Y-106590000I2305722J1179723D01*
G01*
X136394278Y-104230277D02*
G75*
G02*
X141005580Y-104230000I2305722J-1179723D01*
G01*
X136394278Y-104230277D02*
G75*
G03*
X136394420Y-106590000I2305722J-1179723D01*
G01*
G04 #@! TO.C,C2*
X125400000Y-104760000D02*
X125400000Y-106060000D01*
X124800000Y-105410000D02*
X126000000Y-105410000D01*
X130561000Y-105056000D02*
X130561000Y-105764000D01*
X130521000Y-104851000D02*
X130521000Y-105969000D01*
X130481000Y-104703000D02*
X130481000Y-106117000D01*
X130441000Y-104581000D02*
X130441000Y-106239000D01*
X130401000Y-104476000D02*
X130401000Y-106344000D01*
X130361000Y-104382000D02*
X130361000Y-106438000D01*
X130321000Y-104298000D02*
X130321000Y-106522000D01*
X130281000Y-104221000D02*
X130281000Y-106599000D01*
X130241000Y-104149000D02*
X130241000Y-106671000D01*
X130201000Y-104083000D02*
X130201000Y-106737000D01*
X130161000Y-104020000D02*
X130161000Y-106800000D01*
X130121000Y-103962000D02*
X130121000Y-106858000D01*
X130081000Y-103906000D02*
X130081000Y-106914000D01*
X130041000Y-103854000D02*
X130041000Y-106966000D01*
X130001000Y-103804000D02*
X130001000Y-107016000D01*
X129961000Y-106390000D02*
X129961000Y-107064000D01*
X129961000Y-103756000D02*
X129961000Y-104430000D01*
X129921000Y-106390000D02*
X129921000Y-107109000D01*
X129921000Y-103711000D02*
X129921000Y-104430000D01*
X129881000Y-106390000D02*
X129881000Y-107152000D01*
X129881000Y-103668000D02*
X129881000Y-104430000D01*
X129841000Y-106390000D02*
X129841000Y-107193000D01*
X129841000Y-103627000D02*
X129841000Y-104430000D01*
X129801000Y-106390000D02*
X129801000Y-107233000D01*
X129801000Y-103587000D02*
X129801000Y-104430000D01*
X129761000Y-106390000D02*
X129761000Y-107271000D01*
X129761000Y-103549000D02*
X129761000Y-104430000D01*
X129721000Y-106390000D02*
X129721000Y-107307000D01*
X129721000Y-103513000D02*
X129721000Y-104430000D01*
X129681000Y-106390000D02*
X129681000Y-107342000D01*
X129681000Y-103478000D02*
X129681000Y-104430000D01*
X129641000Y-106390000D02*
X129641000Y-107375000D01*
X129641000Y-103445000D02*
X129641000Y-104430000D01*
X129601000Y-106390000D02*
X129601000Y-107407000D01*
X129601000Y-103413000D02*
X129601000Y-104430000D01*
X129561000Y-106390000D02*
X129561000Y-107438000D01*
X129561000Y-103382000D02*
X129561000Y-104430000D01*
X129521000Y-106390000D02*
X129521000Y-107468000D01*
X129521000Y-103352000D02*
X129521000Y-104430000D01*
X129481000Y-106390000D02*
X129481000Y-107496000D01*
X129481000Y-103324000D02*
X129481000Y-104430000D01*
X129441000Y-106390000D02*
X129441000Y-107523000D01*
X129441000Y-103297000D02*
X129441000Y-104430000D01*
X129401000Y-106390000D02*
X129401000Y-107550000D01*
X129401000Y-103270000D02*
X129401000Y-104430000D01*
X129361000Y-106390000D02*
X129361000Y-107575000D01*
X129361000Y-103245000D02*
X129361000Y-104430000D01*
X129321000Y-106390000D02*
X129321000Y-107599000D01*
X129321000Y-103221000D02*
X129321000Y-104430000D01*
X129281000Y-106390000D02*
X129281000Y-107622000D01*
X129281000Y-103198000D02*
X129281000Y-104430000D01*
X129241000Y-106390000D02*
X129241000Y-107644000D01*
X129241000Y-103176000D02*
X129241000Y-104430000D01*
X129201000Y-106390000D02*
X129201000Y-107666000D01*
X129201000Y-103154000D02*
X129201000Y-104430000D01*
X129161000Y-106390000D02*
X129161000Y-107686000D01*
X129161000Y-103134000D02*
X129161000Y-104430000D01*
X129121000Y-106390000D02*
X129121000Y-107706000D01*
X129121000Y-103114000D02*
X129121000Y-104430000D01*
X129081000Y-106390000D02*
X129081000Y-107725000D01*
X129081000Y-103095000D02*
X129081000Y-104430000D01*
X129041000Y-106390000D02*
X129041000Y-107743000D01*
X129041000Y-103077000D02*
X129041000Y-104430000D01*
X129001000Y-106390000D02*
X129001000Y-107760000D01*
X129001000Y-103060000D02*
X129001000Y-104430000D01*
X128961000Y-106390000D02*
X128961000Y-107776000D01*
X128961000Y-103044000D02*
X128961000Y-104430000D01*
X128921000Y-106390000D02*
X128921000Y-107792000D01*
X128921000Y-103028000D02*
X128921000Y-104430000D01*
X128881000Y-106390000D02*
X128881000Y-107806000D01*
X128881000Y-103014000D02*
X128881000Y-104430000D01*
X128841000Y-106390000D02*
X128841000Y-107820000D01*
X128841000Y-103000000D02*
X128841000Y-104430000D01*
X128801000Y-106390000D02*
X128801000Y-107834000D01*
X128801000Y-102986000D02*
X128801000Y-104430000D01*
X128761000Y-106390000D02*
X128761000Y-107846000D01*
X128761000Y-102974000D02*
X128761000Y-104430000D01*
X128721000Y-106390000D02*
X128721000Y-107858000D01*
X128721000Y-102962000D02*
X128721000Y-104430000D01*
X128680000Y-106390000D02*
X128680000Y-107870000D01*
X128680000Y-102950000D02*
X128680000Y-104430000D01*
X128640000Y-106390000D02*
X128640000Y-107880000D01*
X128640000Y-102940000D02*
X128640000Y-104430000D01*
X128600000Y-106390000D02*
X128600000Y-107890000D01*
X128600000Y-102930000D02*
X128600000Y-104430000D01*
X128560000Y-106390000D02*
X128560000Y-107899000D01*
X128560000Y-102921000D02*
X128560000Y-104430000D01*
X128520000Y-106390000D02*
X128520000Y-107908000D01*
X128520000Y-102912000D02*
X128520000Y-104430000D01*
X128480000Y-106390000D02*
X128480000Y-107916000D01*
X128480000Y-102904000D02*
X128480000Y-104430000D01*
X128440000Y-106390000D02*
X128440000Y-107923000D01*
X128440000Y-102897000D02*
X128440000Y-104430000D01*
X128400000Y-106390000D02*
X128400000Y-107929000D01*
X128400000Y-102891000D02*
X128400000Y-104430000D01*
X128360000Y-106390000D02*
X128360000Y-107935000D01*
X128360000Y-102885000D02*
X128360000Y-104430000D01*
X128320000Y-106390000D02*
X128320000Y-107941000D01*
X128320000Y-102879000D02*
X128320000Y-104430000D01*
X128280000Y-106390000D02*
X128280000Y-107945000D01*
X128280000Y-102875000D02*
X128280000Y-104430000D01*
X128240000Y-106390000D02*
X128240000Y-107949000D01*
X128240000Y-102871000D02*
X128240000Y-104430000D01*
X128200000Y-106390000D02*
X128200000Y-107953000D01*
X128200000Y-102867000D02*
X128200000Y-104430000D01*
X128160000Y-106390000D02*
X128160000Y-107956000D01*
X128160000Y-102864000D02*
X128160000Y-104430000D01*
X128120000Y-106390000D02*
X128120000Y-107958000D01*
X128120000Y-102862000D02*
X128120000Y-104430000D01*
X128080000Y-106390000D02*
X128080000Y-107959000D01*
X128080000Y-102861000D02*
X128080000Y-104430000D01*
X128040000Y-106390000D02*
X128040000Y-107960000D01*
X128040000Y-102860000D02*
X128040000Y-104430000D01*
X128000000Y-102860000D02*
X128000000Y-107960000D01*
X130305722Y-106589723D02*
G75*
G03*
X130305580Y-104230000I-2305722J1179723D01*
G01*
X130305722Y-106589723D02*
G75*
G02*
X125694420Y-106590000I-2305722J1179723D01*
G01*
X130305722Y-104230277D02*
G75*
G03*
X125694420Y-104230000I-2305722J-1179723D01*
G01*
G04 #@! TO.C,D1*
X149894000Y-113320000D02*
X150050000Y-113320000D01*
X152210000Y-113320000D02*
X152366000Y-113320000D01*
D11*
G36*
X152400000Y-111350000D02*
G01*
X152110000Y-111890000D01*
X151820000Y-111350000D01*
X152400000Y-111350000D01*
G37*
X152400000Y-111350000D02*
X152110000Y-111890000D01*
X151820000Y-111350000D01*
X152400000Y-111350000D01*
D14*
X152209837Y-110718870D02*
G75*
G02*
X152210000Y-112800961I-1079837J-1041130D01*
G01*
X150050163Y-110718870D02*
G75*
G03*
X150050000Y-112800961I1079837J-1041130D01*
G01*
X152208608Y-110087665D02*
G75*
G02*
X152365516Y-113320000I-1078608J-1672335D01*
G01*
X150051392Y-110087665D02*
G75*
G03*
X149894484Y-113320000I1078608J-1672335D01*
G01*
D11*
G04 #@! TO.C,D2*
G36*
X116840000Y-111350000D02*
G01*
X116550000Y-111890000D01*
X116260000Y-111350000D01*
X116840000Y-111350000D01*
G37*
X116840000Y-111350000D02*
X116550000Y-111890000D01*
X116260000Y-111350000D01*
X116840000Y-111350000D01*
D14*
X116650000Y-113320000D02*
X116806000Y-113320000D01*
X114334000Y-113320000D02*
X114490000Y-113320000D01*
X114491392Y-110087665D02*
G75*
G03*
X114334484Y-113320000I1078608J-1672335D01*
G01*
X116648608Y-110087665D02*
G75*
G02*
X116805516Y-113320000I-1078608J-1672335D01*
G01*
X114490163Y-110718870D02*
G75*
G03*
X114490000Y-112800961I1079837J-1041130D01*
G01*
X116649837Y-110718870D02*
G75*
G02*
X116650000Y-112800961I-1079837J-1041130D01*
G01*
G04 #@! TO.C,Q1*
X144090000Y-113560000D02*
X144090000Y-109960000D01*
X144078478Y-113598478D02*
G75*
G02*
X139640000Y-111760000I-1838478J1838478D01*
G01*
X144078478Y-109921522D02*
G75*
G03*
X139640000Y-111760000I-1838478J-1838478D01*
G01*
G04 #@! TO.C,Q2*
X126310000Y-113560000D02*
X126310000Y-109960000D01*
X126298478Y-109921522D02*
G75*
G03*
X121860000Y-111760000I-1838478J-1838478D01*
G01*
X126298478Y-113598478D02*
G75*
G02*
X121860000Y-111760000I-1838478J1838478D01*
G01*
G04 #@! TO.C,R1*
X138080000Y-95870000D02*
X138080000Y-99710000D01*
X136240000Y-95870000D02*
X136240000Y-99710000D01*
G04 #@! TO.C,R2*
X130460000Y-99710000D02*
X130460000Y-95870000D01*
X128620000Y-99710000D02*
X128620000Y-95870000D01*
G04 #@! TO.C,R3*
X147970000Y-103220000D02*
X144130000Y-103220000D01*
X147970000Y-105060000D02*
X144130000Y-105060000D01*
G04 #@! TO.C,R4*
X122570000Y-105060000D02*
X118730000Y-105060000D01*
X122570000Y-103220000D02*
X118730000Y-103220000D01*
G04 #@! TO.C,R5*
X147970000Y-105760000D02*
X144130000Y-105760000D01*
X147970000Y-107600000D02*
X144130000Y-107600000D01*
G04 #@! TO.C,R6*
X122570000Y-107600000D02*
X118730000Y-107600000D01*
X122570000Y-105760000D02*
X118730000Y-105760000D01*
D11*
G04 #@! TO.C,RV1*
X144250000Y-96160000D02*
X143850000Y-95370000D01*
X145120000Y-97920000D02*
X144720000Y-97120000D01*
X146070000Y-97150000D02*
X146070000Y-95880000D01*
X147370000Y-94830000D02*
X144830000Y-94830000D01*
D15*
X146070000Y-102810000D02*
X146070000Y-102410000D01*
X146080000Y-101920000D02*
X146080000Y-101520000D01*
X146080000Y-100990000D02*
X146080000Y-100590000D01*
X152490000Y-93940000D02*
X152090000Y-93940000D01*
X151490000Y-93950000D02*
X151090000Y-93950000D01*
X150530000Y-93950000D02*
X150130000Y-93950000D01*
X140270000Y-93940000D02*
X139870000Y-93940000D01*
X141210000Y-93950000D02*
X140810000Y-93950000D01*
X142080000Y-93950000D02*
X141680000Y-93950000D01*
D14*
X142740000Y-92830000D02*
X142740000Y-92580000D01*
X142740000Y-92580000D02*
X142990000Y-92580000D01*
X142990000Y-92580000D02*
X142990000Y-92330000D01*
X142990000Y-92330000D02*
X144240000Y-92330000D01*
X144240000Y-92330000D02*
X144240000Y-92580000D01*
X144240000Y-92580000D02*
X147890000Y-92580000D01*
X147890000Y-92580000D02*
X147890000Y-92330000D01*
X147890000Y-92330000D02*
X149190000Y-92330000D01*
X149190000Y-92330000D02*
X149190000Y-92580000D01*
X149190000Y-92580000D02*
X149490000Y-92580000D01*
X149490000Y-92580000D02*
X149490000Y-92830000D01*
X144940000Y-99880000D02*
X144040000Y-99880000D01*
X144040000Y-99880000D02*
X142690000Y-98380000D01*
X142690000Y-98380000D02*
X142690000Y-95080000D01*
X149490000Y-95080000D02*
X149490000Y-98430000D01*
X149490000Y-98430000D02*
X148140000Y-99880000D01*
X148140000Y-99880000D02*
X147240000Y-99880000D01*
G04 #@! TO.C,RV2*
X122740000Y-99880000D02*
X121840000Y-99880000D01*
X124090000Y-98430000D02*
X122740000Y-99880000D01*
X124090000Y-95080000D02*
X124090000Y-98430000D01*
X117290000Y-98380000D02*
X117290000Y-95080000D01*
X118640000Y-99880000D02*
X117290000Y-98380000D01*
X119540000Y-99880000D02*
X118640000Y-99880000D01*
X124090000Y-92580000D02*
X124090000Y-92830000D01*
X123790000Y-92580000D02*
X124090000Y-92580000D01*
X123790000Y-92330000D02*
X123790000Y-92580000D01*
X122490000Y-92330000D02*
X123790000Y-92330000D01*
X122490000Y-92580000D02*
X122490000Y-92330000D01*
X118840000Y-92580000D02*
X122490000Y-92580000D01*
X118840000Y-92330000D02*
X118840000Y-92580000D01*
X117590000Y-92330000D02*
X118840000Y-92330000D01*
X117590000Y-92580000D02*
X117590000Y-92330000D01*
X117340000Y-92580000D02*
X117590000Y-92580000D01*
X117340000Y-92830000D02*
X117340000Y-92580000D01*
D15*
X116680000Y-93950000D02*
X116280000Y-93950000D01*
X115810000Y-93950000D02*
X115410000Y-93950000D01*
X114870000Y-93940000D02*
X114470000Y-93940000D01*
X125130000Y-93950000D02*
X124730000Y-93950000D01*
X126090000Y-93950000D02*
X125690000Y-93950000D01*
X127090000Y-93940000D02*
X126690000Y-93940000D01*
X120680000Y-100990000D02*
X120680000Y-100590000D01*
X120680000Y-101920000D02*
X120680000Y-101520000D01*
X120670000Y-102810000D02*
X120670000Y-102410000D01*
D11*
X121970000Y-94830000D02*
X119430000Y-94830000D01*
X120670000Y-97150000D02*
X120670000Y-95880000D01*
X119720000Y-97920000D02*
X119320000Y-97120000D01*
X118850000Y-96160000D02*
X118450000Y-95370000D01*
G04 #@! TD*
G04 #@! TO.C,BT1*
D15*
X134135714Y-92130571D02*
X133992857Y-92178190D01*
X133945238Y-92225809D01*
X133897619Y-92321047D01*
X133897619Y-92463904D01*
X133945238Y-92559142D01*
X133992857Y-92606761D01*
X134088095Y-92654380D01*
X134469047Y-92654380D01*
X134469047Y-91654380D01*
X134135714Y-91654380D01*
X134040476Y-91702000D01*
X133992857Y-91749619D01*
X133945238Y-91844857D01*
X133945238Y-91940095D01*
X133992857Y-92035333D01*
X134040476Y-92082952D01*
X134135714Y-92130571D01*
X134469047Y-92130571D01*
X133611904Y-91654380D02*
X133040476Y-91654380D01*
X133326190Y-92654380D02*
X133326190Y-91654380D01*
X132183333Y-92654380D02*
X132754761Y-92654380D01*
X132469047Y-92654380D02*
X132469047Y-91654380D01*
X132564285Y-91797238D01*
X132659523Y-91892476D01*
X132754761Y-91940095D01*
D16*
X142747904Y-83327857D02*
X141224095Y-83327857D01*
X141986000Y-84089761D02*
X141986000Y-82565952D01*
X129285904Y-83327857D02*
X127762095Y-83327857D01*
D15*
X135572238Y-74017142D02*
X135619857Y-74064761D01*
X135762714Y-74112380D01*
X135857952Y-74112380D01*
X136000809Y-74064761D01*
X136096047Y-73969523D01*
X136143666Y-73874285D01*
X136191285Y-73683809D01*
X136191285Y-73540952D01*
X136143666Y-73350476D01*
X136096047Y-73255238D01*
X136000809Y-73160000D01*
X135857952Y-73112380D01*
X135762714Y-73112380D01*
X135619857Y-73160000D01*
X135572238Y-73207619D01*
X134572238Y-74112380D02*
X134905571Y-73636190D01*
X135143666Y-74112380D02*
X135143666Y-73112380D01*
X134762714Y-73112380D01*
X134667476Y-73160000D01*
X134619857Y-73207619D01*
X134572238Y-73302857D01*
X134572238Y-73445714D01*
X134619857Y-73540952D01*
X134667476Y-73588571D01*
X134762714Y-73636190D01*
X135143666Y-73636190D01*
X134191285Y-73207619D02*
X134143666Y-73160000D01*
X134048428Y-73112380D01*
X133810333Y-73112380D01*
X133715095Y-73160000D01*
X133667476Y-73207619D01*
X133619857Y-73302857D01*
X133619857Y-73398095D01*
X133667476Y-73540952D01*
X134238904Y-74112380D01*
X133619857Y-74112380D01*
X133000809Y-73112380D02*
X132905571Y-73112380D01*
X132810333Y-73160000D01*
X132762714Y-73207619D01*
X132715095Y-73302857D01*
X132667476Y-73493333D01*
X132667476Y-73731428D01*
X132715095Y-73921904D01*
X132762714Y-74017142D01*
X132810333Y-74064761D01*
X132905571Y-74112380D01*
X133000809Y-74112380D01*
X133096047Y-74064761D01*
X133143666Y-74017142D01*
X133191285Y-73921904D01*
X133238904Y-73731428D01*
X133238904Y-73493333D01*
X133191285Y-73302857D01*
X133143666Y-73207619D01*
X133096047Y-73160000D01*
X133000809Y-73112380D01*
X132334142Y-73112380D02*
X131715095Y-73112380D01*
X132048428Y-73493333D01*
X131905571Y-73493333D01*
X131810333Y-73540952D01*
X131762714Y-73588571D01*
X131715095Y-73683809D01*
X131715095Y-73921904D01*
X131762714Y-74017142D01*
X131810333Y-74064761D01*
X131905571Y-74112380D01*
X132191285Y-74112380D01*
X132286523Y-74064761D01*
X132334142Y-74017142D01*
X131334142Y-73207619D02*
X131286523Y-73160000D01*
X131191285Y-73112380D01*
X130953190Y-73112380D01*
X130857952Y-73160000D01*
X130810333Y-73207619D01*
X130762714Y-73302857D01*
X130762714Y-73398095D01*
X130810333Y-73540952D01*
X131381761Y-74112380D01*
X130762714Y-74112380D01*
G04 #@! TO.C,C1*
X135040666Y-103481142D02*
X135088285Y-103528761D01*
X135231142Y-103576380D01*
X135326380Y-103576380D01*
X135469238Y-103528761D01*
X135564476Y-103433523D01*
X135612095Y-103338285D01*
X135659714Y-103147809D01*
X135659714Y-103004952D01*
X135612095Y-102814476D01*
X135564476Y-102719238D01*
X135469238Y-102624000D01*
X135326380Y-102576380D01*
X135231142Y-102576380D01*
X135088285Y-102624000D01*
X135040666Y-102671619D01*
X134088285Y-103576380D02*
X134659714Y-103576380D01*
X134374000Y-103576380D02*
X134374000Y-102576380D01*
X134469238Y-102719238D01*
X134564476Y-102814476D01*
X134659714Y-102862095D01*
G04 #@! TO.C,C2*
X131992666Y-103481142D02*
X132040285Y-103528761D01*
X132183142Y-103576380D01*
X132278380Y-103576380D01*
X132421238Y-103528761D01*
X132516476Y-103433523D01*
X132564095Y-103338285D01*
X132611714Y-103147809D01*
X132611714Y-103004952D01*
X132564095Y-102814476D01*
X132516476Y-102719238D01*
X132421238Y-102624000D01*
X132278380Y-102576380D01*
X132183142Y-102576380D01*
X132040285Y-102624000D01*
X131992666Y-102671619D01*
X131611714Y-102671619D02*
X131564095Y-102624000D01*
X131468857Y-102576380D01*
X131230761Y-102576380D01*
X131135523Y-102624000D01*
X131087904Y-102671619D01*
X131040285Y-102766857D01*
X131040285Y-102862095D01*
X131087904Y-103004952D01*
X131659333Y-103576380D01*
X131040285Y-103576380D01*
G04 #@! TO.C,D1*
X149582095Y-109926380D02*
X149582095Y-108926380D01*
X149344000Y-108926380D01*
X149201142Y-108974000D01*
X149105904Y-109069238D01*
X149058285Y-109164476D01*
X149010666Y-109354952D01*
X149010666Y-109497809D01*
X149058285Y-109688285D01*
X149105904Y-109783523D01*
X149201142Y-109878761D01*
X149344000Y-109926380D01*
X149582095Y-109926380D01*
X148058285Y-109926380D02*
X148629714Y-109926380D01*
X148344000Y-109926380D02*
X148344000Y-108926380D01*
X148439238Y-109069238D01*
X148534476Y-109164476D01*
X148629714Y-109212095D01*
G04 #@! TO.C,D2*
X118594095Y-109926380D02*
X118594095Y-108926380D01*
X118356000Y-108926380D01*
X118213142Y-108974000D01*
X118117904Y-109069238D01*
X118070285Y-109164476D01*
X118022666Y-109354952D01*
X118022666Y-109497809D01*
X118070285Y-109688285D01*
X118117904Y-109783523D01*
X118213142Y-109878761D01*
X118356000Y-109926380D01*
X118594095Y-109926380D01*
X117641714Y-109021619D02*
X117594095Y-108974000D01*
X117498857Y-108926380D01*
X117260761Y-108926380D01*
X117165523Y-108974000D01*
X117117904Y-109021619D01*
X117070285Y-109116857D01*
X117070285Y-109212095D01*
X117117904Y-109354952D01*
X117689333Y-109926380D01*
X117070285Y-109926380D01*
G04 #@! TO.C,Q1*
X138779238Y-110783619D02*
X138874476Y-110736000D01*
X138969714Y-110640761D01*
X139112571Y-110497904D01*
X139207809Y-110450285D01*
X139303047Y-110450285D01*
X139255428Y-110688380D02*
X139350666Y-110640761D01*
X139445904Y-110545523D01*
X139493523Y-110355047D01*
X139493523Y-110021714D01*
X139445904Y-109831238D01*
X139350666Y-109736000D01*
X139255428Y-109688380D01*
X139064952Y-109688380D01*
X138969714Y-109736000D01*
X138874476Y-109831238D01*
X138826857Y-110021714D01*
X138826857Y-110355047D01*
X138874476Y-110545523D01*
X138969714Y-110640761D01*
X139064952Y-110688380D01*
X139255428Y-110688380D01*
X137874476Y-110688380D02*
X138445904Y-110688380D01*
X138160190Y-110688380D02*
X138160190Y-109688380D01*
X138255428Y-109831238D01*
X138350666Y-109926476D01*
X138445904Y-109974095D01*
D11*
X144450714Y-110102857D02*
X144415000Y-110138571D01*
X144379285Y-110210000D01*
X144379285Y-110388571D01*
X144415000Y-110460000D01*
X144450714Y-110495714D01*
X144522142Y-110531428D01*
X144593571Y-110531428D01*
X144700714Y-110495714D01*
X145129285Y-110067142D01*
X145129285Y-110531428D01*
X144450714Y-110817142D02*
X144415000Y-110852857D01*
X144379285Y-110924285D01*
X144379285Y-111102857D01*
X144415000Y-111174285D01*
X144450714Y-111210000D01*
X144522142Y-111245714D01*
X144593571Y-111245714D01*
X144700714Y-111210000D01*
X145129285Y-110781428D01*
X145129285Y-111245714D01*
X144450714Y-111531428D02*
X144415000Y-111567142D01*
X144379285Y-111638571D01*
X144379285Y-111817142D01*
X144415000Y-111888571D01*
X144450714Y-111924285D01*
X144522142Y-111960000D01*
X144593571Y-111960000D01*
X144700714Y-111924285D01*
X145129285Y-111495714D01*
X145129285Y-111960000D01*
X144450714Y-112245714D02*
X144415000Y-112281428D01*
X144379285Y-112352857D01*
X144379285Y-112531428D01*
X144415000Y-112602857D01*
X144450714Y-112638571D01*
X144522142Y-112674285D01*
X144593571Y-112674285D01*
X144700714Y-112638571D01*
X145129285Y-112210000D01*
X145129285Y-112674285D01*
X144915000Y-112960000D02*
X144915000Y-113317142D01*
X145129285Y-112888571D02*
X144379285Y-113138571D01*
X145129285Y-113388571D01*
X146299285Y-109395714D02*
X145549285Y-109395714D01*
X146299285Y-109824285D01*
X145549285Y-109824285D01*
X146299285Y-110181428D02*
X145549285Y-110181428D01*
X145549285Y-110467142D01*
X145585000Y-110538571D01*
X145620714Y-110574285D01*
X145692142Y-110610000D01*
X145799285Y-110610000D01*
X145870714Y-110574285D01*
X145906428Y-110538571D01*
X145942142Y-110467142D01*
X145942142Y-110181428D01*
X146299285Y-110931428D02*
X145549285Y-110931428D01*
X146299285Y-111360000D01*
X145549285Y-111360000D01*
X145906428Y-112538571D02*
X145942142Y-112645714D01*
X145977857Y-112681428D01*
X146049285Y-112717142D01*
X146156428Y-112717142D01*
X146227857Y-112681428D01*
X146263571Y-112645714D01*
X146299285Y-112574285D01*
X146299285Y-112288571D01*
X145549285Y-112288571D01*
X145549285Y-112538571D01*
X145585000Y-112610000D01*
X145620714Y-112645714D01*
X145692142Y-112681428D01*
X145763571Y-112681428D01*
X145835000Y-112645714D01*
X145870714Y-112610000D01*
X145906428Y-112538571D01*
X145906428Y-112288571D01*
X145549285Y-113252857D02*
X146085000Y-113252857D01*
X146192142Y-113217142D01*
X146263571Y-113145714D01*
X146299285Y-113038571D01*
X146299285Y-112967142D01*
X145549285Y-113502857D02*
X145549285Y-113931428D01*
X146299285Y-113717142D02*
X145549285Y-113717142D01*
X140716428Y-112869285D02*
X140716428Y-113119285D01*
X141109285Y-113226428D02*
X141109285Y-112869285D01*
X140359285Y-112869285D01*
X140359285Y-113226428D01*
X140696428Y-111813571D02*
X140732142Y-111920714D01*
X140767857Y-111956428D01*
X140839285Y-111992142D01*
X140946428Y-111992142D01*
X141017857Y-111956428D01*
X141053571Y-111920714D01*
X141089285Y-111849285D01*
X141089285Y-111563571D01*
X140339285Y-111563571D01*
X140339285Y-111813571D01*
X140375000Y-111885000D01*
X140410714Y-111920714D01*
X140482142Y-111956428D01*
X140553571Y-111956428D01*
X140625000Y-111920714D01*
X140660714Y-111885000D01*
X140696428Y-111813571D01*
X140696428Y-111563571D01*
X141017857Y-110712142D02*
X141053571Y-110676428D01*
X141089285Y-110569285D01*
X141089285Y-110497857D01*
X141053571Y-110390714D01*
X140982142Y-110319285D01*
X140910714Y-110283571D01*
X140767857Y-110247857D01*
X140660714Y-110247857D01*
X140517857Y-110283571D01*
X140446428Y-110319285D01*
X140375000Y-110390714D01*
X140339285Y-110497857D01*
X140339285Y-110569285D01*
X140375000Y-110676428D01*
X140410714Y-110712142D01*
G04 #@! TO.C,Q2*
D15*
X127603238Y-110783619D02*
X127698476Y-110736000D01*
X127793714Y-110640761D01*
X127936571Y-110497904D01*
X128031809Y-110450285D01*
X128127047Y-110450285D01*
X128079428Y-110688380D02*
X128174666Y-110640761D01*
X128269904Y-110545523D01*
X128317523Y-110355047D01*
X128317523Y-110021714D01*
X128269904Y-109831238D01*
X128174666Y-109736000D01*
X128079428Y-109688380D01*
X127888952Y-109688380D01*
X127793714Y-109736000D01*
X127698476Y-109831238D01*
X127650857Y-110021714D01*
X127650857Y-110355047D01*
X127698476Y-110545523D01*
X127793714Y-110640761D01*
X127888952Y-110688380D01*
X128079428Y-110688380D01*
X127269904Y-109783619D02*
X127222285Y-109736000D01*
X127127047Y-109688380D01*
X126888952Y-109688380D01*
X126793714Y-109736000D01*
X126746095Y-109783619D01*
X126698476Y-109878857D01*
X126698476Y-109974095D01*
X126746095Y-110116952D01*
X127317523Y-110688380D01*
X126698476Y-110688380D01*
D11*
X123237857Y-110712142D02*
X123273571Y-110676428D01*
X123309285Y-110569285D01*
X123309285Y-110497857D01*
X123273571Y-110390714D01*
X123202142Y-110319285D01*
X123130714Y-110283571D01*
X122987857Y-110247857D01*
X122880714Y-110247857D01*
X122737857Y-110283571D01*
X122666428Y-110319285D01*
X122595000Y-110390714D01*
X122559285Y-110497857D01*
X122559285Y-110569285D01*
X122595000Y-110676428D01*
X122630714Y-110712142D01*
X122916428Y-111813571D02*
X122952142Y-111920714D01*
X122987857Y-111956428D01*
X123059285Y-111992142D01*
X123166428Y-111992142D01*
X123237857Y-111956428D01*
X123273571Y-111920714D01*
X123309285Y-111849285D01*
X123309285Y-111563571D01*
X122559285Y-111563571D01*
X122559285Y-111813571D01*
X122595000Y-111885000D01*
X122630714Y-111920714D01*
X122702142Y-111956428D01*
X122773571Y-111956428D01*
X122845000Y-111920714D01*
X122880714Y-111885000D01*
X122916428Y-111813571D01*
X122916428Y-111563571D01*
X122936428Y-112869285D02*
X122936428Y-113119285D01*
X123329285Y-113226428D02*
X123329285Y-112869285D01*
X122579285Y-112869285D01*
X122579285Y-113226428D01*
X120481285Y-109395714D02*
X119731285Y-109395714D01*
X120481285Y-109824285D01*
X119731285Y-109824285D01*
X120481285Y-110181428D02*
X119731285Y-110181428D01*
X119731285Y-110467142D01*
X119767000Y-110538571D01*
X119802714Y-110574285D01*
X119874142Y-110610000D01*
X119981285Y-110610000D01*
X120052714Y-110574285D01*
X120088428Y-110538571D01*
X120124142Y-110467142D01*
X120124142Y-110181428D01*
X120481285Y-110931428D02*
X119731285Y-110931428D01*
X120481285Y-111360000D01*
X119731285Y-111360000D01*
X120088428Y-112538571D02*
X120124142Y-112645714D01*
X120159857Y-112681428D01*
X120231285Y-112717142D01*
X120338428Y-112717142D01*
X120409857Y-112681428D01*
X120445571Y-112645714D01*
X120481285Y-112574285D01*
X120481285Y-112288571D01*
X119731285Y-112288571D01*
X119731285Y-112538571D01*
X119767000Y-112610000D01*
X119802714Y-112645714D01*
X119874142Y-112681428D01*
X119945571Y-112681428D01*
X120017000Y-112645714D01*
X120052714Y-112610000D01*
X120088428Y-112538571D01*
X120088428Y-112288571D01*
X119731285Y-113252857D02*
X120267000Y-113252857D01*
X120374142Y-113217142D01*
X120445571Y-113145714D01*
X120481285Y-113038571D01*
X120481285Y-112967142D01*
X119731285Y-113502857D02*
X119731285Y-113931428D01*
X120481285Y-113717142D02*
X119731285Y-113717142D01*
X120818714Y-110102857D02*
X120783000Y-110138571D01*
X120747285Y-110210000D01*
X120747285Y-110388571D01*
X120783000Y-110460000D01*
X120818714Y-110495714D01*
X120890142Y-110531428D01*
X120961571Y-110531428D01*
X121068714Y-110495714D01*
X121497285Y-110067142D01*
X121497285Y-110531428D01*
X120818714Y-110817142D02*
X120783000Y-110852857D01*
X120747285Y-110924285D01*
X120747285Y-111102857D01*
X120783000Y-111174285D01*
X120818714Y-111210000D01*
X120890142Y-111245714D01*
X120961571Y-111245714D01*
X121068714Y-111210000D01*
X121497285Y-110781428D01*
X121497285Y-111245714D01*
X120818714Y-111531428D02*
X120783000Y-111567142D01*
X120747285Y-111638571D01*
X120747285Y-111817142D01*
X120783000Y-111888571D01*
X120818714Y-111924285D01*
X120890142Y-111960000D01*
X120961571Y-111960000D01*
X121068714Y-111924285D01*
X121497285Y-111495714D01*
X121497285Y-111960000D01*
X120818714Y-112245714D02*
X120783000Y-112281428D01*
X120747285Y-112352857D01*
X120747285Y-112531428D01*
X120783000Y-112602857D01*
X120818714Y-112638571D01*
X120890142Y-112674285D01*
X120961571Y-112674285D01*
X121068714Y-112638571D01*
X121497285Y-112210000D01*
X121497285Y-112674285D01*
X121283000Y-112960000D02*
X121283000Y-113317142D01*
X121497285Y-112888571D02*
X120747285Y-113138571D01*
X121497285Y-113388571D01*
G04 #@! TO.C,R1*
D15*
X137285000Y-97367285D02*
X137535000Y-97010142D01*
X137713571Y-97367285D02*
X137713571Y-96617285D01*
X137427857Y-96617285D01*
X137356428Y-96653000D01*
X137320714Y-96688714D01*
X137285000Y-96760142D01*
X137285000Y-96867285D01*
X137320714Y-96938714D01*
X137356428Y-96974428D01*
X137427857Y-97010142D01*
X137713571Y-97010142D01*
X136570714Y-97367285D02*
X136999285Y-97367285D01*
X136785000Y-97367285D02*
X136785000Y-96617285D01*
X136856428Y-96724428D01*
X136927857Y-96795857D01*
X136999285Y-96831571D01*
G04 #@! TO.C,R2*
X129665000Y-97367285D02*
X129915000Y-97010142D01*
X130093571Y-97367285D02*
X130093571Y-96617285D01*
X129807857Y-96617285D01*
X129736428Y-96653000D01*
X129700714Y-96688714D01*
X129665000Y-96760142D01*
X129665000Y-96867285D01*
X129700714Y-96938714D01*
X129736428Y-96974428D01*
X129807857Y-97010142D01*
X130093571Y-97010142D01*
X129379285Y-96688714D02*
X129343571Y-96653000D01*
X129272142Y-96617285D01*
X129093571Y-96617285D01*
X129022142Y-96653000D01*
X128986428Y-96688714D01*
X128950714Y-96760142D01*
X128950714Y-96831571D01*
X128986428Y-96938714D01*
X129415000Y-97367285D01*
X128950714Y-97367285D01*
G04 #@! TO.C,R3*
X146238500Y-104225285D02*
X146488500Y-103868142D01*
X146667071Y-104225285D02*
X146667071Y-103475285D01*
X146381357Y-103475285D01*
X146309928Y-103511000D01*
X146274214Y-103546714D01*
X146238500Y-103618142D01*
X146238500Y-103725285D01*
X146274214Y-103796714D01*
X146309928Y-103832428D01*
X146381357Y-103868142D01*
X146667071Y-103868142D01*
X145988500Y-103475285D02*
X145524214Y-103475285D01*
X145774214Y-103761000D01*
X145667071Y-103761000D01*
X145595642Y-103796714D01*
X145559928Y-103832428D01*
X145524214Y-103903857D01*
X145524214Y-104082428D01*
X145559928Y-104153857D01*
X145595642Y-104189571D01*
X145667071Y-104225285D01*
X145881357Y-104225285D01*
X145952785Y-104189571D01*
X145988500Y-104153857D01*
G04 #@! TO.C,R4*
X120838500Y-104225285D02*
X121088500Y-103868142D01*
X121267071Y-104225285D02*
X121267071Y-103475285D01*
X120981357Y-103475285D01*
X120909928Y-103511000D01*
X120874214Y-103546714D01*
X120838500Y-103618142D01*
X120838500Y-103725285D01*
X120874214Y-103796714D01*
X120909928Y-103832428D01*
X120981357Y-103868142D01*
X121267071Y-103868142D01*
X120195642Y-103725285D02*
X120195642Y-104225285D01*
X120374214Y-103439571D02*
X120552785Y-103975285D01*
X120088500Y-103975285D01*
G04 #@! TO.C,R5*
X146238500Y-106765285D02*
X146488500Y-106408142D01*
X146667071Y-106765285D02*
X146667071Y-106015285D01*
X146381357Y-106015285D01*
X146309928Y-106051000D01*
X146274214Y-106086714D01*
X146238500Y-106158142D01*
X146238500Y-106265285D01*
X146274214Y-106336714D01*
X146309928Y-106372428D01*
X146381357Y-106408142D01*
X146667071Y-106408142D01*
X145559928Y-106015285D02*
X145917071Y-106015285D01*
X145952785Y-106372428D01*
X145917071Y-106336714D01*
X145845642Y-106301000D01*
X145667071Y-106301000D01*
X145595642Y-106336714D01*
X145559928Y-106372428D01*
X145524214Y-106443857D01*
X145524214Y-106622428D01*
X145559928Y-106693857D01*
X145595642Y-106729571D01*
X145667071Y-106765285D01*
X145845642Y-106765285D01*
X145917071Y-106729571D01*
X145952785Y-106693857D01*
G04 #@! TO.C,R6*
X120838500Y-106765285D02*
X121088500Y-106408142D01*
X121267071Y-106765285D02*
X121267071Y-106015285D01*
X120981357Y-106015285D01*
X120909928Y-106051000D01*
X120874214Y-106086714D01*
X120838500Y-106158142D01*
X120838500Y-106265285D01*
X120874214Y-106336714D01*
X120909928Y-106372428D01*
X120981357Y-106408142D01*
X121267071Y-106408142D01*
X120195642Y-106015285D02*
X120338500Y-106015285D01*
X120409928Y-106051000D01*
X120445642Y-106086714D01*
X120517071Y-106193857D01*
X120552785Y-106336714D01*
X120552785Y-106622428D01*
X120517071Y-106693857D01*
X120481357Y-106729571D01*
X120409928Y-106765285D01*
X120267071Y-106765285D01*
X120195642Y-106729571D01*
X120159928Y-106693857D01*
X120124214Y-106622428D01*
X120124214Y-106443857D01*
X120159928Y-106372428D01*
X120195642Y-106336714D01*
X120267071Y-106301000D01*
X120409928Y-106301000D01*
X120481357Y-106336714D01*
X120517071Y-106372428D01*
X120552785Y-106443857D01*
G04 #@! TO.C,RV1*
X146795238Y-91852380D02*
X147128571Y-91376190D01*
X147366666Y-91852380D02*
X147366666Y-90852380D01*
X146985714Y-90852380D01*
X146890476Y-90900000D01*
X146842857Y-90947619D01*
X146795238Y-91042857D01*
X146795238Y-91185714D01*
X146842857Y-91280952D01*
X146890476Y-91328571D01*
X146985714Y-91376190D01*
X147366666Y-91376190D01*
X146509523Y-90852380D02*
X146176190Y-91852380D01*
X145842857Y-90852380D01*
X144985714Y-91852380D02*
X145557142Y-91852380D01*
X145271428Y-91852380D02*
X145271428Y-90852380D01*
X145366666Y-90995238D01*
X145461904Y-91090476D01*
X145557142Y-91138095D01*
D11*
X142063809Y-94746190D02*
X142063809Y-94246190D01*
X141873333Y-94246190D01*
X141825714Y-94270000D01*
X141801904Y-94293809D01*
X141778095Y-94341428D01*
X141778095Y-94412857D01*
X141801904Y-94460476D01*
X141825714Y-94484285D01*
X141873333Y-94508095D01*
X142063809Y-94508095D01*
X141468571Y-94246190D02*
X141373333Y-94246190D01*
X141325714Y-94270000D01*
X141278095Y-94317619D01*
X141254285Y-94412857D01*
X141254285Y-94579523D01*
X141278095Y-94674761D01*
X141325714Y-94722380D01*
X141373333Y-94746190D01*
X141468571Y-94746190D01*
X141516190Y-94722380D01*
X141563809Y-94674761D01*
X141587619Y-94579523D01*
X141587619Y-94412857D01*
X141563809Y-94317619D01*
X141516190Y-94270000D01*
X141468571Y-94246190D01*
X141111428Y-94246190D02*
X140825714Y-94246190D01*
X140968571Y-94746190D02*
X140968571Y-94246190D01*
X140349523Y-94246190D02*
X140182857Y-94746190D01*
X140016190Y-94246190D01*
X139873333Y-94722380D02*
X139801904Y-94746190D01*
X139682857Y-94746190D01*
X139635238Y-94722380D01*
X139611428Y-94698571D01*
X139587619Y-94650952D01*
X139587619Y-94603333D01*
X139611428Y-94555714D01*
X139635238Y-94531904D01*
X139682857Y-94508095D01*
X139778095Y-94484285D01*
X139825714Y-94460476D01*
X139849523Y-94436666D01*
X139873333Y-94389047D01*
X139873333Y-94341428D01*
X139849523Y-94293809D01*
X139825714Y-94270000D01*
X139778095Y-94246190D01*
X139659047Y-94246190D01*
X139587619Y-94270000D01*
X139397142Y-94722380D02*
X139325714Y-94746190D01*
X139206666Y-94746190D01*
X139159047Y-94722380D01*
X139135238Y-94698571D01*
X139111428Y-94650952D01*
X139111428Y-94603333D01*
X139135238Y-94555714D01*
X139159047Y-94531904D01*
X139206666Y-94508095D01*
X139301904Y-94484285D01*
X139349523Y-94460476D01*
X139373333Y-94436666D01*
X139397142Y-94389047D01*
X139397142Y-94341428D01*
X139373333Y-94293809D01*
X139349523Y-94270000D01*
X139301904Y-94246190D01*
X139182857Y-94246190D01*
X139111428Y-94270000D01*
X138897142Y-94555714D02*
X138516190Y-94555714D01*
X138706666Y-94746190D02*
X138706666Y-94365238D01*
X141769523Y-93566190D02*
X141936190Y-93328095D01*
X142055238Y-93566190D02*
X142055238Y-93066190D01*
X141864761Y-93066190D01*
X141817142Y-93090000D01*
X141793333Y-93113809D01*
X141769523Y-93161428D01*
X141769523Y-93232857D01*
X141793333Y-93280476D01*
X141817142Y-93304285D01*
X141864761Y-93328095D01*
X142055238Y-93328095D01*
X141555238Y-93566190D02*
X141555238Y-93066190D01*
X141555238Y-93304285D02*
X141269523Y-93304285D01*
X141269523Y-93566190D02*
X141269523Y-93066190D01*
X141031428Y-93304285D02*
X140864761Y-93304285D01*
X140793333Y-93566190D02*
X141031428Y-93566190D01*
X141031428Y-93066190D01*
X140793333Y-93066190D01*
X140198095Y-93566190D02*
X140198095Y-93066190D01*
X139960000Y-93232857D02*
X139960000Y-93566190D01*
X139960000Y-93280476D02*
X139936190Y-93256666D01*
X139888571Y-93232857D01*
X139817142Y-93232857D01*
X139769523Y-93256666D01*
X139745714Y-93304285D01*
X139745714Y-93566190D01*
X139436190Y-93566190D02*
X139483809Y-93542380D01*
X139507619Y-93494761D01*
X139507619Y-93066190D01*
X139245714Y-93566190D02*
X139245714Y-93232857D01*
X139245714Y-93066190D02*
X139269523Y-93090000D01*
X139245714Y-93113809D01*
X139221904Y-93090000D01*
X139245714Y-93066190D01*
X139245714Y-93113809D01*
X139007619Y-93232857D02*
X139007619Y-93566190D01*
X139007619Y-93280476D02*
X138983809Y-93256666D01*
X138936190Y-93232857D01*
X138864761Y-93232857D01*
X138817142Y-93256666D01*
X138793333Y-93304285D01*
X138793333Y-93566190D01*
X138364761Y-93542380D02*
X138412380Y-93566190D01*
X138507619Y-93566190D01*
X138555238Y-93542380D01*
X138579047Y-93494761D01*
X138579047Y-93304285D01*
X138555238Y-93256666D01*
X138507619Y-93232857D01*
X138412380Y-93232857D01*
X138364761Y-93256666D01*
X138340952Y-93304285D01*
X138340952Y-93351904D01*
X138579047Y-93399523D01*
X153205714Y-94786190D02*
X153205714Y-94286190D01*
X153015238Y-94286190D01*
X152967619Y-94310000D01*
X152943809Y-94333809D01*
X152920000Y-94381428D01*
X152920000Y-94452857D01*
X152943809Y-94500476D01*
X152967619Y-94524285D01*
X153015238Y-94548095D01*
X153205714Y-94548095D01*
X152610476Y-94286190D02*
X152515238Y-94286190D01*
X152467619Y-94310000D01*
X152420000Y-94357619D01*
X152396190Y-94452857D01*
X152396190Y-94619523D01*
X152420000Y-94714761D01*
X152467619Y-94762380D01*
X152515238Y-94786190D01*
X152610476Y-94786190D01*
X152658095Y-94762380D01*
X152705714Y-94714761D01*
X152729523Y-94619523D01*
X152729523Y-94452857D01*
X152705714Y-94357619D01*
X152658095Y-94310000D01*
X152610476Y-94286190D01*
X152253333Y-94286190D02*
X151967619Y-94286190D01*
X152110476Y-94786190D02*
X152110476Y-94286190D01*
X151158095Y-94310000D02*
X151205714Y-94286190D01*
X151277142Y-94286190D01*
X151348571Y-94310000D01*
X151396190Y-94357619D01*
X151420000Y-94405238D01*
X151443809Y-94500476D01*
X151443809Y-94571904D01*
X151420000Y-94667142D01*
X151396190Y-94714761D01*
X151348571Y-94762380D01*
X151277142Y-94786190D01*
X151229523Y-94786190D01*
X151158095Y-94762380D01*
X151134285Y-94738571D01*
X151134285Y-94571904D01*
X151229523Y-94571904D01*
X150920000Y-94786190D02*
X150920000Y-94286190D01*
X150634285Y-94786190D01*
X150634285Y-94286190D01*
X150396190Y-94786190D02*
X150396190Y-94286190D01*
X150277142Y-94286190D01*
X150205714Y-94310000D01*
X150158095Y-94357619D01*
X150134285Y-94405238D01*
X150110476Y-94500476D01*
X150110476Y-94571904D01*
X150134285Y-94667142D01*
X150158095Y-94714761D01*
X150205714Y-94762380D01*
X150277142Y-94786190D01*
X150396190Y-94786190D01*
X152928095Y-93466190D02*
X153094761Y-93228095D01*
X153213809Y-93466190D02*
X153213809Y-92966190D01*
X153023333Y-92966190D01*
X152975714Y-92990000D01*
X152951904Y-93013809D01*
X152928095Y-93061428D01*
X152928095Y-93132857D01*
X152951904Y-93180476D01*
X152975714Y-93204285D01*
X153023333Y-93228095D01*
X153213809Y-93228095D01*
X152713809Y-93466190D02*
X152713809Y-92966190D01*
X152713809Y-93204285D02*
X152428095Y-93204285D01*
X152428095Y-93466190D02*
X152428095Y-92966190D01*
X152190000Y-93204285D02*
X152023333Y-93204285D01*
X151951904Y-93466190D02*
X152190000Y-93466190D01*
X152190000Y-92966190D01*
X151951904Y-92966190D01*
X151404285Y-92966190D02*
X151070952Y-93466190D01*
X151070952Y-92966190D02*
X151404285Y-93466190D01*
X150928095Y-92966190D02*
X150594761Y-93466190D01*
X150594761Y-92966190D02*
X150928095Y-93466190D01*
X150451904Y-92966190D02*
X150118571Y-93466190D01*
X150118571Y-92966190D02*
X150451904Y-93466190D01*
X149416666Y-101195714D02*
X149035714Y-101195714D01*
X149226190Y-101386190D02*
X149226190Y-101005238D01*
X148797619Y-101195714D02*
X148416666Y-101195714D01*
X148250000Y-100886190D02*
X148083333Y-101386190D01*
X147916666Y-100886190D01*
X147678571Y-101386190D02*
X147726190Y-101362380D01*
X147750000Y-101338571D01*
X147773809Y-101290952D01*
X147773809Y-101148095D01*
X147750000Y-101100476D01*
X147726190Y-101076666D01*
X147678571Y-101052857D01*
X147607142Y-101052857D01*
X147559523Y-101076666D01*
X147535714Y-101100476D01*
X147511904Y-101148095D01*
X147511904Y-101290952D01*
X147535714Y-101338571D01*
X147559523Y-101362380D01*
X147607142Y-101386190D01*
X147678571Y-101386190D01*
X147226190Y-101386190D02*
X147273809Y-101362380D01*
X147297619Y-101314761D01*
X147297619Y-100886190D01*
X147107142Y-101052857D02*
X146916666Y-101052857D01*
X147035714Y-100886190D02*
X147035714Y-101314761D01*
X147011904Y-101362380D01*
X146964285Y-101386190D01*
X146916666Y-101386190D01*
X146773809Y-101362380D02*
X146726190Y-101386190D01*
X146630952Y-101386190D01*
X146583333Y-101362380D01*
X146559523Y-101314761D01*
X146559523Y-101290952D01*
X146583333Y-101243333D01*
X146630952Y-101219523D01*
X146702380Y-101219523D01*
X146750000Y-101195714D01*
X146773809Y-101148095D01*
X146773809Y-101124285D01*
X146750000Y-101076666D01*
X146702380Y-101052857D01*
X146630952Y-101052857D01*
X146583333Y-101076666D01*
X145634285Y-101155714D02*
X145253333Y-101155714D01*
X145443809Y-101346190D02*
X145443809Y-100965238D01*
X145015238Y-101155714D02*
X144634285Y-101155714D01*
X143920000Y-100846190D02*
X143824761Y-100846190D01*
X143777142Y-100870000D01*
X143729523Y-100917619D01*
X143705714Y-101012857D01*
X143705714Y-101179523D01*
X143729523Y-101274761D01*
X143777142Y-101322380D01*
X143824761Y-101346190D01*
X143920000Y-101346190D01*
X143967619Y-101322380D01*
X144015238Y-101274761D01*
X144039047Y-101179523D01*
X144039047Y-101012857D01*
X144015238Y-100917619D01*
X143967619Y-100870000D01*
X143920000Y-100846190D01*
X143491428Y-101346190D02*
X143491428Y-100846190D01*
X143277142Y-101346190D02*
X143277142Y-101084285D01*
X143300952Y-101036666D01*
X143348571Y-101012857D01*
X143420000Y-101012857D01*
X143467619Y-101036666D01*
X143491428Y-101060476D01*
X143039047Y-101346190D02*
X143039047Y-101012857D01*
X143039047Y-101060476D02*
X143015238Y-101036666D01*
X142967619Y-101012857D01*
X142896190Y-101012857D01*
X142848571Y-101036666D01*
X142824761Y-101084285D01*
X142824761Y-101346190D01*
X142824761Y-101084285D02*
X142800952Y-101036666D01*
X142753333Y-101012857D01*
X142681904Y-101012857D01*
X142634285Y-101036666D01*
X142610476Y-101084285D01*
X142610476Y-101346190D01*
X142396190Y-101322380D02*
X142348571Y-101346190D01*
X142253333Y-101346190D01*
X142205714Y-101322380D01*
X142181904Y-101274761D01*
X142181904Y-101250952D01*
X142205714Y-101203333D01*
X142253333Y-101179523D01*
X142324761Y-101179523D01*
X142372380Y-101155714D01*
X142396190Y-101108095D01*
X142396190Y-101084285D01*
X142372380Y-101036666D01*
X142324761Y-101012857D01*
X142253333Y-101012857D01*
X142205714Y-101036666D01*
X149414761Y-102186190D02*
X149414761Y-101686190D01*
X149224285Y-101686190D01*
X149176666Y-101710000D01*
X149152857Y-101733809D01*
X149129047Y-101781428D01*
X149129047Y-101852857D01*
X149152857Y-101900476D01*
X149176666Y-101924285D01*
X149224285Y-101948095D01*
X149414761Y-101948095D01*
X148819523Y-101686190D02*
X148724285Y-101686190D01*
X148676666Y-101710000D01*
X148629047Y-101757619D01*
X148605238Y-101852857D01*
X148605238Y-102019523D01*
X148629047Y-102114761D01*
X148676666Y-102162380D01*
X148724285Y-102186190D01*
X148819523Y-102186190D01*
X148867142Y-102162380D01*
X148914761Y-102114761D01*
X148938571Y-102019523D01*
X148938571Y-101852857D01*
X148914761Y-101757619D01*
X148867142Y-101710000D01*
X148819523Y-101686190D01*
X148462380Y-101686190D02*
X148176666Y-101686190D01*
X148319523Y-102186190D02*
X148319523Y-101686190D01*
X147533809Y-101686190D02*
X147438571Y-101686190D01*
X147390952Y-101710000D01*
X147343333Y-101757619D01*
X147319523Y-101852857D01*
X147319523Y-102019523D01*
X147343333Y-102114761D01*
X147390952Y-102162380D01*
X147438571Y-102186190D01*
X147533809Y-102186190D01*
X147581428Y-102162380D01*
X147629047Y-102114761D01*
X147652857Y-102019523D01*
X147652857Y-101852857D01*
X147629047Y-101757619D01*
X147581428Y-101710000D01*
X147533809Y-101686190D01*
X146890952Y-101852857D02*
X146890952Y-102186190D01*
X147105238Y-101852857D02*
X147105238Y-102114761D01*
X147081428Y-102162380D01*
X147033809Y-102186190D01*
X146962380Y-102186190D01*
X146914761Y-102162380D01*
X146890952Y-102138571D01*
X146724285Y-101852857D02*
X146533809Y-101852857D01*
X146652857Y-101686190D02*
X146652857Y-102114761D01*
X146629047Y-102162380D01*
X146581428Y-102186190D01*
X146533809Y-102186190D01*
X145304761Y-102146190D02*
X145471428Y-101908095D01*
X145590476Y-102146190D02*
X145590476Y-101646190D01*
X145400000Y-101646190D01*
X145352380Y-101670000D01*
X145328571Y-101693809D01*
X145304761Y-101741428D01*
X145304761Y-101812857D01*
X145328571Y-101860476D01*
X145352380Y-101884285D01*
X145400000Y-101908095D01*
X145590476Y-101908095D01*
X145090476Y-102146190D02*
X145090476Y-101646190D01*
X145090476Y-101884285D02*
X144804761Y-101884285D01*
X144804761Y-102146190D02*
X144804761Y-101646190D01*
X144566666Y-101884285D02*
X144400000Y-101884285D01*
X144328571Y-102146190D02*
X144566666Y-102146190D01*
X144566666Y-101646190D01*
X144328571Y-101646190D01*
X143638095Y-101646190D02*
X143542857Y-101646190D01*
X143495238Y-101670000D01*
X143447619Y-101717619D01*
X143423809Y-101812857D01*
X143423809Y-101979523D01*
X143447619Y-102074761D01*
X143495238Y-102122380D01*
X143542857Y-102146190D01*
X143638095Y-102146190D01*
X143685714Y-102122380D01*
X143733333Y-102074761D01*
X143757142Y-101979523D01*
X143757142Y-101812857D01*
X143733333Y-101717619D01*
X143685714Y-101670000D01*
X143638095Y-101646190D01*
X142995238Y-101812857D02*
X142995238Y-102146190D01*
X143209523Y-101812857D02*
X143209523Y-102074761D01*
X143185714Y-102122380D01*
X143138095Y-102146190D01*
X143066666Y-102146190D01*
X143019047Y-102122380D01*
X142995238Y-102098571D01*
X142828571Y-101812857D02*
X142638095Y-101812857D01*
X142757142Y-101646190D02*
X142757142Y-102074761D01*
X142733333Y-102122380D01*
X142685714Y-102146190D01*
X142638095Y-102146190D01*
X146723333Y-95586190D02*
X146723333Y-95086190D01*
X146532857Y-95086190D01*
X146485238Y-95110000D01*
X146461428Y-95133809D01*
X146437619Y-95181428D01*
X146437619Y-95252857D01*
X146461428Y-95300476D01*
X146485238Y-95324285D01*
X146532857Y-95348095D01*
X146723333Y-95348095D01*
X146128095Y-95086190D02*
X146032857Y-95086190D01*
X145985238Y-95110000D01*
X145937619Y-95157619D01*
X145913809Y-95252857D01*
X145913809Y-95419523D01*
X145937619Y-95514761D01*
X145985238Y-95562380D01*
X146032857Y-95586190D01*
X146128095Y-95586190D01*
X146175714Y-95562380D01*
X146223333Y-95514761D01*
X146247142Y-95419523D01*
X146247142Y-95252857D01*
X146223333Y-95157619D01*
X146175714Y-95110000D01*
X146128095Y-95086190D01*
X145770952Y-95086190D02*
X145485238Y-95086190D01*
X145628095Y-95586190D02*
X145628095Y-95086190D01*
X144823333Y-96846190D02*
X144990000Y-96608095D01*
X145109047Y-96846190D02*
X145109047Y-96346190D01*
X144918571Y-96346190D01*
X144870952Y-96370000D01*
X144847142Y-96393809D01*
X144823333Y-96441428D01*
X144823333Y-96512857D01*
X144847142Y-96560476D01*
X144870952Y-96584285D01*
X144918571Y-96608095D01*
X145109047Y-96608095D01*
X144609047Y-96846190D02*
X144609047Y-96346190D01*
X144609047Y-96584285D02*
X144323333Y-96584285D01*
X144323333Y-96846190D02*
X144323333Y-96346190D01*
X144085238Y-96584285D02*
X143918571Y-96584285D01*
X143847142Y-96846190D02*
X144085238Y-96846190D01*
X144085238Y-96346190D01*
X143847142Y-96346190D01*
G04 #@! TO.C,RV2*
D15*
X121395238Y-91852380D02*
X121728571Y-91376190D01*
X121966666Y-91852380D02*
X121966666Y-90852380D01*
X121585714Y-90852380D01*
X121490476Y-90900000D01*
X121442857Y-90947619D01*
X121395238Y-91042857D01*
X121395238Y-91185714D01*
X121442857Y-91280952D01*
X121490476Y-91328571D01*
X121585714Y-91376190D01*
X121966666Y-91376190D01*
X121109523Y-90852380D02*
X120776190Y-91852380D01*
X120442857Y-90852380D01*
X120157142Y-90947619D02*
X120109523Y-90900000D01*
X120014285Y-90852380D01*
X119776190Y-90852380D01*
X119680952Y-90900000D01*
X119633333Y-90947619D01*
X119585714Y-91042857D01*
X119585714Y-91138095D01*
X119633333Y-91280952D01*
X120204761Y-91852380D01*
X119585714Y-91852380D01*
D11*
X119423333Y-96846190D02*
X119590000Y-96608095D01*
X119709047Y-96846190D02*
X119709047Y-96346190D01*
X119518571Y-96346190D01*
X119470952Y-96370000D01*
X119447142Y-96393809D01*
X119423333Y-96441428D01*
X119423333Y-96512857D01*
X119447142Y-96560476D01*
X119470952Y-96584285D01*
X119518571Y-96608095D01*
X119709047Y-96608095D01*
X119209047Y-96846190D02*
X119209047Y-96346190D01*
X119209047Y-96584285D02*
X118923333Y-96584285D01*
X118923333Y-96846190D02*
X118923333Y-96346190D01*
X118685238Y-96584285D02*
X118518571Y-96584285D01*
X118447142Y-96846190D02*
X118685238Y-96846190D01*
X118685238Y-96346190D01*
X118447142Y-96346190D01*
X121323333Y-95586190D02*
X121323333Y-95086190D01*
X121132857Y-95086190D01*
X121085238Y-95110000D01*
X121061428Y-95133809D01*
X121037619Y-95181428D01*
X121037619Y-95252857D01*
X121061428Y-95300476D01*
X121085238Y-95324285D01*
X121132857Y-95348095D01*
X121323333Y-95348095D01*
X120728095Y-95086190D02*
X120632857Y-95086190D01*
X120585238Y-95110000D01*
X120537619Y-95157619D01*
X120513809Y-95252857D01*
X120513809Y-95419523D01*
X120537619Y-95514761D01*
X120585238Y-95562380D01*
X120632857Y-95586190D01*
X120728095Y-95586190D01*
X120775714Y-95562380D01*
X120823333Y-95514761D01*
X120847142Y-95419523D01*
X120847142Y-95252857D01*
X120823333Y-95157619D01*
X120775714Y-95110000D01*
X120728095Y-95086190D01*
X120370952Y-95086190D02*
X120085238Y-95086190D01*
X120228095Y-95586190D02*
X120228095Y-95086190D01*
X119904761Y-102146190D02*
X120071428Y-101908095D01*
X120190476Y-102146190D02*
X120190476Y-101646190D01*
X120000000Y-101646190D01*
X119952380Y-101670000D01*
X119928571Y-101693809D01*
X119904761Y-101741428D01*
X119904761Y-101812857D01*
X119928571Y-101860476D01*
X119952380Y-101884285D01*
X120000000Y-101908095D01*
X120190476Y-101908095D01*
X119690476Y-102146190D02*
X119690476Y-101646190D01*
X119690476Y-101884285D02*
X119404761Y-101884285D01*
X119404761Y-102146190D02*
X119404761Y-101646190D01*
X119166666Y-101884285D02*
X119000000Y-101884285D01*
X118928571Y-102146190D02*
X119166666Y-102146190D01*
X119166666Y-101646190D01*
X118928571Y-101646190D01*
X118238095Y-101646190D02*
X118142857Y-101646190D01*
X118095238Y-101670000D01*
X118047619Y-101717619D01*
X118023809Y-101812857D01*
X118023809Y-101979523D01*
X118047619Y-102074761D01*
X118095238Y-102122380D01*
X118142857Y-102146190D01*
X118238095Y-102146190D01*
X118285714Y-102122380D01*
X118333333Y-102074761D01*
X118357142Y-101979523D01*
X118357142Y-101812857D01*
X118333333Y-101717619D01*
X118285714Y-101670000D01*
X118238095Y-101646190D01*
X117595238Y-101812857D02*
X117595238Y-102146190D01*
X117809523Y-101812857D02*
X117809523Y-102074761D01*
X117785714Y-102122380D01*
X117738095Y-102146190D01*
X117666666Y-102146190D01*
X117619047Y-102122380D01*
X117595238Y-102098571D01*
X117428571Y-101812857D02*
X117238095Y-101812857D01*
X117357142Y-101646190D02*
X117357142Y-102074761D01*
X117333333Y-102122380D01*
X117285714Y-102146190D01*
X117238095Y-102146190D01*
X124014761Y-102186190D02*
X124014761Y-101686190D01*
X123824285Y-101686190D01*
X123776666Y-101710000D01*
X123752857Y-101733809D01*
X123729047Y-101781428D01*
X123729047Y-101852857D01*
X123752857Y-101900476D01*
X123776666Y-101924285D01*
X123824285Y-101948095D01*
X124014761Y-101948095D01*
X123419523Y-101686190D02*
X123324285Y-101686190D01*
X123276666Y-101710000D01*
X123229047Y-101757619D01*
X123205238Y-101852857D01*
X123205238Y-102019523D01*
X123229047Y-102114761D01*
X123276666Y-102162380D01*
X123324285Y-102186190D01*
X123419523Y-102186190D01*
X123467142Y-102162380D01*
X123514761Y-102114761D01*
X123538571Y-102019523D01*
X123538571Y-101852857D01*
X123514761Y-101757619D01*
X123467142Y-101710000D01*
X123419523Y-101686190D01*
X123062380Y-101686190D02*
X122776666Y-101686190D01*
X122919523Y-102186190D02*
X122919523Y-101686190D01*
X122133809Y-101686190D02*
X122038571Y-101686190D01*
X121990952Y-101710000D01*
X121943333Y-101757619D01*
X121919523Y-101852857D01*
X121919523Y-102019523D01*
X121943333Y-102114761D01*
X121990952Y-102162380D01*
X122038571Y-102186190D01*
X122133809Y-102186190D01*
X122181428Y-102162380D01*
X122229047Y-102114761D01*
X122252857Y-102019523D01*
X122252857Y-101852857D01*
X122229047Y-101757619D01*
X122181428Y-101710000D01*
X122133809Y-101686190D01*
X121490952Y-101852857D02*
X121490952Y-102186190D01*
X121705238Y-101852857D02*
X121705238Y-102114761D01*
X121681428Y-102162380D01*
X121633809Y-102186190D01*
X121562380Y-102186190D01*
X121514761Y-102162380D01*
X121490952Y-102138571D01*
X121324285Y-101852857D02*
X121133809Y-101852857D01*
X121252857Y-101686190D02*
X121252857Y-102114761D01*
X121229047Y-102162380D01*
X121181428Y-102186190D01*
X121133809Y-102186190D01*
X120234285Y-101155714D02*
X119853333Y-101155714D01*
X120043809Y-101346190D02*
X120043809Y-100965238D01*
X119615238Y-101155714D02*
X119234285Y-101155714D01*
X118520000Y-100846190D02*
X118424761Y-100846190D01*
X118377142Y-100870000D01*
X118329523Y-100917619D01*
X118305714Y-101012857D01*
X118305714Y-101179523D01*
X118329523Y-101274761D01*
X118377142Y-101322380D01*
X118424761Y-101346190D01*
X118520000Y-101346190D01*
X118567619Y-101322380D01*
X118615238Y-101274761D01*
X118639047Y-101179523D01*
X118639047Y-101012857D01*
X118615238Y-100917619D01*
X118567619Y-100870000D01*
X118520000Y-100846190D01*
X118091428Y-101346190D02*
X118091428Y-100846190D01*
X117877142Y-101346190D02*
X117877142Y-101084285D01*
X117900952Y-101036666D01*
X117948571Y-101012857D01*
X118020000Y-101012857D01*
X118067619Y-101036666D01*
X118091428Y-101060476D01*
X117639047Y-101346190D02*
X117639047Y-101012857D01*
X117639047Y-101060476D02*
X117615238Y-101036666D01*
X117567619Y-101012857D01*
X117496190Y-101012857D01*
X117448571Y-101036666D01*
X117424761Y-101084285D01*
X117424761Y-101346190D01*
X117424761Y-101084285D02*
X117400952Y-101036666D01*
X117353333Y-101012857D01*
X117281904Y-101012857D01*
X117234285Y-101036666D01*
X117210476Y-101084285D01*
X117210476Y-101346190D01*
X116996190Y-101322380D02*
X116948571Y-101346190D01*
X116853333Y-101346190D01*
X116805714Y-101322380D01*
X116781904Y-101274761D01*
X116781904Y-101250952D01*
X116805714Y-101203333D01*
X116853333Y-101179523D01*
X116924761Y-101179523D01*
X116972380Y-101155714D01*
X116996190Y-101108095D01*
X116996190Y-101084285D01*
X116972380Y-101036666D01*
X116924761Y-101012857D01*
X116853333Y-101012857D01*
X116805714Y-101036666D01*
X124016666Y-101195714D02*
X123635714Y-101195714D01*
X123826190Y-101386190D02*
X123826190Y-101005238D01*
X123397619Y-101195714D02*
X123016666Y-101195714D01*
X122850000Y-100886190D02*
X122683333Y-101386190D01*
X122516666Y-100886190D01*
X122278571Y-101386190D02*
X122326190Y-101362380D01*
X122350000Y-101338571D01*
X122373809Y-101290952D01*
X122373809Y-101148095D01*
X122350000Y-101100476D01*
X122326190Y-101076666D01*
X122278571Y-101052857D01*
X122207142Y-101052857D01*
X122159523Y-101076666D01*
X122135714Y-101100476D01*
X122111904Y-101148095D01*
X122111904Y-101290952D01*
X122135714Y-101338571D01*
X122159523Y-101362380D01*
X122207142Y-101386190D01*
X122278571Y-101386190D01*
X121826190Y-101386190D02*
X121873809Y-101362380D01*
X121897619Y-101314761D01*
X121897619Y-100886190D01*
X121707142Y-101052857D02*
X121516666Y-101052857D01*
X121635714Y-100886190D02*
X121635714Y-101314761D01*
X121611904Y-101362380D01*
X121564285Y-101386190D01*
X121516666Y-101386190D01*
X121373809Y-101362380D02*
X121326190Y-101386190D01*
X121230952Y-101386190D01*
X121183333Y-101362380D01*
X121159523Y-101314761D01*
X121159523Y-101290952D01*
X121183333Y-101243333D01*
X121230952Y-101219523D01*
X121302380Y-101219523D01*
X121350000Y-101195714D01*
X121373809Y-101148095D01*
X121373809Y-101124285D01*
X121350000Y-101076666D01*
X121302380Y-101052857D01*
X121230952Y-101052857D01*
X121183333Y-101076666D01*
X127528095Y-93466190D02*
X127694761Y-93228095D01*
X127813809Y-93466190D02*
X127813809Y-92966190D01*
X127623333Y-92966190D01*
X127575714Y-92990000D01*
X127551904Y-93013809D01*
X127528095Y-93061428D01*
X127528095Y-93132857D01*
X127551904Y-93180476D01*
X127575714Y-93204285D01*
X127623333Y-93228095D01*
X127813809Y-93228095D01*
X127313809Y-93466190D02*
X127313809Y-92966190D01*
X127313809Y-93204285D02*
X127028095Y-93204285D01*
X127028095Y-93466190D02*
X127028095Y-92966190D01*
X126790000Y-93204285D02*
X126623333Y-93204285D01*
X126551904Y-93466190D02*
X126790000Y-93466190D01*
X126790000Y-92966190D01*
X126551904Y-92966190D01*
X126004285Y-92966190D02*
X125670952Y-93466190D01*
X125670952Y-92966190D02*
X126004285Y-93466190D01*
X125528095Y-92966190D02*
X125194761Y-93466190D01*
X125194761Y-92966190D02*
X125528095Y-93466190D01*
X125051904Y-92966190D02*
X124718571Y-93466190D01*
X124718571Y-92966190D02*
X125051904Y-93466190D01*
X127805714Y-94786190D02*
X127805714Y-94286190D01*
X127615238Y-94286190D01*
X127567619Y-94310000D01*
X127543809Y-94333809D01*
X127520000Y-94381428D01*
X127520000Y-94452857D01*
X127543809Y-94500476D01*
X127567619Y-94524285D01*
X127615238Y-94548095D01*
X127805714Y-94548095D01*
X127210476Y-94286190D02*
X127115238Y-94286190D01*
X127067619Y-94310000D01*
X127020000Y-94357619D01*
X126996190Y-94452857D01*
X126996190Y-94619523D01*
X127020000Y-94714761D01*
X127067619Y-94762380D01*
X127115238Y-94786190D01*
X127210476Y-94786190D01*
X127258095Y-94762380D01*
X127305714Y-94714761D01*
X127329523Y-94619523D01*
X127329523Y-94452857D01*
X127305714Y-94357619D01*
X127258095Y-94310000D01*
X127210476Y-94286190D01*
X126853333Y-94286190D02*
X126567619Y-94286190D01*
X126710476Y-94786190D02*
X126710476Y-94286190D01*
X125758095Y-94310000D02*
X125805714Y-94286190D01*
X125877142Y-94286190D01*
X125948571Y-94310000D01*
X125996190Y-94357619D01*
X126020000Y-94405238D01*
X126043809Y-94500476D01*
X126043809Y-94571904D01*
X126020000Y-94667142D01*
X125996190Y-94714761D01*
X125948571Y-94762380D01*
X125877142Y-94786190D01*
X125829523Y-94786190D01*
X125758095Y-94762380D01*
X125734285Y-94738571D01*
X125734285Y-94571904D01*
X125829523Y-94571904D01*
X125520000Y-94786190D02*
X125520000Y-94286190D01*
X125234285Y-94786190D01*
X125234285Y-94286190D01*
X124996190Y-94786190D02*
X124996190Y-94286190D01*
X124877142Y-94286190D01*
X124805714Y-94310000D01*
X124758095Y-94357619D01*
X124734285Y-94405238D01*
X124710476Y-94500476D01*
X124710476Y-94571904D01*
X124734285Y-94667142D01*
X124758095Y-94714761D01*
X124805714Y-94762380D01*
X124877142Y-94786190D01*
X124996190Y-94786190D01*
X116369523Y-93566190D02*
X116536190Y-93328095D01*
X116655238Y-93566190D02*
X116655238Y-93066190D01*
X116464761Y-93066190D01*
X116417142Y-93090000D01*
X116393333Y-93113809D01*
X116369523Y-93161428D01*
X116369523Y-93232857D01*
X116393333Y-93280476D01*
X116417142Y-93304285D01*
X116464761Y-93328095D01*
X116655238Y-93328095D01*
X116155238Y-93566190D02*
X116155238Y-93066190D01*
X116155238Y-93304285D02*
X115869523Y-93304285D01*
X115869523Y-93566190D02*
X115869523Y-93066190D01*
X115631428Y-93304285D02*
X115464761Y-93304285D01*
X115393333Y-93566190D02*
X115631428Y-93566190D01*
X115631428Y-93066190D01*
X115393333Y-93066190D01*
X114798095Y-93566190D02*
X114798095Y-93066190D01*
X114560000Y-93232857D02*
X114560000Y-93566190D01*
X114560000Y-93280476D02*
X114536190Y-93256666D01*
X114488571Y-93232857D01*
X114417142Y-93232857D01*
X114369523Y-93256666D01*
X114345714Y-93304285D01*
X114345714Y-93566190D01*
X114036190Y-93566190D02*
X114083809Y-93542380D01*
X114107619Y-93494761D01*
X114107619Y-93066190D01*
X113845714Y-93566190D02*
X113845714Y-93232857D01*
X113845714Y-93066190D02*
X113869523Y-93090000D01*
X113845714Y-93113809D01*
X113821904Y-93090000D01*
X113845714Y-93066190D01*
X113845714Y-93113809D01*
X113607619Y-93232857D02*
X113607619Y-93566190D01*
X113607619Y-93280476D02*
X113583809Y-93256666D01*
X113536190Y-93232857D01*
X113464761Y-93232857D01*
X113417142Y-93256666D01*
X113393333Y-93304285D01*
X113393333Y-93566190D01*
X112964761Y-93542380D02*
X113012380Y-93566190D01*
X113107619Y-93566190D01*
X113155238Y-93542380D01*
X113179047Y-93494761D01*
X113179047Y-93304285D01*
X113155238Y-93256666D01*
X113107619Y-93232857D01*
X113012380Y-93232857D01*
X112964761Y-93256666D01*
X112940952Y-93304285D01*
X112940952Y-93351904D01*
X113179047Y-93399523D01*
X116663809Y-94746190D02*
X116663809Y-94246190D01*
X116473333Y-94246190D01*
X116425714Y-94270000D01*
X116401904Y-94293809D01*
X116378095Y-94341428D01*
X116378095Y-94412857D01*
X116401904Y-94460476D01*
X116425714Y-94484285D01*
X116473333Y-94508095D01*
X116663809Y-94508095D01*
X116068571Y-94246190D02*
X115973333Y-94246190D01*
X115925714Y-94270000D01*
X115878095Y-94317619D01*
X115854285Y-94412857D01*
X115854285Y-94579523D01*
X115878095Y-94674761D01*
X115925714Y-94722380D01*
X115973333Y-94746190D01*
X116068571Y-94746190D01*
X116116190Y-94722380D01*
X116163809Y-94674761D01*
X116187619Y-94579523D01*
X116187619Y-94412857D01*
X116163809Y-94317619D01*
X116116190Y-94270000D01*
X116068571Y-94246190D01*
X115711428Y-94246190D02*
X115425714Y-94246190D01*
X115568571Y-94746190D02*
X115568571Y-94246190D01*
X114949523Y-94246190D02*
X114782857Y-94746190D01*
X114616190Y-94246190D01*
X114473333Y-94722380D02*
X114401904Y-94746190D01*
X114282857Y-94746190D01*
X114235238Y-94722380D01*
X114211428Y-94698571D01*
X114187619Y-94650952D01*
X114187619Y-94603333D01*
X114211428Y-94555714D01*
X114235238Y-94531904D01*
X114282857Y-94508095D01*
X114378095Y-94484285D01*
X114425714Y-94460476D01*
X114449523Y-94436666D01*
X114473333Y-94389047D01*
X114473333Y-94341428D01*
X114449523Y-94293809D01*
X114425714Y-94270000D01*
X114378095Y-94246190D01*
X114259047Y-94246190D01*
X114187619Y-94270000D01*
X113997142Y-94722380D02*
X113925714Y-94746190D01*
X113806666Y-94746190D01*
X113759047Y-94722380D01*
X113735238Y-94698571D01*
X113711428Y-94650952D01*
X113711428Y-94603333D01*
X113735238Y-94555714D01*
X113759047Y-94531904D01*
X113806666Y-94508095D01*
X113901904Y-94484285D01*
X113949523Y-94460476D01*
X113973333Y-94436666D01*
X113997142Y-94389047D01*
X113997142Y-94341428D01*
X113973333Y-94293809D01*
X113949523Y-94270000D01*
X113901904Y-94246190D01*
X113782857Y-94246190D01*
X113711428Y-94270000D01*
X113497142Y-94555714D02*
X113116190Y-94555714D01*
X113306666Y-94746190D02*
X113306666Y-94365238D01*
G04 #@! TD*
M02*
