G04 #@! TF.GenerationSoftware,KiCad,Pcbnew,(5.1.9)-1*
G04 #@! TF.CreationDate,2021-08-19T15:30:01-05:00*
G04 #@! TF.ProjectId,astable_dev,61737461-626c-4655-9f64-65762e6b6963,1*
G04 #@! TF.SameCoordinates,Original*
G04 #@! TF.FileFunction,Copper,L2,Bot*
G04 #@! TF.FilePolarity,Positive*
%FSLAX46Y46*%
G04 Gerber Fmt 4.6, Leading zero omitted, Abs format (unit mm)*
G04 Created by KiCad (PCBNEW (5.1.9)-1) date 2021-08-19 15:30:01*
%MOMM*%
%LPD*%
G01*
G04 APERTURE LIST*
G04 #@! TA.AperFunction,Profile*
%ADD10C,0.050000*%
G04 #@! TD*
G04 #@! TA.AperFunction,ComponentPad*
%ADD11R,1.700000X1.700000*%
G04 #@! TD*
G04 #@! TA.AperFunction,ComponentPad*
%ADD12C,1.700000*%
G04 #@! TD*
G04 #@! TA.AperFunction,ComponentPad*
%ADD13R,1.600000X1.600000*%
G04 #@! TD*
G04 #@! TA.AperFunction,ComponentPad*
%ADD14C,1.600000*%
G04 #@! TD*
G04 #@! TA.AperFunction,ComponentPad*
%ADD15C,1.800000*%
G04 #@! TD*
G04 #@! TA.AperFunction,ComponentPad*
%ADD16R,1.800000X1.800000*%
G04 #@! TD*
G04 #@! TA.AperFunction,ComponentPad*
%ADD17O,1.500000X1.050000*%
G04 #@! TD*
G04 #@! TA.AperFunction,ComponentPad*
%ADD18R,1.500000X1.050000*%
G04 #@! TD*
G04 #@! TA.AperFunction,ComponentPad*
%ADD19O,1.400000X1.400000*%
G04 #@! TD*
G04 #@! TA.AperFunction,ComponentPad*
%ADD20C,1.400000*%
G04 #@! TD*
G04 #@! TA.AperFunction,ComponentPad*
%ADD21C,2.500000*%
G04 #@! TD*
G04 #@! TA.AperFunction,ComponentPad*
%ADD22O,1.700000X1.700000*%
G04 #@! TD*
G04 #@! TA.AperFunction,Conductor*
%ADD23C,0.250000*%
G04 #@! TD*
G04 #@! TA.AperFunction,Conductor*
%ADD24C,0.400000*%
G04 #@! TD*
G04 #@! TA.AperFunction,Conductor*
%ADD25C,0.254000*%
G04 #@! TD*
G04 #@! TA.AperFunction,Conductor*
%ADD26C,0.100000*%
G04 #@! TD*
G04 APERTURE END LIST*
D10*
X120396000Y-75692000D02*
X124460000Y-75692000D01*
X120396000Y-73152000D02*
X120396000Y-75692000D01*
X124460000Y-75692000D02*
X124460000Y-73152000D01*
X124460000Y-73152000D02*
X120396000Y-73152000D01*
X146304000Y-75692000D02*
X146304000Y-73152000D01*
X142240000Y-75692000D02*
X146304000Y-75692000D01*
X142240000Y-73152000D02*
X142240000Y-75692000D01*
X146304000Y-73152000D02*
X142240000Y-73152000D01*
X111760000Y-116078000D02*
X154940000Y-116078000D01*
X111760000Y-71120000D02*
X111760000Y-116078000D01*
X154940000Y-71120000D02*
X111760000Y-71120000D01*
X154940000Y-116078000D02*
X154940000Y-71120000D01*
D11*
G04 #@! TO.P,BT1,1*
G04 #@! TO.N,Net-(BT1-Pad1)*
X145428000Y-83058000D03*
D12*
G04 #@! TO.P,BT1,2*
G04 #@! TO.N,GND*
X125428000Y-83058000D03*
G04 #@! TD*
D13*
G04 #@! TO.P,C1,1*
G04 #@! TO.N,Net-(C1-Pad1)*
X139700000Y-105410000D03*
D14*
G04 #@! TO.P,C1,2*
G04 #@! TO.N,TP4*
X137700000Y-105410000D03*
G04 #@! TD*
G04 #@! TO.P,C2,2*
G04 #@! TO.N,TP3*
X129000000Y-105410000D03*
D13*
G04 #@! TO.P,C2,1*
G04 #@! TO.N,Net-(C2-Pad1)*
X127000000Y-105410000D03*
G04 #@! TD*
D15*
G04 #@! TO.P,D1,2*
G04 #@! TO.N,TP1*
X151130000Y-110490000D03*
D16*
G04 #@! TO.P,D1,1*
G04 #@! TO.N,GND*
X151130000Y-113030000D03*
G04 #@! TD*
G04 #@! TO.P,D2,1*
G04 #@! TO.N,GND*
X115570000Y-113030000D03*
D15*
G04 #@! TO.P,D2,2*
G04 #@! TO.N,TP2*
X115570000Y-110490000D03*
G04 #@! TD*
D17*
G04 #@! TO.P,Q1,2*
G04 #@! TO.N,TP3*
X142240000Y-111760000D03*
G04 #@! TO.P,Q1,3*
G04 #@! TO.N,Net-(C1-Pad1)*
X142240000Y-110490000D03*
D18*
G04 #@! TO.P,Q1,1*
G04 #@! TO.N,GND*
X142240000Y-113030000D03*
G04 #@! TD*
G04 #@! TO.P,Q2,1*
G04 #@! TO.N,GND*
X124460000Y-113030000D03*
D17*
G04 #@! TO.P,Q2,3*
G04 #@! TO.N,Net-(C2-Pad1)*
X124460000Y-110490000D03*
G04 #@! TO.P,Q2,2*
G04 #@! TO.N,TP4*
X124460000Y-111760000D03*
G04 #@! TD*
D19*
G04 #@! TO.P,R1,2*
G04 #@! TO.N,TP4*
X137160000Y-100330000D03*
D20*
G04 #@! TO.P,R1,1*
G04 #@! TO.N,Net-(R1-Pad1)*
X137160000Y-95250000D03*
G04 #@! TD*
G04 #@! TO.P,R2,1*
G04 #@! TO.N,TP3*
X129540000Y-100330000D03*
D19*
G04 #@! TO.P,R2,2*
G04 #@! TO.N,Net-(R2-Pad2)*
X129540000Y-95250000D03*
G04 #@! TD*
D20*
G04 #@! TO.P,R3,1*
G04 #@! TO.N,Net-(BT1-Pad1)*
X148590000Y-104140000D03*
D19*
G04 #@! TO.P,R3,2*
G04 #@! TO.N,Net-(C1-Pad1)*
X143510000Y-104140000D03*
G04 #@! TD*
G04 #@! TO.P,R4,2*
G04 #@! TO.N,Net-(BT1-Pad1)*
X118110000Y-104140000D03*
D20*
G04 #@! TO.P,R4,1*
G04 #@! TO.N,Net-(C2-Pad1)*
X123190000Y-104140000D03*
G04 #@! TD*
G04 #@! TO.P,R5,1*
G04 #@! TO.N,TP1*
X148590000Y-106680000D03*
D19*
G04 #@! TO.P,R5,2*
G04 #@! TO.N,Net-(C1-Pad1)*
X143510000Y-106680000D03*
G04 #@! TD*
G04 #@! TO.P,R6,2*
G04 #@! TO.N,TP2*
X118110000Y-106680000D03*
D20*
G04 #@! TO.P,R6,1*
G04 #@! TO.N,Net-(C2-Pad1)*
X123190000Y-106680000D03*
G04 #@! TD*
D21*
G04 #@! TO.P,RV1,1*
G04 #@! TO.N,Net-(RV1-Pad1)*
X148590000Y-93980000D03*
G04 #@! TO.P,RV1,3*
G04 #@! TO.N,Net-(BT1-Pad1)*
X143590000Y-93980000D03*
G04 #@! TO.P,RV1,2*
G04 #@! TO.N,Net-(R1-Pad1)*
X146090000Y-99020000D03*
G04 #@! TD*
G04 #@! TO.P,RV2,2*
G04 #@! TO.N,Net-(R2-Pad2)*
X120690000Y-99020000D03*
G04 #@! TO.P,RV2,3*
G04 #@! TO.N,Net-(BT1-Pad1)*
X118190000Y-93980000D03*
G04 #@! TO.P,RV2,1*
G04 #@! TO.N,Net-(RV2-Pad1)*
X123190000Y-93980000D03*
G04 #@! TD*
D12*
G04 #@! TO.P,TP1,1*
G04 #@! TO.N,TP1*
X151130000Y-106680000D03*
G04 #@! TD*
G04 #@! TO.P,TP2,1*
G04 #@! TO.N,TP2*
X115570000Y-106680000D03*
G04 #@! TD*
G04 #@! TO.P,TP3,1*
G04 #@! TO.N,TP3*
X137160000Y-111760000D03*
G04 #@! TD*
G04 #@! TO.P,TP4,1*
G04 #@! TO.N,TP4*
X129540000Y-111760000D03*
G04 #@! TD*
G04 #@! TO.P,GND,1*
G04 #@! TO.N,GND*
X133350000Y-111760000D03*
G04 #@! TD*
D22*
G04 #@! TO.P,TPJ1,5*
G04 #@! TO.N,GND*
X115570000Y-90424000D03*
G04 #@! TO.P,TPJ1,4*
G04 #@! TO.N,TP4*
X115570000Y-87884000D03*
G04 #@! TO.P,TPJ1,3*
G04 #@! TO.N,TP3*
X115570000Y-85344000D03*
G04 #@! TO.P,TPJ1,2*
G04 #@! TO.N,TP2*
X115570000Y-82804000D03*
D11*
G04 #@! TO.P,TPJ1,1*
G04 #@! TO.N,TP1*
X115570000Y-80264000D03*
G04 #@! TD*
D23*
G04 #@! TO.N,GND*
X113538000Y-114427000D02*
X117856000Y-114427000D01*
X153035000Y-114427000D02*
X149225000Y-114427000D01*
X113919000Y-78359000D02*
X117221000Y-78359000D01*
D24*
X124460000Y-113030000D02*
X122682000Y-113030000D01*
X124460000Y-113030000D02*
X125984000Y-113030000D01*
X142240000Y-113030000D02*
X140462000Y-113030000D01*
X142240000Y-113030000D02*
X144018000Y-113030000D01*
G04 #@! TD*
D25*
G04 #@! TO.N,GND*
X114081911Y-78459032D02*
X113907867Y-78601867D01*
X113765032Y-78775911D01*
X113658897Y-78974477D01*
X113593539Y-79189933D01*
X113571470Y-79414000D01*
X113571470Y-81114000D01*
X113593539Y-81338067D01*
X113658897Y-81553523D01*
X113765032Y-81752089D01*
X113826147Y-81826557D01*
X113803827Y-81859961D01*
X113653590Y-82222663D01*
X113577000Y-82607707D01*
X113577000Y-83000293D01*
X113653590Y-83385337D01*
X113803827Y-83748039D01*
X114021627Y-84074000D01*
X113803827Y-84399961D01*
X113653590Y-84762663D01*
X113577000Y-85147707D01*
X113577000Y-85540293D01*
X113653590Y-85925337D01*
X113803827Y-86288039D01*
X114021627Y-86614000D01*
X113803827Y-86939961D01*
X113653590Y-87302663D01*
X113577000Y-87687707D01*
X113577000Y-88080293D01*
X113653590Y-88465337D01*
X113803827Y-88828039D01*
X114021936Y-89154463D01*
X114299537Y-89432064D01*
X114410763Y-89506383D01*
X114298359Y-89657080D01*
X114173175Y-89919901D01*
X114128524Y-90067110D01*
X114249845Y-90297000D01*
X115443000Y-90297000D01*
X115443000Y-90277000D01*
X115697000Y-90277000D01*
X115697000Y-90297000D01*
X116890155Y-90297000D01*
X117011476Y-90067110D01*
X116966825Y-89919901D01*
X116841641Y-89657080D01*
X116729237Y-89506383D01*
X116840463Y-89432064D01*
X117118064Y-89154463D01*
X117336173Y-88828039D01*
X117486410Y-88465337D01*
X117563000Y-88080293D01*
X117563000Y-87687707D01*
X117486410Y-87302663D01*
X117336173Y-86939961D01*
X117118373Y-86614000D01*
X117336173Y-86288039D01*
X117486410Y-85925337D01*
X117563000Y-85540293D01*
X117563000Y-85147707D01*
X117486410Y-84762663D01*
X117336173Y-84399961D01*
X117126657Y-84086397D01*
X124579208Y-84086397D01*
X124656843Y-84335472D01*
X124920883Y-84461371D01*
X125204411Y-84533339D01*
X125496531Y-84548611D01*
X125786019Y-84506599D01*
X126061747Y-84408919D01*
X126199157Y-84335472D01*
X126276792Y-84086397D01*
X125428000Y-83237605D01*
X124579208Y-84086397D01*
X117126657Y-84086397D01*
X117118373Y-84074000D01*
X117336173Y-83748039D01*
X117486410Y-83385337D01*
X117537889Y-83126531D01*
X123937389Y-83126531D01*
X123979401Y-83416019D01*
X124077081Y-83691747D01*
X124150528Y-83829157D01*
X124399603Y-83906792D01*
X125248395Y-83058000D01*
X125607605Y-83058000D01*
X126456397Y-83906792D01*
X126705472Y-83829157D01*
X126831371Y-83565117D01*
X126903339Y-83281589D01*
X126918611Y-82989469D01*
X126876599Y-82699981D01*
X126778919Y-82424253D01*
X126705472Y-82286843D01*
X126456397Y-82209208D01*
X125607605Y-83058000D01*
X125248395Y-83058000D01*
X124399603Y-82209208D01*
X124150528Y-82286843D01*
X124024629Y-82550883D01*
X123952661Y-82834411D01*
X123937389Y-83126531D01*
X117537889Y-83126531D01*
X117563000Y-83000293D01*
X117563000Y-82607707D01*
X117486410Y-82222663D01*
X117406442Y-82029603D01*
X124579208Y-82029603D01*
X125428000Y-82878395D01*
X126098395Y-82208000D01*
X143429470Y-82208000D01*
X143429470Y-83908000D01*
X143451539Y-84132067D01*
X143516897Y-84347523D01*
X143623032Y-84546089D01*
X143765867Y-84720133D01*
X143939911Y-84862968D01*
X144138477Y-84969103D01*
X144353933Y-85034461D01*
X144578000Y-85056530D01*
X146278000Y-85056530D01*
X146502067Y-85034461D01*
X146717523Y-84969103D01*
X146916089Y-84862968D01*
X147090133Y-84720133D01*
X147232968Y-84546089D01*
X147339103Y-84347523D01*
X147404461Y-84132067D01*
X147426530Y-83908000D01*
X147426530Y-82208000D01*
X147404461Y-81983933D01*
X147339103Y-81768477D01*
X147232968Y-81569911D01*
X147090133Y-81395867D01*
X146916089Y-81253032D01*
X146717523Y-81146897D01*
X146502067Y-81081539D01*
X146278000Y-81059470D01*
X144578000Y-81059470D01*
X144353933Y-81081539D01*
X144138477Y-81146897D01*
X143939911Y-81253032D01*
X143765867Y-81395867D01*
X143623032Y-81569911D01*
X143516897Y-81768477D01*
X143451539Y-81983933D01*
X143429470Y-82208000D01*
X126098395Y-82208000D01*
X126276792Y-82029603D01*
X126199157Y-81780528D01*
X125935117Y-81654629D01*
X125651589Y-81582661D01*
X125359469Y-81567389D01*
X125069981Y-81609401D01*
X124794253Y-81707081D01*
X124656843Y-81780528D01*
X124579208Y-82029603D01*
X117406442Y-82029603D01*
X117336173Y-81859961D01*
X117313853Y-81826557D01*
X117374968Y-81752089D01*
X117481103Y-81553523D01*
X117546461Y-81338067D01*
X117568530Y-81114000D01*
X117568530Y-79414000D01*
X117546461Y-79189933D01*
X117481103Y-78974477D01*
X117374968Y-78775911D01*
X117232133Y-78601867D01*
X117058089Y-78459032D01*
X116870941Y-78359000D01*
X153289000Y-78359000D01*
X153289000Y-114427000D01*
X152425359Y-114427000D01*
X152481185Y-114381185D01*
X152560537Y-114284494D01*
X152619502Y-114174180D01*
X152655812Y-114054482D01*
X152668072Y-113930000D01*
X152665000Y-113315750D01*
X152506250Y-113157000D01*
X151257000Y-113157000D01*
X151257000Y-113177000D01*
X151003000Y-113177000D01*
X151003000Y-113157000D01*
X149753750Y-113157000D01*
X149595000Y-113315750D01*
X149591928Y-113930000D01*
X149604188Y-114054482D01*
X149640498Y-114174180D01*
X149699463Y-114284494D01*
X149778815Y-114381185D01*
X149834641Y-114427000D01*
X116865359Y-114427000D01*
X116921185Y-114381185D01*
X117000537Y-114284494D01*
X117059502Y-114174180D01*
X117095812Y-114054482D01*
X117108072Y-113930000D01*
X117105000Y-113315750D01*
X116946250Y-113157000D01*
X115697000Y-113157000D01*
X115697000Y-113177000D01*
X115443000Y-113177000D01*
X115443000Y-113157000D01*
X114193750Y-113157000D01*
X114035000Y-113315750D01*
X114031928Y-113930000D01*
X114044188Y-114054482D01*
X114080498Y-114174180D01*
X114139463Y-114284494D01*
X114218815Y-114381185D01*
X114274641Y-114427000D01*
X113411000Y-114427000D01*
X113411000Y-110288782D01*
X113527000Y-110288782D01*
X113527000Y-110691218D01*
X113605512Y-111085921D01*
X113759517Y-111457723D01*
X113983098Y-111792336D01*
X114079587Y-111888825D01*
X114044188Y-112005518D01*
X114031928Y-112130000D01*
X114035000Y-112744250D01*
X114193750Y-112903000D01*
X115443000Y-112903000D01*
X115443000Y-112883000D01*
X115697000Y-112883000D01*
X115697000Y-112903000D01*
X116946250Y-112903000D01*
X117105000Y-112744250D01*
X117108072Y-112130000D01*
X117095812Y-112005518D01*
X117060413Y-111888825D01*
X117156902Y-111792336D01*
X117380483Y-111457723D01*
X117534488Y-111085921D01*
X117613000Y-110691218D01*
X117613000Y-110490000D01*
X122558930Y-110490000D01*
X122591135Y-110816985D01*
X122684570Y-111125000D01*
X122591135Y-111433015D01*
X122558930Y-111760000D01*
X122591135Y-112086985D01*
X122686513Y-112401404D01*
X122841399Y-112691175D01*
X123049840Y-112945160D01*
X123303825Y-113153601D01*
X123310184Y-113157000D01*
X123233750Y-113157000D01*
X123075000Y-113315750D01*
X123071928Y-113555000D01*
X123084188Y-113679482D01*
X123120498Y-113799180D01*
X123179463Y-113909494D01*
X123258815Y-114006185D01*
X123355506Y-114085537D01*
X123465820Y-114144502D01*
X123585518Y-114180812D01*
X123710000Y-114193072D01*
X124174250Y-114190000D01*
X124333000Y-114031250D01*
X124333000Y-113428000D01*
X124587000Y-113428000D01*
X124587000Y-114031250D01*
X124745750Y-114190000D01*
X125210000Y-114193072D01*
X125334482Y-114180812D01*
X125454180Y-114144502D01*
X125564494Y-114085537D01*
X125661185Y-114006185D01*
X125740537Y-113909494D01*
X125799502Y-113799180D01*
X125835812Y-113679482D01*
X125848072Y-113555000D01*
X125845000Y-113315750D01*
X125686250Y-113157000D01*
X125609816Y-113157000D01*
X125616175Y-113153601D01*
X125870160Y-112945160D01*
X126078601Y-112691175D01*
X126233487Y-112401404D01*
X126328865Y-112086985D01*
X126361070Y-111760000D01*
X126341737Y-111563707D01*
X127547000Y-111563707D01*
X127547000Y-111956293D01*
X127623590Y-112341337D01*
X127773827Y-112704039D01*
X127991936Y-113030463D01*
X128269537Y-113308064D01*
X128595961Y-113526173D01*
X128958663Y-113676410D01*
X129343707Y-113753000D01*
X129736293Y-113753000D01*
X130121337Y-113676410D01*
X130484039Y-113526173D01*
X130810463Y-113308064D01*
X131088064Y-113030463D01*
X131249806Y-112788397D01*
X132501208Y-112788397D01*
X132578843Y-113037472D01*
X132842883Y-113163371D01*
X133126411Y-113235339D01*
X133418531Y-113250611D01*
X133708019Y-113208599D01*
X133983747Y-113110919D01*
X134121157Y-113037472D01*
X134198792Y-112788397D01*
X133350000Y-111939605D01*
X132501208Y-112788397D01*
X131249806Y-112788397D01*
X131306173Y-112704039D01*
X131456410Y-112341337D01*
X131533000Y-111956293D01*
X131533000Y-111828531D01*
X131859389Y-111828531D01*
X131901401Y-112118019D01*
X131999081Y-112393747D01*
X132072528Y-112531157D01*
X132321603Y-112608792D01*
X133170395Y-111760000D01*
X133529605Y-111760000D01*
X134378397Y-112608792D01*
X134627472Y-112531157D01*
X134753371Y-112267117D01*
X134825339Y-111983589D01*
X134840611Y-111691469D01*
X134822070Y-111563707D01*
X135167000Y-111563707D01*
X135167000Y-111956293D01*
X135243590Y-112341337D01*
X135393827Y-112704039D01*
X135611936Y-113030463D01*
X135889537Y-113308064D01*
X136215961Y-113526173D01*
X136578663Y-113676410D01*
X136963707Y-113753000D01*
X137356293Y-113753000D01*
X137741337Y-113676410D01*
X138104039Y-113526173D01*
X138430463Y-113308064D01*
X138708064Y-113030463D01*
X138926173Y-112704039D01*
X139076410Y-112341337D01*
X139153000Y-111956293D01*
X139153000Y-111563707D01*
X139076410Y-111178663D01*
X138926173Y-110815961D01*
X138708374Y-110490000D01*
X140338930Y-110490000D01*
X140371135Y-110816985D01*
X140464570Y-111125000D01*
X140371135Y-111433015D01*
X140338930Y-111760000D01*
X140371135Y-112086985D01*
X140466513Y-112401404D01*
X140621399Y-112691175D01*
X140829840Y-112945160D01*
X141083825Y-113153601D01*
X141090184Y-113157000D01*
X141013750Y-113157000D01*
X140855000Y-113315750D01*
X140851928Y-113555000D01*
X140864188Y-113679482D01*
X140900498Y-113799180D01*
X140959463Y-113909494D01*
X141038815Y-114006185D01*
X141135506Y-114085537D01*
X141245820Y-114144502D01*
X141365518Y-114180812D01*
X141490000Y-114193072D01*
X141954250Y-114190000D01*
X142113000Y-114031250D01*
X142113000Y-113428000D01*
X142367000Y-113428000D01*
X142367000Y-114031250D01*
X142525750Y-114190000D01*
X142990000Y-114193072D01*
X143114482Y-114180812D01*
X143234180Y-114144502D01*
X143344494Y-114085537D01*
X143441185Y-114006185D01*
X143520537Y-113909494D01*
X143579502Y-113799180D01*
X143615812Y-113679482D01*
X143628072Y-113555000D01*
X143625000Y-113315750D01*
X143466250Y-113157000D01*
X143389816Y-113157000D01*
X143396175Y-113153601D01*
X143650160Y-112945160D01*
X143858601Y-112691175D01*
X144013487Y-112401404D01*
X144108865Y-112086985D01*
X144141070Y-111760000D01*
X144108865Y-111433015D01*
X144015430Y-111125000D01*
X144108865Y-110816985D01*
X144141070Y-110490000D01*
X144108865Y-110163015D01*
X144013487Y-109848596D01*
X143858601Y-109558825D01*
X143650160Y-109304840D01*
X143396175Y-109096399D01*
X143106404Y-108941513D01*
X142791985Y-108846135D01*
X142546937Y-108822000D01*
X141933063Y-108822000D01*
X141688015Y-108846135D01*
X141373596Y-108941513D01*
X141083825Y-109096399D01*
X140829840Y-109304840D01*
X140621399Y-109558825D01*
X140466513Y-109848596D01*
X140371135Y-110163015D01*
X140338930Y-110490000D01*
X138708374Y-110490000D01*
X138708064Y-110489537D01*
X138430463Y-110211936D01*
X138104039Y-109993827D01*
X137741337Y-109843590D01*
X137356293Y-109767000D01*
X136963707Y-109767000D01*
X136578663Y-109843590D01*
X136215961Y-109993827D01*
X135889537Y-110211936D01*
X135611936Y-110489537D01*
X135393827Y-110815961D01*
X135243590Y-111178663D01*
X135167000Y-111563707D01*
X134822070Y-111563707D01*
X134798599Y-111401981D01*
X134700919Y-111126253D01*
X134627472Y-110988843D01*
X134378397Y-110911208D01*
X133529605Y-111760000D01*
X133170395Y-111760000D01*
X132321603Y-110911208D01*
X132072528Y-110988843D01*
X131946629Y-111252883D01*
X131874661Y-111536411D01*
X131859389Y-111828531D01*
X131533000Y-111828531D01*
X131533000Y-111563707D01*
X131456410Y-111178663D01*
X131306173Y-110815961D01*
X131249807Y-110731603D01*
X132501208Y-110731603D01*
X133350000Y-111580395D01*
X134198792Y-110731603D01*
X134121157Y-110482528D01*
X133857117Y-110356629D01*
X133573589Y-110284661D01*
X133281469Y-110269389D01*
X132991981Y-110311401D01*
X132716253Y-110409081D01*
X132578843Y-110482528D01*
X132501208Y-110731603D01*
X131249807Y-110731603D01*
X131088064Y-110489537D01*
X130810463Y-110211936D01*
X130484039Y-109993827D01*
X130121337Y-109843590D01*
X129736293Y-109767000D01*
X129343707Y-109767000D01*
X128958663Y-109843590D01*
X128595961Y-109993827D01*
X128269537Y-110211936D01*
X127991936Y-110489537D01*
X127773827Y-110815961D01*
X127623590Y-111178663D01*
X127547000Y-111563707D01*
X126341737Y-111563707D01*
X126328865Y-111433015D01*
X126235430Y-111125000D01*
X126328865Y-110816985D01*
X126361070Y-110490000D01*
X126328865Y-110163015D01*
X126233487Y-109848596D01*
X126078601Y-109558825D01*
X125870160Y-109304840D01*
X125616175Y-109096399D01*
X125326404Y-108941513D01*
X125011985Y-108846135D01*
X124766937Y-108822000D01*
X124153063Y-108822000D01*
X123908015Y-108846135D01*
X123593596Y-108941513D01*
X123303825Y-109096399D01*
X123049840Y-109304840D01*
X122841399Y-109558825D01*
X122686513Y-109848596D01*
X122591135Y-110163015D01*
X122558930Y-110490000D01*
X117613000Y-110490000D01*
X117613000Y-110288782D01*
X117534488Y-109894079D01*
X117380483Y-109522277D01*
X117156902Y-109187664D01*
X116872336Y-108903098D01*
X116537723Y-108679517D01*
X116244210Y-108557940D01*
X116514039Y-108446173D01*
X116840463Y-108228064D01*
X116948236Y-108120291D01*
X117237012Y-108313245D01*
X117572417Y-108452174D01*
X117928480Y-108523000D01*
X118291520Y-108523000D01*
X118647583Y-108452174D01*
X118982988Y-108313245D01*
X119284844Y-108111551D01*
X119541551Y-107854844D01*
X119743245Y-107552988D01*
X119882174Y-107217583D01*
X119953000Y-106861520D01*
X119953000Y-106498480D01*
X119882174Y-106142417D01*
X119743245Y-105807012D01*
X119541551Y-105505156D01*
X119446395Y-105410000D01*
X119541551Y-105314844D01*
X119743245Y-105012988D01*
X119882174Y-104677583D01*
X119953000Y-104321520D01*
X119953000Y-103958480D01*
X121347000Y-103958480D01*
X121347000Y-104321520D01*
X121417826Y-104677583D01*
X121556755Y-105012988D01*
X121758449Y-105314844D01*
X121853605Y-105410000D01*
X121758449Y-105505156D01*
X121556755Y-105807012D01*
X121417826Y-106142417D01*
X121347000Y-106498480D01*
X121347000Y-106861520D01*
X121417826Y-107217583D01*
X121556755Y-107552988D01*
X121758449Y-107854844D01*
X122015156Y-108111551D01*
X122317012Y-108313245D01*
X122652417Y-108452174D01*
X123008480Y-108523000D01*
X123371520Y-108523000D01*
X123727583Y-108452174D01*
X124062988Y-108313245D01*
X124364844Y-108111551D01*
X124621551Y-107854844D01*
X124823245Y-107552988D01*
X124962174Y-107217583D01*
X125033000Y-106861520D01*
X125033000Y-106498480D01*
X124962174Y-106142417D01*
X124823245Y-105807012D01*
X124621551Y-105505156D01*
X124526395Y-105410000D01*
X124621551Y-105314844D01*
X124823245Y-105012988D01*
X124962174Y-104677583D01*
X124975617Y-104610000D01*
X125051470Y-104610000D01*
X125051470Y-106210000D01*
X125073539Y-106434067D01*
X125138897Y-106649523D01*
X125245032Y-106848089D01*
X125387867Y-107022133D01*
X125561911Y-107164968D01*
X125760477Y-107271103D01*
X125975933Y-107336461D01*
X126200000Y-107358530D01*
X127800000Y-107358530D01*
X128024067Y-107336461D01*
X128239523Y-107271103D01*
X128316485Y-107229966D01*
X128433248Y-107278331D01*
X128808631Y-107353000D01*
X129191369Y-107353000D01*
X129566752Y-107278331D01*
X129920355Y-107131864D01*
X130238590Y-106919226D01*
X130509226Y-106648590D01*
X130721864Y-106330355D01*
X130868331Y-105976752D01*
X130943000Y-105601369D01*
X130943000Y-105218631D01*
X135757000Y-105218631D01*
X135757000Y-105601369D01*
X135831669Y-105976752D01*
X135978136Y-106330355D01*
X136190774Y-106648590D01*
X136461410Y-106919226D01*
X136779645Y-107131864D01*
X137133248Y-107278331D01*
X137508631Y-107353000D01*
X137891369Y-107353000D01*
X138266752Y-107278331D01*
X138383515Y-107229966D01*
X138460477Y-107271103D01*
X138675933Y-107336461D01*
X138900000Y-107358530D01*
X140500000Y-107358530D01*
X140724067Y-107336461D01*
X140939523Y-107271103D01*
X141138089Y-107164968D01*
X141312133Y-107022133D01*
X141454968Y-106848089D01*
X141561103Y-106649523D01*
X141626461Y-106434067D01*
X141648530Y-106210000D01*
X141648530Y-104610000D01*
X141626461Y-104385933D01*
X141561103Y-104170477D01*
X141454968Y-103971911D01*
X141443946Y-103958480D01*
X141667000Y-103958480D01*
X141667000Y-104321520D01*
X141737826Y-104677583D01*
X141876755Y-105012988D01*
X142078449Y-105314844D01*
X142173605Y-105410000D01*
X142078449Y-105505156D01*
X141876755Y-105807012D01*
X141737826Y-106142417D01*
X141667000Y-106498480D01*
X141667000Y-106861520D01*
X141737826Y-107217583D01*
X141876755Y-107552988D01*
X142078449Y-107854844D01*
X142335156Y-108111551D01*
X142637012Y-108313245D01*
X142972417Y-108452174D01*
X143328480Y-108523000D01*
X143691520Y-108523000D01*
X144047583Y-108452174D01*
X144382988Y-108313245D01*
X144684844Y-108111551D01*
X144941551Y-107854844D01*
X145143245Y-107552988D01*
X145282174Y-107217583D01*
X145353000Y-106861520D01*
X145353000Y-106498480D01*
X145282174Y-106142417D01*
X145143245Y-105807012D01*
X144941551Y-105505156D01*
X144846395Y-105410000D01*
X144941551Y-105314844D01*
X145143245Y-105012988D01*
X145282174Y-104677583D01*
X145353000Y-104321520D01*
X145353000Y-103958480D01*
X146747000Y-103958480D01*
X146747000Y-104321520D01*
X146817826Y-104677583D01*
X146956755Y-105012988D01*
X147158449Y-105314844D01*
X147253605Y-105410000D01*
X147158449Y-105505156D01*
X146956755Y-105807012D01*
X146817826Y-106142417D01*
X146747000Y-106498480D01*
X146747000Y-106861520D01*
X146817826Y-107217583D01*
X146956755Y-107552988D01*
X147158449Y-107854844D01*
X147415156Y-108111551D01*
X147717012Y-108313245D01*
X148052417Y-108452174D01*
X148408480Y-108523000D01*
X148771520Y-108523000D01*
X149127583Y-108452174D01*
X149462988Y-108313245D01*
X149751764Y-108120291D01*
X149859537Y-108228064D01*
X150185961Y-108446173D01*
X150455790Y-108557940D01*
X150162277Y-108679517D01*
X149827664Y-108903098D01*
X149543098Y-109187664D01*
X149319517Y-109522277D01*
X149165512Y-109894079D01*
X149087000Y-110288782D01*
X149087000Y-110691218D01*
X149165512Y-111085921D01*
X149319517Y-111457723D01*
X149543098Y-111792336D01*
X149639587Y-111888825D01*
X149604188Y-112005518D01*
X149591928Y-112130000D01*
X149595000Y-112744250D01*
X149753750Y-112903000D01*
X151003000Y-112903000D01*
X151003000Y-112883000D01*
X151257000Y-112883000D01*
X151257000Y-112903000D01*
X152506250Y-112903000D01*
X152665000Y-112744250D01*
X152668072Y-112130000D01*
X152655812Y-112005518D01*
X152620413Y-111888825D01*
X152716902Y-111792336D01*
X152940483Y-111457723D01*
X153094488Y-111085921D01*
X153173000Y-110691218D01*
X153173000Y-110288782D01*
X153094488Y-109894079D01*
X152940483Y-109522277D01*
X152716902Y-109187664D01*
X152432336Y-108903098D01*
X152097723Y-108679517D01*
X151804210Y-108557940D01*
X152074039Y-108446173D01*
X152400463Y-108228064D01*
X152678064Y-107950463D01*
X152896173Y-107624039D01*
X153046410Y-107261337D01*
X153123000Y-106876293D01*
X153123000Y-106483707D01*
X153046410Y-106098663D01*
X152896173Y-105735961D01*
X152678064Y-105409537D01*
X152400463Y-105131936D01*
X152074039Y-104913827D01*
X151711337Y-104763590D01*
X151326293Y-104687000D01*
X150933707Y-104687000D01*
X150548663Y-104763590D01*
X150280547Y-104874648D01*
X150362174Y-104677583D01*
X150433000Y-104321520D01*
X150433000Y-103958480D01*
X150362174Y-103602417D01*
X150223245Y-103267012D01*
X150021551Y-102965156D01*
X149764844Y-102708449D01*
X149462988Y-102506755D01*
X149127583Y-102367826D01*
X148771520Y-102297000D01*
X148408480Y-102297000D01*
X148052417Y-102367826D01*
X147717012Y-102506755D01*
X147415156Y-102708449D01*
X147158449Y-102965156D01*
X146956755Y-103267012D01*
X146817826Y-103602417D01*
X146747000Y-103958480D01*
X145353000Y-103958480D01*
X145282174Y-103602417D01*
X145143245Y-103267012D01*
X144941551Y-102965156D01*
X144684844Y-102708449D01*
X144382988Y-102506755D01*
X144047583Y-102367826D01*
X143691520Y-102297000D01*
X143328480Y-102297000D01*
X142972417Y-102367826D01*
X142637012Y-102506755D01*
X142335156Y-102708449D01*
X142078449Y-102965156D01*
X141876755Y-103267012D01*
X141737826Y-103602417D01*
X141667000Y-103958480D01*
X141443946Y-103958480D01*
X141312133Y-103797867D01*
X141138089Y-103655032D01*
X140939523Y-103548897D01*
X140724067Y-103483539D01*
X140500000Y-103461470D01*
X138900000Y-103461470D01*
X138675933Y-103483539D01*
X138460477Y-103548897D01*
X138383515Y-103590034D01*
X138266752Y-103541669D01*
X137891369Y-103467000D01*
X137508631Y-103467000D01*
X137133248Y-103541669D01*
X136779645Y-103688136D01*
X136461410Y-103900774D01*
X136190774Y-104171410D01*
X135978136Y-104489645D01*
X135831669Y-104843248D01*
X135757000Y-105218631D01*
X130943000Y-105218631D01*
X130868331Y-104843248D01*
X130721864Y-104489645D01*
X130509226Y-104171410D01*
X130238590Y-103900774D01*
X129920355Y-103688136D01*
X129566752Y-103541669D01*
X129191369Y-103467000D01*
X128808631Y-103467000D01*
X128433248Y-103541669D01*
X128316485Y-103590034D01*
X128239523Y-103548897D01*
X128024067Y-103483539D01*
X127800000Y-103461470D01*
X126200000Y-103461470D01*
X125975933Y-103483539D01*
X125760477Y-103548897D01*
X125561911Y-103655032D01*
X125387867Y-103797867D01*
X125245032Y-103971911D01*
X125138897Y-104170477D01*
X125073539Y-104385933D01*
X125051470Y-104610000D01*
X124975617Y-104610000D01*
X125033000Y-104321520D01*
X125033000Y-103958480D01*
X124962174Y-103602417D01*
X124823245Y-103267012D01*
X124621551Y-102965156D01*
X124364844Y-102708449D01*
X124062988Y-102506755D01*
X123727583Y-102367826D01*
X123371520Y-102297000D01*
X123008480Y-102297000D01*
X122652417Y-102367826D01*
X122317012Y-102506755D01*
X122015156Y-102708449D01*
X121758449Y-102965156D01*
X121556755Y-103267012D01*
X121417826Y-103602417D01*
X121347000Y-103958480D01*
X119953000Y-103958480D01*
X119882174Y-103602417D01*
X119743245Y-103267012D01*
X119541551Y-102965156D01*
X119284844Y-102708449D01*
X118982988Y-102506755D01*
X118647583Y-102367826D01*
X118291520Y-102297000D01*
X117928480Y-102297000D01*
X117572417Y-102367826D01*
X117237012Y-102506755D01*
X116935156Y-102708449D01*
X116678449Y-102965156D01*
X116476755Y-103267012D01*
X116337826Y-103602417D01*
X116267000Y-103958480D01*
X116267000Y-104321520D01*
X116337826Y-104677583D01*
X116419453Y-104874648D01*
X116151337Y-104763590D01*
X115766293Y-104687000D01*
X115373707Y-104687000D01*
X114988663Y-104763590D01*
X114625961Y-104913827D01*
X114299537Y-105131936D01*
X114021936Y-105409537D01*
X113803827Y-105735961D01*
X113653590Y-106098663D01*
X113577000Y-106483707D01*
X113577000Y-106876293D01*
X113653590Y-107261337D01*
X113803827Y-107624039D01*
X114021936Y-107950463D01*
X114299537Y-108228064D01*
X114625961Y-108446173D01*
X114895790Y-108557940D01*
X114602277Y-108679517D01*
X114267664Y-108903098D01*
X113983098Y-109187664D01*
X113759517Y-109522277D01*
X113605512Y-109894079D01*
X113527000Y-110288782D01*
X113411000Y-110288782D01*
X113411000Y-98784310D01*
X118297000Y-98784310D01*
X118297000Y-99255690D01*
X118388961Y-99718012D01*
X118569351Y-100153511D01*
X118831235Y-100545449D01*
X119164551Y-100878765D01*
X119556489Y-101140649D01*
X119991988Y-101321039D01*
X120454310Y-101413000D01*
X120925690Y-101413000D01*
X121388012Y-101321039D01*
X121823511Y-101140649D01*
X122215449Y-100878765D01*
X122548765Y-100545449D01*
X122810649Y-100153511D01*
X122812732Y-100148480D01*
X127697000Y-100148480D01*
X127697000Y-100511520D01*
X127767826Y-100867583D01*
X127906755Y-101202988D01*
X128108449Y-101504844D01*
X128365156Y-101761551D01*
X128667012Y-101963245D01*
X129002417Y-102102174D01*
X129358480Y-102173000D01*
X129721520Y-102173000D01*
X130077583Y-102102174D01*
X130412988Y-101963245D01*
X130714844Y-101761551D01*
X130971551Y-101504844D01*
X131173245Y-101202988D01*
X131312174Y-100867583D01*
X131383000Y-100511520D01*
X131383000Y-100148480D01*
X135317000Y-100148480D01*
X135317000Y-100511520D01*
X135387826Y-100867583D01*
X135526755Y-101202988D01*
X135728449Y-101504844D01*
X135985156Y-101761551D01*
X136287012Y-101963245D01*
X136622417Y-102102174D01*
X136978480Y-102173000D01*
X137341520Y-102173000D01*
X137697583Y-102102174D01*
X138032988Y-101963245D01*
X138334844Y-101761551D01*
X138591551Y-101504844D01*
X138793245Y-101202988D01*
X138932174Y-100867583D01*
X139003000Y-100511520D01*
X139003000Y-100148480D01*
X138932174Y-99792417D01*
X138793245Y-99457012D01*
X138591551Y-99155156D01*
X138334844Y-98898449D01*
X138164024Y-98784310D01*
X143697000Y-98784310D01*
X143697000Y-99255690D01*
X143788961Y-99718012D01*
X143969351Y-100153511D01*
X144231235Y-100545449D01*
X144564551Y-100878765D01*
X144956489Y-101140649D01*
X145391988Y-101321039D01*
X145854310Y-101413000D01*
X146325690Y-101413000D01*
X146788012Y-101321039D01*
X147223511Y-101140649D01*
X147615449Y-100878765D01*
X147948765Y-100545449D01*
X148210649Y-100153511D01*
X148391039Y-99718012D01*
X148483000Y-99255690D01*
X148483000Y-98784310D01*
X148391039Y-98321988D01*
X148210649Y-97886489D01*
X147948765Y-97494551D01*
X147615449Y-97161235D01*
X147223511Y-96899351D01*
X146788012Y-96718961D01*
X146325690Y-96627000D01*
X145854310Y-96627000D01*
X145391988Y-96718961D01*
X144956489Y-96899351D01*
X144564551Y-97161235D01*
X144231235Y-97494551D01*
X143969351Y-97886489D01*
X143788961Y-98321988D01*
X143697000Y-98784310D01*
X138164024Y-98784310D01*
X138032988Y-98696755D01*
X137697583Y-98557826D01*
X137341520Y-98487000D01*
X136978480Y-98487000D01*
X136622417Y-98557826D01*
X136287012Y-98696755D01*
X135985156Y-98898449D01*
X135728449Y-99155156D01*
X135526755Y-99457012D01*
X135387826Y-99792417D01*
X135317000Y-100148480D01*
X131383000Y-100148480D01*
X131312174Y-99792417D01*
X131173245Y-99457012D01*
X130971551Y-99155156D01*
X130714844Y-98898449D01*
X130412988Y-98696755D01*
X130077583Y-98557826D01*
X129721520Y-98487000D01*
X129358480Y-98487000D01*
X129002417Y-98557826D01*
X128667012Y-98696755D01*
X128365156Y-98898449D01*
X128108449Y-99155156D01*
X127906755Y-99457012D01*
X127767826Y-99792417D01*
X127697000Y-100148480D01*
X122812732Y-100148480D01*
X122991039Y-99718012D01*
X123083000Y-99255690D01*
X123083000Y-98784310D01*
X122991039Y-98321988D01*
X122810649Y-97886489D01*
X122548765Y-97494551D01*
X122215449Y-97161235D01*
X121823511Y-96899351D01*
X121388012Y-96718961D01*
X120925690Y-96627000D01*
X120454310Y-96627000D01*
X119991988Y-96718961D01*
X119556489Y-96899351D01*
X119164551Y-97161235D01*
X118831235Y-97494551D01*
X118569351Y-97886489D01*
X118388961Y-98321988D01*
X118297000Y-98784310D01*
X113411000Y-98784310D01*
X113411000Y-93744310D01*
X115797000Y-93744310D01*
X115797000Y-94215690D01*
X115888961Y-94678012D01*
X116069351Y-95113511D01*
X116331235Y-95505449D01*
X116664551Y-95838765D01*
X117056489Y-96100649D01*
X117491988Y-96281039D01*
X117954310Y-96373000D01*
X118425690Y-96373000D01*
X118888012Y-96281039D01*
X119323511Y-96100649D01*
X119715449Y-95838765D01*
X120048765Y-95505449D01*
X120310649Y-95113511D01*
X120491039Y-94678012D01*
X120583000Y-94215690D01*
X120583000Y-93744310D01*
X120797000Y-93744310D01*
X120797000Y-94215690D01*
X120888961Y-94678012D01*
X121069351Y-95113511D01*
X121331235Y-95505449D01*
X121664551Y-95838765D01*
X122056489Y-96100649D01*
X122491988Y-96281039D01*
X122954310Y-96373000D01*
X123425690Y-96373000D01*
X123888012Y-96281039D01*
X124323511Y-96100649D01*
X124715449Y-95838765D01*
X125048765Y-95505449D01*
X125310649Y-95113511D01*
X125329301Y-95068480D01*
X127697000Y-95068480D01*
X127697000Y-95431520D01*
X127767826Y-95787583D01*
X127906755Y-96122988D01*
X128108449Y-96424844D01*
X128365156Y-96681551D01*
X128667012Y-96883245D01*
X129002417Y-97022174D01*
X129358480Y-97093000D01*
X129721520Y-97093000D01*
X130077583Y-97022174D01*
X130412988Y-96883245D01*
X130714844Y-96681551D01*
X130971551Y-96424844D01*
X131173245Y-96122988D01*
X131312174Y-95787583D01*
X131383000Y-95431520D01*
X131383000Y-95068480D01*
X135317000Y-95068480D01*
X135317000Y-95431520D01*
X135387826Y-95787583D01*
X135526755Y-96122988D01*
X135728449Y-96424844D01*
X135985156Y-96681551D01*
X136287012Y-96883245D01*
X136622417Y-97022174D01*
X136978480Y-97093000D01*
X137341520Y-97093000D01*
X137697583Y-97022174D01*
X138032988Y-96883245D01*
X138334844Y-96681551D01*
X138591551Y-96424844D01*
X138793245Y-96122988D01*
X138932174Y-95787583D01*
X139003000Y-95431520D01*
X139003000Y-95068480D01*
X138932174Y-94712417D01*
X138793245Y-94377012D01*
X138591551Y-94075156D01*
X138334844Y-93818449D01*
X138223888Y-93744310D01*
X141197000Y-93744310D01*
X141197000Y-94215690D01*
X141288961Y-94678012D01*
X141469351Y-95113511D01*
X141731235Y-95505449D01*
X142064551Y-95838765D01*
X142456489Y-96100649D01*
X142891988Y-96281039D01*
X143354310Y-96373000D01*
X143825690Y-96373000D01*
X144288012Y-96281039D01*
X144723511Y-96100649D01*
X145115449Y-95838765D01*
X145448765Y-95505449D01*
X145710649Y-95113511D01*
X145891039Y-94678012D01*
X145983000Y-94215690D01*
X145983000Y-93744310D01*
X146197000Y-93744310D01*
X146197000Y-94215690D01*
X146288961Y-94678012D01*
X146469351Y-95113511D01*
X146731235Y-95505449D01*
X147064551Y-95838765D01*
X147456489Y-96100649D01*
X147891988Y-96281039D01*
X148354310Y-96373000D01*
X148825690Y-96373000D01*
X149288012Y-96281039D01*
X149723511Y-96100649D01*
X150115449Y-95838765D01*
X150448765Y-95505449D01*
X150710649Y-95113511D01*
X150891039Y-94678012D01*
X150983000Y-94215690D01*
X150983000Y-93744310D01*
X150891039Y-93281988D01*
X150710649Y-92846489D01*
X150448765Y-92454551D01*
X150115449Y-92121235D01*
X149723511Y-91859351D01*
X149288012Y-91678961D01*
X148825690Y-91587000D01*
X148354310Y-91587000D01*
X147891988Y-91678961D01*
X147456489Y-91859351D01*
X147064551Y-92121235D01*
X146731235Y-92454551D01*
X146469351Y-92846489D01*
X146288961Y-93281988D01*
X146197000Y-93744310D01*
X145983000Y-93744310D01*
X145891039Y-93281988D01*
X145710649Y-92846489D01*
X145448765Y-92454551D01*
X145115449Y-92121235D01*
X144723511Y-91859351D01*
X144288012Y-91678961D01*
X143825690Y-91587000D01*
X143354310Y-91587000D01*
X142891988Y-91678961D01*
X142456489Y-91859351D01*
X142064551Y-92121235D01*
X141731235Y-92454551D01*
X141469351Y-92846489D01*
X141288961Y-93281988D01*
X141197000Y-93744310D01*
X138223888Y-93744310D01*
X138032988Y-93616755D01*
X137697583Y-93477826D01*
X137341520Y-93407000D01*
X136978480Y-93407000D01*
X136622417Y-93477826D01*
X136287012Y-93616755D01*
X135985156Y-93818449D01*
X135728449Y-94075156D01*
X135526755Y-94377012D01*
X135387826Y-94712417D01*
X135317000Y-95068480D01*
X131383000Y-95068480D01*
X131312174Y-94712417D01*
X131173245Y-94377012D01*
X130971551Y-94075156D01*
X130714844Y-93818449D01*
X130412988Y-93616755D01*
X130077583Y-93477826D01*
X129721520Y-93407000D01*
X129358480Y-93407000D01*
X129002417Y-93477826D01*
X128667012Y-93616755D01*
X128365156Y-93818449D01*
X128108449Y-94075156D01*
X127906755Y-94377012D01*
X127767826Y-94712417D01*
X127697000Y-95068480D01*
X125329301Y-95068480D01*
X125491039Y-94678012D01*
X125583000Y-94215690D01*
X125583000Y-93744310D01*
X125491039Y-93281988D01*
X125310649Y-92846489D01*
X125048765Y-92454551D01*
X124715449Y-92121235D01*
X124323511Y-91859351D01*
X123888012Y-91678961D01*
X123425690Y-91587000D01*
X122954310Y-91587000D01*
X122491988Y-91678961D01*
X122056489Y-91859351D01*
X121664551Y-92121235D01*
X121331235Y-92454551D01*
X121069351Y-92846489D01*
X120888961Y-93281988D01*
X120797000Y-93744310D01*
X120583000Y-93744310D01*
X120491039Y-93281988D01*
X120310649Y-92846489D01*
X120048765Y-92454551D01*
X119715449Y-92121235D01*
X119323511Y-91859351D01*
X118888012Y-91678961D01*
X118425690Y-91587000D01*
X117954310Y-91587000D01*
X117491988Y-91678961D01*
X117056489Y-91859351D01*
X116664551Y-92121235D01*
X116331235Y-92454551D01*
X116069351Y-92846489D01*
X115888961Y-93281988D01*
X115797000Y-93744310D01*
X113411000Y-93744310D01*
X113411000Y-90780890D01*
X114128524Y-90780890D01*
X114173175Y-90928099D01*
X114298359Y-91190920D01*
X114472412Y-91424269D01*
X114688645Y-91619178D01*
X114938748Y-91768157D01*
X115213109Y-91865481D01*
X115443000Y-91744814D01*
X115443000Y-90551000D01*
X115697000Y-90551000D01*
X115697000Y-91744814D01*
X115926891Y-91865481D01*
X116201252Y-91768157D01*
X116451355Y-91619178D01*
X116667588Y-91424269D01*
X116841641Y-91190920D01*
X116966825Y-90928099D01*
X117011476Y-90780890D01*
X116890155Y-90551000D01*
X115697000Y-90551000D01*
X115443000Y-90551000D01*
X114249845Y-90551000D01*
X114128524Y-90780890D01*
X113411000Y-90780890D01*
X113411000Y-78359000D01*
X114269059Y-78359000D01*
X114081911Y-78459032D01*
G04 #@! TA.AperFunction,Conductor*
D26*
G36*
X114081911Y-78459032D02*
G01*
X113907867Y-78601867D01*
X113765032Y-78775911D01*
X113658897Y-78974477D01*
X113593539Y-79189933D01*
X113571470Y-79414000D01*
X113571470Y-81114000D01*
X113593539Y-81338067D01*
X113658897Y-81553523D01*
X113765032Y-81752089D01*
X113826147Y-81826557D01*
X113803827Y-81859961D01*
X113653590Y-82222663D01*
X113577000Y-82607707D01*
X113577000Y-83000293D01*
X113653590Y-83385337D01*
X113803827Y-83748039D01*
X114021627Y-84074000D01*
X113803827Y-84399961D01*
X113653590Y-84762663D01*
X113577000Y-85147707D01*
X113577000Y-85540293D01*
X113653590Y-85925337D01*
X113803827Y-86288039D01*
X114021627Y-86614000D01*
X113803827Y-86939961D01*
X113653590Y-87302663D01*
X113577000Y-87687707D01*
X113577000Y-88080293D01*
X113653590Y-88465337D01*
X113803827Y-88828039D01*
X114021936Y-89154463D01*
X114299537Y-89432064D01*
X114410763Y-89506383D01*
X114298359Y-89657080D01*
X114173175Y-89919901D01*
X114128524Y-90067110D01*
X114249845Y-90297000D01*
X115443000Y-90297000D01*
X115443000Y-90277000D01*
X115697000Y-90277000D01*
X115697000Y-90297000D01*
X116890155Y-90297000D01*
X117011476Y-90067110D01*
X116966825Y-89919901D01*
X116841641Y-89657080D01*
X116729237Y-89506383D01*
X116840463Y-89432064D01*
X117118064Y-89154463D01*
X117336173Y-88828039D01*
X117486410Y-88465337D01*
X117563000Y-88080293D01*
X117563000Y-87687707D01*
X117486410Y-87302663D01*
X117336173Y-86939961D01*
X117118373Y-86614000D01*
X117336173Y-86288039D01*
X117486410Y-85925337D01*
X117563000Y-85540293D01*
X117563000Y-85147707D01*
X117486410Y-84762663D01*
X117336173Y-84399961D01*
X117126657Y-84086397D01*
X124579208Y-84086397D01*
X124656843Y-84335472D01*
X124920883Y-84461371D01*
X125204411Y-84533339D01*
X125496531Y-84548611D01*
X125786019Y-84506599D01*
X126061747Y-84408919D01*
X126199157Y-84335472D01*
X126276792Y-84086397D01*
X125428000Y-83237605D01*
X124579208Y-84086397D01*
X117126657Y-84086397D01*
X117118373Y-84074000D01*
X117336173Y-83748039D01*
X117486410Y-83385337D01*
X117537889Y-83126531D01*
X123937389Y-83126531D01*
X123979401Y-83416019D01*
X124077081Y-83691747D01*
X124150528Y-83829157D01*
X124399603Y-83906792D01*
X125248395Y-83058000D01*
X125607605Y-83058000D01*
X126456397Y-83906792D01*
X126705472Y-83829157D01*
X126831371Y-83565117D01*
X126903339Y-83281589D01*
X126918611Y-82989469D01*
X126876599Y-82699981D01*
X126778919Y-82424253D01*
X126705472Y-82286843D01*
X126456397Y-82209208D01*
X125607605Y-83058000D01*
X125248395Y-83058000D01*
X124399603Y-82209208D01*
X124150528Y-82286843D01*
X124024629Y-82550883D01*
X123952661Y-82834411D01*
X123937389Y-83126531D01*
X117537889Y-83126531D01*
X117563000Y-83000293D01*
X117563000Y-82607707D01*
X117486410Y-82222663D01*
X117406442Y-82029603D01*
X124579208Y-82029603D01*
X125428000Y-82878395D01*
X126098395Y-82208000D01*
X143429470Y-82208000D01*
X143429470Y-83908000D01*
X143451539Y-84132067D01*
X143516897Y-84347523D01*
X143623032Y-84546089D01*
X143765867Y-84720133D01*
X143939911Y-84862968D01*
X144138477Y-84969103D01*
X144353933Y-85034461D01*
X144578000Y-85056530D01*
X146278000Y-85056530D01*
X146502067Y-85034461D01*
X146717523Y-84969103D01*
X146916089Y-84862968D01*
X147090133Y-84720133D01*
X147232968Y-84546089D01*
X147339103Y-84347523D01*
X147404461Y-84132067D01*
X147426530Y-83908000D01*
X147426530Y-82208000D01*
X147404461Y-81983933D01*
X147339103Y-81768477D01*
X147232968Y-81569911D01*
X147090133Y-81395867D01*
X146916089Y-81253032D01*
X146717523Y-81146897D01*
X146502067Y-81081539D01*
X146278000Y-81059470D01*
X144578000Y-81059470D01*
X144353933Y-81081539D01*
X144138477Y-81146897D01*
X143939911Y-81253032D01*
X143765867Y-81395867D01*
X143623032Y-81569911D01*
X143516897Y-81768477D01*
X143451539Y-81983933D01*
X143429470Y-82208000D01*
X126098395Y-82208000D01*
X126276792Y-82029603D01*
X126199157Y-81780528D01*
X125935117Y-81654629D01*
X125651589Y-81582661D01*
X125359469Y-81567389D01*
X125069981Y-81609401D01*
X124794253Y-81707081D01*
X124656843Y-81780528D01*
X124579208Y-82029603D01*
X117406442Y-82029603D01*
X117336173Y-81859961D01*
X117313853Y-81826557D01*
X117374968Y-81752089D01*
X117481103Y-81553523D01*
X117546461Y-81338067D01*
X117568530Y-81114000D01*
X117568530Y-79414000D01*
X117546461Y-79189933D01*
X117481103Y-78974477D01*
X117374968Y-78775911D01*
X117232133Y-78601867D01*
X117058089Y-78459032D01*
X116870941Y-78359000D01*
X153289000Y-78359000D01*
X153289000Y-114427000D01*
X152425359Y-114427000D01*
X152481185Y-114381185D01*
X152560537Y-114284494D01*
X152619502Y-114174180D01*
X152655812Y-114054482D01*
X152668072Y-113930000D01*
X152665000Y-113315750D01*
X152506250Y-113157000D01*
X151257000Y-113157000D01*
X151257000Y-113177000D01*
X151003000Y-113177000D01*
X151003000Y-113157000D01*
X149753750Y-113157000D01*
X149595000Y-113315750D01*
X149591928Y-113930000D01*
X149604188Y-114054482D01*
X149640498Y-114174180D01*
X149699463Y-114284494D01*
X149778815Y-114381185D01*
X149834641Y-114427000D01*
X116865359Y-114427000D01*
X116921185Y-114381185D01*
X117000537Y-114284494D01*
X117059502Y-114174180D01*
X117095812Y-114054482D01*
X117108072Y-113930000D01*
X117105000Y-113315750D01*
X116946250Y-113157000D01*
X115697000Y-113157000D01*
X115697000Y-113177000D01*
X115443000Y-113177000D01*
X115443000Y-113157000D01*
X114193750Y-113157000D01*
X114035000Y-113315750D01*
X114031928Y-113930000D01*
X114044188Y-114054482D01*
X114080498Y-114174180D01*
X114139463Y-114284494D01*
X114218815Y-114381185D01*
X114274641Y-114427000D01*
X113411000Y-114427000D01*
X113411000Y-110288782D01*
X113527000Y-110288782D01*
X113527000Y-110691218D01*
X113605512Y-111085921D01*
X113759517Y-111457723D01*
X113983098Y-111792336D01*
X114079587Y-111888825D01*
X114044188Y-112005518D01*
X114031928Y-112130000D01*
X114035000Y-112744250D01*
X114193750Y-112903000D01*
X115443000Y-112903000D01*
X115443000Y-112883000D01*
X115697000Y-112883000D01*
X115697000Y-112903000D01*
X116946250Y-112903000D01*
X117105000Y-112744250D01*
X117108072Y-112130000D01*
X117095812Y-112005518D01*
X117060413Y-111888825D01*
X117156902Y-111792336D01*
X117380483Y-111457723D01*
X117534488Y-111085921D01*
X117613000Y-110691218D01*
X117613000Y-110490000D01*
X122558930Y-110490000D01*
X122591135Y-110816985D01*
X122684570Y-111125000D01*
X122591135Y-111433015D01*
X122558930Y-111760000D01*
X122591135Y-112086985D01*
X122686513Y-112401404D01*
X122841399Y-112691175D01*
X123049840Y-112945160D01*
X123303825Y-113153601D01*
X123310184Y-113157000D01*
X123233750Y-113157000D01*
X123075000Y-113315750D01*
X123071928Y-113555000D01*
X123084188Y-113679482D01*
X123120498Y-113799180D01*
X123179463Y-113909494D01*
X123258815Y-114006185D01*
X123355506Y-114085537D01*
X123465820Y-114144502D01*
X123585518Y-114180812D01*
X123710000Y-114193072D01*
X124174250Y-114190000D01*
X124333000Y-114031250D01*
X124333000Y-113428000D01*
X124587000Y-113428000D01*
X124587000Y-114031250D01*
X124745750Y-114190000D01*
X125210000Y-114193072D01*
X125334482Y-114180812D01*
X125454180Y-114144502D01*
X125564494Y-114085537D01*
X125661185Y-114006185D01*
X125740537Y-113909494D01*
X125799502Y-113799180D01*
X125835812Y-113679482D01*
X125848072Y-113555000D01*
X125845000Y-113315750D01*
X125686250Y-113157000D01*
X125609816Y-113157000D01*
X125616175Y-113153601D01*
X125870160Y-112945160D01*
X126078601Y-112691175D01*
X126233487Y-112401404D01*
X126328865Y-112086985D01*
X126361070Y-111760000D01*
X126341737Y-111563707D01*
X127547000Y-111563707D01*
X127547000Y-111956293D01*
X127623590Y-112341337D01*
X127773827Y-112704039D01*
X127991936Y-113030463D01*
X128269537Y-113308064D01*
X128595961Y-113526173D01*
X128958663Y-113676410D01*
X129343707Y-113753000D01*
X129736293Y-113753000D01*
X130121337Y-113676410D01*
X130484039Y-113526173D01*
X130810463Y-113308064D01*
X131088064Y-113030463D01*
X131249806Y-112788397D01*
X132501208Y-112788397D01*
X132578843Y-113037472D01*
X132842883Y-113163371D01*
X133126411Y-113235339D01*
X133418531Y-113250611D01*
X133708019Y-113208599D01*
X133983747Y-113110919D01*
X134121157Y-113037472D01*
X134198792Y-112788397D01*
X133350000Y-111939605D01*
X132501208Y-112788397D01*
X131249806Y-112788397D01*
X131306173Y-112704039D01*
X131456410Y-112341337D01*
X131533000Y-111956293D01*
X131533000Y-111828531D01*
X131859389Y-111828531D01*
X131901401Y-112118019D01*
X131999081Y-112393747D01*
X132072528Y-112531157D01*
X132321603Y-112608792D01*
X133170395Y-111760000D01*
X133529605Y-111760000D01*
X134378397Y-112608792D01*
X134627472Y-112531157D01*
X134753371Y-112267117D01*
X134825339Y-111983589D01*
X134840611Y-111691469D01*
X134822070Y-111563707D01*
X135167000Y-111563707D01*
X135167000Y-111956293D01*
X135243590Y-112341337D01*
X135393827Y-112704039D01*
X135611936Y-113030463D01*
X135889537Y-113308064D01*
X136215961Y-113526173D01*
X136578663Y-113676410D01*
X136963707Y-113753000D01*
X137356293Y-113753000D01*
X137741337Y-113676410D01*
X138104039Y-113526173D01*
X138430463Y-113308064D01*
X138708064Y-113030463D01*
X138926173Y-112704039D01*
X139076410Y-112341337D01*
X139153000Y-111956293D01*
X139153000Y-111563707D01*
X139076410Y-111178663D01*
X138926173Y-110815961D01*
X138708374Y-110490000D01*
X140338930Y-110490000D01*
X140371135Y-110816985D01*
X140464570Y-111125000D01*
X140371135Y-111433015D01*
X140338930Y-111760000D01*
X140371135Y-112086985D01*
X140466513Y-112401404D01*
X140621399Y-112691175D01*
X140829840Y-112945160D01*
X141083825Y-113153601D01*
X141090184Y-113157000D01*
X141013750Y-113157000D01*
X140855000Y-113315750D01*
X140851928Y-113555000D01*
X140864188Y-113679482D01*
X140900498Y-113799180D01*
X140959463Y-113909494D01*
X141038815Y-114006185D01*
X141135506Y-114085537D01*
X141245820Y-114144502D01*
X141365518Y-114180812D01*
X141490000Y-114193072D01*
X141954250Y-114190000D01*
X142113000Y-114031250D01*
X142113000Y-113428000D01*
X142367000Y-113428000D01*
X142367000Y-114031250D01*
X142525750Y-114190000D01*
X142990000Y-114193072D01*
X143114482Y-114180812D01*
X143234180Y-114144502D01*
X143344494Y-114085537D01*
X143441185Y-114006185D01*
X143520537Y-113909494D01*
X143579502Y-113799180D01*
X143615812Y-113679482D01*
X143628072Y-113555000D01*
X143625000Y-113315750D01*
X143466250Y-113157000D01*
X143389816Y-113157000D01*
X143396175Y-113153601D01*
X143650160Y-112945160D01*
X143858601Y-112691175D01*
X144013487Y-112401404D01*
X144108865Y-112086985D01*
X144141070Y-111760000D01*
X144108865Y-111433015D01*
X144015430Y-111125000D01*
X144108865Y-110816985D01*
X144141070Y-110490000D01*
X144108865Y-110163015D01*
X144013487Y-109848596D01*
X143858601Y-109558825D01*
X143650160Y-109304840D01*
X143396175Y-109096399D01*
X143106404Y-108941513D01*
X142791985Y-108846135D01*
X142546937Y-108822000D01*
X141933063Y-108822000D01*
X141688015Y-108846135D01*
X141373596Y-108941513D01*
X141083825Y-109096399D01*
X140829840Y-109304840D01*
X140621399Y-109558825D01*
X140466513Y-109848596D01*
X140371135Y-110163015D01*
X140338930Y-110490000D01*
X138708374Y-110490000D01*
X138708064Y-110489537D01*
X138430463Y-110211936D01*
X138104039Y-109993827D01*
X137741337Y-109843590D01*
X137356293Y-109767000D01*
X136963707Y-109767000D01*
X136578663Y-109843590D01*
X136215961Y-109993827D01*
X135889537Y-110211936D01*
X135611936Y-110489537D01*
X135393827Y-110815961D01*
X135243590Y-111178663D01*
X135167000Y-111563707D01*
X134822070Y-111563707D01*
X134798599Y-111401981D01*
X134700919Y-111126253D01*
X134627472Y-110988843D01*
X134378397Y-110911208D01*
X133529605Y-111760000D01*
X133170395Y-111760000D01*
X132321603Y-110911208D01*
X132072528Y-110988843D01*
X131946629Y-111252883D01*
X131874661Y-111536411D01*
X131859389Y-111828531D01*
X131533000Y-111828531D01*
X131533000Y-111563707D01*
X131456410Y-111178663D01*
X131306173Y-110815961D01*
X131249807Y-110731603D01*
X132501208Y-110731603D01*
X133350000Y-111580395D01*
X134198792Y-110731603D01*
X134121157Y-110482528D01*
X133857117Y-110356629D01*
X133573589Y-110284661D01*
X133281469Y-110269389D01*
X132991981Y-110311401D01*
X132716253Y-110409081D01*
X132578843Y-110482528D01*
X132501208Y-110731603D01*
X131249807Y-110731603D01*
X131088064Y-110489537D01*
X130810463Y-110211936D01*
X130484039Y-109993827D01*
X130121337Y-109843590D01*
X129736293Y-109767000D01*
X129343707Y-109767000D01*
X128958663Y-109843590D01*
X128595961Y-109993827D01*
X128269537Y-110211936D01*
X127991936Y-110489537D01*
X127773827Y-110815961D01*
X127623590Y-111178663D01*
X127547000Y-111563707D01*
X126341737Y-111563707D01*
X126328865Y-111433015D01*
X126235430Y-111125000D01*
X126328865Y-110816985D01*
X126361070Y-110490000D01*
X126328865Y-110163015D01*
X126233487Y-109848596D01*
X126078601Y-109558825D01*
X125870160Y-109304840D01*
X125616175Y-109096399D01*
X125326404Y-108941513D01*
X125011985Y-108846135D01*
X124766937Y-108822000D01*
X124153063Y-108822000D01*
X123908015Y-108846135D01*
X123593596Y-108941513D01*
X123303825Y-109096399D01*
X123049840Y-109304840D01*
X122841399Y-109558825D01*
X122686513Y-109848596D01*
X122591135Y-110163015D01*
X122558930Y-110490000D01*
X117613000Y-110490000D01*
X117613000Y-110288782D01*
X117534488Y-109894079D01*
X117380483Y-109522277D01*
X117156902Y-109187664D01*
X116872336Y-108903098D01*
X116537723Y-108679517D01*
X116244210Y-108557940D01*
X116514039Y-108446173D01*
X116840463Y-108228064D01*
X116948236Y-108120291D01*
X117237012Y-108313245D01*
X117572417Y-108452174D01*
X117928480Y-108523000D01*
X118291520Y-108523000D01*
X118647583Y-108452174D01*
X118982988Y-108313245D01*
X119284844Y-108111551D01*
X119541551Y-107854844D01*
X119743245Y-107552988D01*
X119882174Y-107217583D01*
X119953000Y-106861520D01*
X119953000Y-106498480D01*
X119882174Y-106142417D01*
X119743245Y-105807012D01*
X119541551Y-105505156D01*
X119446395Y-105410000D01*
X119541551Y-105314844D01*
X119743245Y-105012988D01*
X119882174Y-104677583D01*
X119953000Y-104321520D01*
X119953000Y-103958480D01*
X121347000Y-103958480D01*
X121347000Y-104321520D01*
X121417826Y-104677583D01*
X121556755Y-105012988D01*
X121758449Y-105314844D01*
X121853605Y-105410000D01*
X121758449Y-105505156D01*
X121556755Y-105807012D01*
X121417826Y-106142417D01*
X121347000Y-106498480D01*
X121347000Y-106861520D01*
X121417826Y-107217583D01*
X121556755Y-107552988D01*
X121758449Y-107854844D01*
X122015156Y-108111551D01*
X122317012Y-108313245D01*
X122652417Y-108452174D01*
X123008480Y-108523000D01*
X123371520Y-108523000D01*
X123727583Y-108452174D01*
X124062988Y-108313245D01*
X124364844Y-108111551D01*
X124621551Y-107854844D01*
X124823245Y-107552988D01*
X124962174Y-107217583D01*
X125033000Y-106861520D01*
X125033000Y-106498480D01*
X124962174Y-106142417D01*
X124823245Y-105807012D01*
X124621551Y-105505156D01*
X124526395Y-105410000D01*
X124621551Y-105314844D01*
X124823245Y-105012988D01*
X124962174Y-104677583D01*
X124975617Y-104610000D01*
X125051470Y-104610000D01*
X125051470Y-106210000D01*
X125073539Y-106434067D01*
X125138897Y-106649523D01*
X125245032Y-106848089D01*
X125387867Y-107022133D01*
X125561911Y-107164968D01*
X125760477Y-107271103D01*
X125975933Y-107336461D01*
X126200000Y-107358530D01*
X127800000Y-107358530D01*
X128024067Y-107336461D01*
X128239523Y-107271103D01*
X128316485Y-107229966D01*
X128433248Y-107278331D01*
X128808631Y-107353000D01*
X129191369Y-107353000D01*
X129566752Y-107278331D01*
X129920355Y-107131864D01*
X130238590Y-106919226D01*
X130509226Y-106648590D01*
X130721864Y-106330355D01*
X130868331Y-105976752D01*
X130943000Y-105601369D01*
X130943000Y-105218631D01*
X135757000Y-105218631D01*
X135757000Y-105601369D01*
X135831669Y-105976752D01*
X135978136Y-106330355D01*
X136190774Y-106648590D01*
X136461410Y-106919226D01*
X136779645Y-107131864D01*
X137133248Y-107278331D01*
X137508631Y-107353000D01*
X137891369Y-107353000D01*
X138266752Y-107278331D01*
X138383515Y-107229966D01*
X138460477Y-107271103D01*
X138675933Y-107336461D01*
X138900000Y-107358530D01*
X140500000Y-107358530D01*
X140724067Y-107336461D01*
X140939523Y-107271103D01*
X141138089Y-107164968D01*
X141312133Y-107022133D01*
X141454968Y-106848089D01*
X141561103Y-106649523D01*
X141626461Y-106434067D01*
X141648530Y-106210000D01*
X141648530Y-104610000D01*
X141626461Y-104385933D01*
X141561103Y-104170477D01*
X141454968Y-103971911D01*
X141443946Y-103958480D01*
X141667000Y-103958480D01*
X141667000Y-104321520D01*
X141737826Y-104677583D01*
X141876755Y-105012988D01*
X142078449Y-105314844D01*
X142173605Y-105410000D01*
X142078449Y-105505156D01*
X141876755Y-105807012D01*
X141737826Y-106142417D01*
X141667000Y-106498480D01*
X141667000Y-106861520D01*
X141737826Y-107217583D01*
X141876755Y-107552988D01*
X142078449Y-107854844D01*
X142335156Y-108111551D01*
X142637012Y-108313245D01*
X142972417Y-108452174D01*
X143328480Y-108523000D01*
X143691520Y-108523000D01*
X144047583Y-108452174D01*
X144382988Y-108313245D01*
X144684844Y-108111551D01*
X144941551Y-107854844D01*
X145143245Y-107552988D01*
X145282174Y-107217583D01*
X145353000Y-106861520D01*
X145353000Y-106498480D01*
X145282174Y-106142417D01*
X145143245Y-105807012D01*
X144941551Y-105505156D01*
X144846395Y-105410000D01*
X144941551Y-105314844D01*
X145143245Y-105012988D01*
X145282174Y-104677583D01*
X145353000Y-104321520D01*
X145353000Y-103958480D01*
X146747000Y-103958480D01*
X146747000Y-104321520D01*
X146817826Y-104677583D01*
X146956755Y-105012988D01*
X147158449Y-105314844D01*
X147253605Y-105410000D01*
X147158449Y-105505156D01*
X146956755Y-105807012D01*
X146817826Y-106142417D01*
X146747000Y-106498480D01*
X146747000Y-106861520D01*
X146817826Y-107217583D01*
X146956755Y-107552988D01*
X147158449Y-107854844D01*
X147415156Y-108111551D01*
X147717012Y-108313245D01*
X148052417Y-108452174D01*
X148408480Y-108523000D01*
X148771520Y-108523000D01*
X149127583Y-108452174D01*
X149462988Y-108313245D01*
X149751764Y-108120291D01*
X149859537Y-108228064D01*
X150185961Y-108446173D01*
X150455790Y-108557940D01*
X150162277Y-108679517D01*
X149827664Y-108903098D01*
X149543098Y-109187664D01*
X149319517Y-109522277D01*
X149165512Y-109894079D01*
X149087000Y-110288782D01*
X149087000Y-110691218D01*
X149165512Y-111085921D01*
X149319517Y-111457723D01*
X149543098Y-111792336D01*
X149639587Y-111888825D01*
X149604188Y-112005518D01*
X149591928Y-112130000D01*
X149595000Y-112744250D01*
X149753750Y-112903000D01*
X151003000Y-112903000D01*
X151003000Y-112883000D01*
X151257000Y-112883000D01*
X151257000Y-112903000D01*
X152506250Y-112903000D01*
X152665000Y-112744250D01*
X152668072Y-112130000D01*
X152655812Y-112005518D01*
X152620413Y-111888825D01*
X152716902Y-111792336D01*
X152940483Y-111457723D01*
X153094488Y-111085921D01*
X153173000Y-110691218D01*
X153173000Y-110288782D01*
X153094488Y-109894079D01*
X152940483Y-109522277D01*
X152716902Y-109187664D01*
X152432336Y-108903098D01*
X152097723Y-108679517D01*
X151804210Y-108557940D01*
X152074039Y-108446173D01*
X152400463Y-108228064D01*
X152678064Y-107950463D01*
X152896173Y-107624039D01*
X153046410Y-107261337D01*
X153123000Y-106876293D01*
X153123000Y-106483707D01*
X153046410Y-106098663D01*
X152896173Y-105735961D01*
X152678064Y-105409537D01*
X152400463Y-105131936D01*
X152074039Y-104913827D01*
X151711337Y-104763590D01*
X151326293Y-104687000D01*
X150933707Y-104687000D01*
X150548663Y-104763590D01*
X150280547Y-104874648D01*
X150362174Y-104677583D01*
X150433000Y-104321520D01*
X150433000Y-103958480D01*
X150362174Y-103602417D01*
X150223245Y-103267012D01*
X150021551Y-102965156D01*
X149764844Y-102708449D01*
X149462988Y-102506755D01*
X149127583Y-102367826D01*
X148771520Y-102297000D01*
X148408480Y-102297000D01*
X148052417Y-102367826D01*
X147717012Y-102506755D01*
X147415156Y-102708449D01*
X147158449Y-102965156D01*
X146956755Y-103267012D01*
X146817826Y-103602417D01*
X146747000Y-103958480D01*
X145353000Y-103958480D01*
X145282174Y-103602417D01*
X145143245Y-103267012D01*
X144941551Y-102965156D01*
X144684844Y-102708449D01*
X144382988Y-102506755D01*
X144047583Y-102367826D01*
X143691520Y-102297000D01*
X143328480Y-102297000D01*
X142972417Y-102367826D01*
X142637012Y-102506755D01*
X142335156Y-102708449D01*
X142078449Y-102965156D01*
X141876755Y-103267012D01*
X141737826Y-103602417D01*
X141667000Y-103958480D01*
X141443946Y-103958480D01*
X141312133Y-103797867D01*
X141138089Y-103655032D01*
X140939523Y-103548897D01*
X140724067Y-103483539D01*
X140500000Y-103461470D01*
X138900000Y-103461470D01*
X138675933Y-103483539D01*
X138460477Y-103548897D01*
X138383515Y-103590034D01*
X138266752Y-103541669D01*
X137891369Y-103467000D01*
X137508631Y-103467000D01*
X137133248Y-103541669D01*
X136779645Y-103688136D01*
X136461410Y-103900774D01*
X136190774Y-104171410D01*
X135978136Y-104489645D01*
X135831669Y-104843248D01*
X135757000Y-105218631D01*
X130943000Y-105218631D01*
X130868331Y-104843248D01*
X130721864Y-104489645D01*
X130509226Y-104171410D01*
X130238590Y-103900774D01*
X129920355Y-103688136D01*
X129566752Y-103541669D01*
X129191369Y-103467000D01*
X128808631Y-103467000D01*
X128433248Y-103541669D01*
X128316485Y-103590034D01*
X128239523Y-103548897D01*
X128024067Y-103483539D01*
X127800000Y-103461470D01*
X126200000Y-103461470D01*
X125975933Y-103483539D01*
X125760477Y-103548897D01*
X125561911Y-103655032D01*
X125387867Y-103797867D01*
X125245032Y-103971911D01*
X125138897Y-104170477D01*
X125073539Y-104385933D01*
X125051470Y-104610000D01*
X124975617Y-104610000D01*
X125033000Y-104321520D01*
X125033000Y-103958480D01*
X124962174Y-103602417D01*
X124823245Y-103267012D01*
X124621551Y-102965156D01*
X124364844Y-102708449D01*
X124062988Y-102506755D01*
X123727583Y-102367826D01*
X123371520Y-102297000D01*
X123008480Y-102297000D01*
X122652417Y-102367826D01*
X122317012Y-102506755D01*
X122015156Y-102708449D01*
X121758449Y-102965156D01*
X121556755Y-103267012D01*
X121417826Y-103602417D01*
X121347000Y-103958480D01*
X119953000Y-103958480D01*
X119882174Y-103602417D01*
X119743245Y-103267012D01*
X119541551Y-102965156D01*
X119284844Y-102708449D01*
X118982988Y-102506755D01*
X118647583Y-102367826D01*
X118291520Y-102297000D01*
X117928480Y-102297000D01*
X117572417Y-102367826D01*
X117237012Y-102506755D01*
X116935156Y-102708449D01*
X116678449Y-102965156D01*
X116476755Y-103267012D01*
X116337826Y-103602417D01*
X116267000Y-103958480D01*
X116267000Y-104321520D01*
X116337826Y-104677583D01*
X116419453Y-104874648D01*
X116151337Y-104763590D01*
X115766293Y-104687000D01*
X115373707Y-104687000D01*
X114988663Y-104763590D01*
X114625961Y-104913827D01*
X114299537Y-105131936D01*
X114021936Y-105409537D01*
X113803827Y-105735961D01*
X113653590Y-106098663D01*
X113577000Y-106483707D01*
X113577000Y-106876293D01*
X113653590Y-107261337D01*
X113803827Y-107624039D01*
X114021936Y-107950463D01*
X114299537Y-108228064D01*
X114625961Y-108446173D01*
X114895790Y-108557940D01*
X114602277Y-108679517D01*
X114267664Y-108903098D01*
X113983098Y-109187664D01*
X113759517Y-109522277D01*
X113605512Y-109894079D01*
X113527000Y-110288782D01*
X113411000Y-110288782D01*
X113411000Y-98784310D01*
X118297000Y-98784310D01*
X118297000Y-99255690D01*
X118388961Y-99718012D01*
X118569351Y-100153511D01*
X118831235Y-100545449D01*
X119164551Y-100878765D01*
X119556489Y-101140649D01*
X119991988Y-101321039D01*
X120454310Y-101413000D01*
X120925690Y-101413000D01*
X121388012Y-101321039D01*
X121823511Y-101140649D01*
X122215449Y-100878765D01*
X122548765Y-100545449D01*
X122810649Y-100153511D01*
X122812732Y-100148480D01*
X127697000Y-100148480D01*
X127697000Y-100511520D01*
X127767826Y-100867583D01*
X127906755Y-101202988D01*
X128108449Y-101504844D01*
X128365156Y-101761551D01*
X128667012Y-101963245D01*
X129002417Y-102102174D01*
X129358480Y-102173000D01*
X129721520Y-102173000D01*
X130077583Y-102102174D01*
X130412988Y-101963245D01*
X130714844Y-101761551D01*
X130971551Y-101504844D01*
X131173245Y-101202988D01*
X131312174Y-100867583D01*
X131383000Y-100511520D01*
X131383000Y-100148480D01*
X135317000Y-100148480D01*
X135317000Y-100511520D01*
X135387826Y-100867583D01*
X135526755Y-101202988D01*
X135728449Y-101504844D01*
X135985156Y-101761551D01*
X136287012Y-101963245D01*
X136622417Y-102102174D01*
X136978480Y-102173000D01*
X137341520Y-102173000D01*
X137697583Y-102102174D01*
X138032988Y-101963245D01*
X138334844Y-101761551D01*
X138591551Y-101504844D01*
X138793245Y-101202988D01*
X138932174Y-100867583D01*
X139003000Y-100511520D01*
X139003000Y-100148480D01*
X138932174Y-99792417D01*
X138793245Y-99457012D01*
X138591551Y-99155156D01*
X138334844Y-98898449D01*
X138164024Y-98784310D01*
X143697000Y-98784310D01*
X143697000Y-99255690D01*
X143788961Y-99718012D01*
X143969351Y-100153511D01*
X144231235Y-100545449D01*
X144564551Y-100878765D01*
X144956489Y-101140649D01*
X145391988Y-101321039D01*
X145854310Y-101413000D01*
X146325690Y-101413000D01*
X146788012Y-101321039D01*
X147223511Y-101140649D01*
X147615449Y-100878765D01*
X147948765Y-100545449D01*
X148210649Y-100153511D01*
X148391039Y-99718012D01*
X148483000Y-99255690D01*
X148483000Y-98784310D01*
X148391039Y-98321988D01*
X148210649Y-97886489D01*
X147948765Y-97494551D01*
X147615449Y-97161235D01*
X147223511Y-96899351D01*
X146788012Y-96718961D01*
X146325690Y-96627000D01*
X145854310Y-96627000D01*
X145391988Y-96718961D01*
X144956489Y-96899351D01*
X144564551Y-97161235D01*
X144231235Y-97494551D01*
X143969351Y-97886489D01*
X143788961Y-98321988D01*
X143697000Y-98784310D01*
X138164024Y-98784310D01*
X138032988Y-98696755D01*
X137697583Y-98557826D01*
X137341520Y-98487000D01*
X136978480Y-98487000D01*
X136622417Y-98557826D01*
X136287012Y-98696755D01*
X135985156Y-98898449D01*
X135728449Y-99155156D01*
X135526755Y-99457012D01*
X135387826Y-99792417D01*
X135317000Y-100148480D01*
X131383000Y-100148480D01*
X131312174Y-99792417D01*
X131173245Y-99457012D01*
X130971551Y-99155156D01*
X130714844Y-98898449D01*
X130412988Y-98696755D01*
X130077583Y-98557826D01*
X129721520Y-98487000D01*
X129358480Y-98487000D01*
X129002417Y-98557826D01*
X128667012Y-98696755D01*
X128365156Y-98898449D01*
X128108449Y-99155156D01*
X127906755Y-99457012D01*
X127767826Y-99792417D01*
X127697000Y-100148480D01*
X122812732Y-100148480D01*
X122991039Y-99718012D01*
X123083000Y-99255690D01*
X123083000Y-98784310D01*
X122991039Y-98321988D01*
X122810649Y-97886489D01*
X122548765Y-97494551D01*
X122215449Y-97161235D01*
X121823511Y-96899351D01*
X121388012Y-96718961D01*
X120925690Y-96627000D01*
X120454310Y-96627000D01*
X119991988Y-96718961D01*
X119556489Y-96899351D01*
X119164551Y-97161235D01*
X118831235Y-97494551D01*
X118569351Y-97886489D01*
X118388961Y-98321988D01*
X118297000Y-98784310D01*
X113411000Y-98784310D01*
X113411000Y-93744310D01*
X115797000Y-93744310D01*
X115797000Y-94215690D01*
X115888961Y-94678012D01*
X116069351Y-95113511D01*
X116331235Y-95505449D01*
X116664551Y-95838765D01*
X117056489Y-96100649D01*
X117491988Y-96281039D01*
X117954310Y-96373000D01*
X118425690Y-96373000D01*
X118888012Y-96281039D01*
X119323511Y-96100649D01*
X119715449Y-95838765D01*
X120048765Y-95505449D01*
X120310649Y-95113511D01*
X120491039Y-94678012D01*
X120583000Y-94215690D01*
X120583000Y-93744310D01*
X120797000Y-93744310D01*
X120797000Y-94215690D01*
X120888961Y-94678012D01*
X121069351Y-95113511D01*
X121331235Y-95505449D01*
X121664551Y-95838765D01*
X122056489Y-96100649D01*
X122491988Y-96281039D01*
X122954310Y-96373000D01*
X123425690Y-96373000D01*
X123888012Y-96281039D01*
X124323511Y-96100649D01*
X124715449Y-95838765D01*
X125048765Y-95505449D01*
X125310649Y-95113511D01*
X125329301Y-95068480D01*
X127697000Y-95068480D01*
X127697000Y-95431520D01*
X127767826Y-95787583D01*
X127906755Y-96122988D01*
X128108449Y-96424844D01*
X128365156Y-96681551D01*
X128667012Y-96883245D01*
X129002417Y-97022174D01*
X129358480Y-97093000D01*
X129721520Y-97093000D01*
X130077583Y-97022174D01*
X130412988Y-96883245D01*
X130714844Y-96681551D01*
X130971551Y-96424844D01*
X131173245Y-96122988D01*
X131312174Y-95787583D01*
X131383000Y-95431520D01*
X131383000Y-95068480D01*
X135317000Y-95068480D01*
X135317000Y-95431520D01*
X135387826Y-95787583D01*
X135526755Y-96122988D01*
X135728449Y-96424844D01*
X135985156Y-96681551D01*
X136287012Y-96883245D01*
X136622417Y-97022174D01*
X136978480Y-97093000D01*
X137341520Y-97093000D01*
X137697583Y-97022174D01*
X138032988Y-96883245D01*
X138334844Y-96681551D01*
X138591551Y-96424844D01*
X138793245Y-96122988D01*
X138932174Y-95787583D01*
X139003000Y-95431520D01*
X139003000Y-95068480D01*
X138932174Y-94712417D01*
X138793245Y-94377012D01*
X138591551Y-94075156D01*
X138334844Y-93818449D01*
X138223888Y-93744310D01*
X141197000Y-93744310D01*
X141197000Y-94215690D01*
X141288961Y-94678012D01*
X141469351Y-95113511D01*
X141731235Y-95505449D01*
X142064551Y-95838765D01*
X142456489Y-96100649D01*
X142891988Y-96281039D01*
X143354310Y-96373000D01*
X143825690Y-96373000D01*
X144288012Y-96281039D01*
X144723511Y-96100649D01*
X145115449Y-95838765D01*
X145448765Y-95505449D01*
X145710649Y-95113511D01*
X145891039Y-94678012D01*
X145983000Y-94215690D01*
X145983000Y-93744310D01*
X146197000Y-93744310D01*
X146197000Y-94215690D01*
X146288961Y-94678012D01*
X146469351Y-95113511D01*
X146731235Y-95505449D01*
X147064551Y-95838765D01*
X147456489Y-96100649D01*
X147891988Y-96281039D01*
X148354310Y-96373000D01*
X148825690Y-96373000D01*
X149288012Y-96281039D01*
X149723511Y-96100649D01*
X150115449Y-95838765D01*
X150448765Y-95505449D01*
X150710649Y-95113511D01*
X150891039Y-94678012D01*
X150983000Y-94215690D01*
X150983000Y-93744310D01*
X150891039Y-93281988D01*
X150710649Y-92846489D01*
X150448765Y-92454551D01*
X150115449Y-92121235D01*
X149723511Y-91859351D01*
X149288012Y-91678961D01*
X148825690Y-91587000D01*
X148354310Y-91587000D01*
X147891988Y-91678961D01*
X147456489Y-91859351D01*
X147064551Y-92121235D01*
X146731235Y-92454551D01*
X146469351Y-92846489D01*
X146288961Y-93281988D01*
X146197000Y-93744310D01*
X145983000Y-93744310D01*
X145891039Y-93281988D01*
X145710649Y-92846489D01*
X145448765Y-92454551D01*
X145115449Y-92121235D01*
X144723511Y-91859351D01*
X144288012Y-91678961D01*
X143825690Y-91587000D01*
X143354310Y-91587000D01*
X142891988Y-91678961D01*
X142456489Y-91859351D01*
X142064551Y-92121235D01*
X141731235Y-92454551D01*
X141469351Y-92846489D01*
X141288961Y-93281988D01*
X141197000Y-93744310D01*
X138223888Y-93744310D01*
X138032988Y-93616755D01*
X137697583Y-93477826D01*
X137341520Y-93407000D01*
X136978480Y-93407000D01*
X136622417Y-93477826D01*
X136287012Y-93616755D01*
X135985156Y-93818449D01*
X135728449Y-94075156D01*
X135526755Y-94377012D01*
X135387826Y-94712417D01*
X135317000Y-95068480D01*
X131383000Y-95068480D01*
X131312174Y-94712417D01*
X131173245Y-94377012D01*
X130971551Y-94075156D01*
X130714844Y-93818449D01*
X130412988Y-93616755D01*
X130077583Y-93477826D01*
X129721520Y-93407000D01*
X129358480Y-93407000D01*
X129002417Y-93477826D01*
X128667012Y-93616755D01*
X128365156Y-93818449D01*
X128108449Y-94075156D01*
X127906755Y-94377012D01*
X127767826Y-94712417D01*
X127697000Y-95068480D01*
X125329301Y-95068480D01*
X125491039Y-94678012D01*
X125583000Y-94215690D01*
X125583000Y-93744310D01*
X125491039Y-93281988D01*
X125310649Y-92846489D01*
X125048765Y-92454551D01*
X124715449Y-92121235D01*
X124323511Y-91859351D01*
X123888012Y-91678961D01*
X123425690Y-91587000D01*
X122954310Y-91587000D01*
X122491988Y-91678961D01*
X122056489Y-91859351D01*
X121664551Y-92121235D01*
X121331235Y-92454551D01*
X121069351Y-92846489D01*
X120888961Y-93281988D01*
X120797000Y-93744310D01*
X120583000Y-93744310D01*
X120491039Y-93281988D01*
X120310649Y-92846489D01*
X120048765Y-92454551D01*
X119715449Y-92121235D01*
X119323511Y-91859351D01*
X118888012Y-91678961D01*
X118425690Y-91587000D01*
X117954310Y-91587000D01*
X117491988Y-91678961D01*
X117056489Y-91859351D01*
X116664551Y-92121235D01*
X116331235Y-92454551D01*
X116069351Y-92846489D01*
X115888961Y-93281988D01*
X115797000Y-93744310D01*
X113411000Y-93744310D01*
X113411000Y-90780890D01*
X114128524Y-90780890D01*
X114173175Y-90928099D01*
X114298359Y-91190920D01*
X114472412Y-91424269D01*
X114688645Y-91619178D01*
X114938748Y-91768157D01*
X115213109Y-91865481D01*
X115443000Y-91744814D01*
X115443000Y-90551000D01*
X115697000Y-90551000D01*
X115697000Y-91744814D01*
X115926891Y-91865481D01*
X116201252Y-91768157D01*
X116451355Y-91619178D01*
X116667588Y-91424269D01*
X116841641Y-91190920D01*
X116966825Y-90928099D01*
X117011476Y-90780890D01*
X116890155Y-90551000D01*
X115697000Y-90551000D01*
X115443000Y-90551000D01*
X114249845Y-90551000D01*
X114128524Y-90780890D01*
X113411000Y-90780890D01*
X113411000Y-78359000D01*
X114269059Y-78359000D01*
X114081911Y-78459032D01*
G37*
G04 #@! TD.AperFunction*
G04 #@! TD*
M02*
