M48
INCH,TZ
T1C0.0276
T2C0.0295
T3C0.0315
T4C0.0354
T5C0.0394
T6C0.0472
%
G90
G05
T1
X49211Y-17986
X50950Y-17650
X51090Y-18670
X51800Y-18950
X52829Y-18334
X53679Y-19634
X57316Y-18061
X58000Y-19940
X58800Y-17950
X59484Y-19829
X59600Y-17650
X60284Y-19529
T2
X45694Y-26027
X46147Y-26239
X46600Y-26450
X51000Y-28150
X51453Y-28361
X51906Y-28573
T3
X47800Y-24150
X48540Y-24419
X49950Y-25250
X50690Y-25519
T4
X54750Y-13600
X54750Y-14600
X57750Y-13600
X57750Y-14600
T5
X66645Y-49100
X69300Y-43800
X70300Y-43800
X71300Y-43800
X72300Y-43800
X73300Y-43800
X74519Y-49100
T6
X47495Y-21116
X49200Y-22100
X49340Y-19889
X61693Y-18351
X62400Y-20450
X63792Y-19058
T0
M30
