G04 #@! TF.GenerationSoftware,KiCad,Pcbnew,(5.1.9)-1*
G04 #@! TF.CreationDate,2021-10-05T22:25:52-05:00*
G04 #@! TF.ProjectId,astable_badge,61737461-626c-4655-9f62-616467652e6b,1*
G04 #@! TF.SameCoordinates,Original*
G04 #@! TF.FileFunction,Soldermask,Bot*
G04 #@! TF.FilePolarity,Negative*
%FSLAX46Y46*%
G04 Gerber Fmt 4.6, Leading zero omitted, Abs format (unit mm)*
G04 Created by KiCad (PCBNEW (5.1.9)-1) date 2021-10-05 22:25:52*
%MOMM*%
%LPD*%
G01*
G04 APERTURE LIST*
%ADD10R,1.700000X1.700000*%
%ADD11C,1.700000*%
%ADD12C,0.100000*%
%ADD13C,1.600000*%
%ADD14C,1.800000*%
%ADD15R,1.800000X1.800000*%
%ADD16C,1.400000*%
%ADD17C,2.500000*%
%ADD18O,1.700000X1.700000*%
G04 APERTURE END LIST*
D10*
X169278000Y-124714000D03*
D11*
X189278000Y-124714000D03*
D12*
G36*
X120386630Y-61819138D02*
G01*
X120933862Y-60315630D01*
X122437370Y-60862862D01*
X121890138Y-62366370D01*
X120386630Y-61819138D01*
G37*
D13*
X123291385Y-62025040D03*
X128752385Y-64819040D03*
D12*
G36*
X125847630Y-64613138D02*
G01*
X126394862Y-63109630D01*
X127898370Y-63656862D01*
X127351138Y-65160370D01*
X125847630Y-64613138D01*
G37*
D14*
X139065000Y-34544000D03*
D15*
X139065000Y-37084000D03*
X146685000Y-37084000D03*
D14*
X146685000Y-34544000D03*
G36*
G01*
X116642088Y-66628319D02*
X116832266Y-66220481D01*
G75*
G02*
X117529953Y-65966544I475812J-221875D01*
G01*
X117529953Y-65966544D01*
G75*
G02*
X117783890Y-66664231I-221875J-475812D01*
G01*
X117593712Y-67072069D01*
G75*
G02*
X116896025Y-67326006I-475812J221875D01*
G01*
X116896025Y-67326006D01*
G75*
G02*
X116642088Y-66628319I221875J475812D01*
G01*
G37*
G36*
G01*
X117793099Y-67165044D02*
X117983277Y-66757206D01*
G75*
G02*
X118680964Y-66503269I475812J-221875D01*
G01*
X118680964Y-66503269D01*
G75*
G02*
X118934901Y-67200956I-221875J-475812D01*
G01*
X118744723Y-67608794D01*
G75*
G02*
X118047036Y-67862731I-475812J221875D01*
G01*
X118047036Y-67862731D01*
G75*
G02*
X117793099Y-67165044I221875J475812D01*
G01*
G37*
D12*
G36*
X115269203Y-66567406D02*
G01*
X115903130Y-65207945D01*
X116854753Y-65651694D01*
X116220826Y-67011155D01*
X115269203Y-66567406D01*
G37*
G36*
X128747225Y-71958856D02*
G01*
X129381152Y-70599395D01*
X130332775Y-71043144D01*
X129698848Y-72402605D01*
X128747225Y-71958856D01*
G37*
G36*
G01*
X131271121Y-72556494D02*
X131461299Y-72148656D01*
G75*
G02*
X132158986Y-71894719I475812J-221875D01*
G01*
X132158986Y-71894719D01*
G75*
G02*
X132412923Y-72592406I-221875J-475812D01*
G01*
X132222745Y-73000244D01*
G75*
G02*
X131525058Y-73254181I-475812J221875D01*
G01*
X131525058Y-73254181D01*
G75*
G02*
X131271121Y-72556494I221875J475812D01*
G01*
G37*
G36*
G01*
X130120110Y-72019769D02*
X130310288Y-71611931D01*
G75*
G02*
X131007975Y-71357994I475812J-221875D01*
G01*
X131007975Y-71357994D01*
G75*
G02*
X131261912Y-72055681I-221875J-475812D01*
G01*
X131071734Y-72463519D01*
G75*
G02*
X130374047Y-72717456I-475812J221875D01*
G01*
X130374047Y-72717456D01*
G75*
G02*
X130120110Y-72019769I221875J475812D01*
G01*
G37*
G36*
G01*
X125652746Y-45923752D02*
X125652746Y-45923752D01*
G75*
G02*
X124755547Y-46342123I-657785J239414D01*
G01*
X124755547Y-46342123D01*
G75*
G02*
X124337176Y-45444924I239414J657785D01*
G01*
X124337176Y-45444924D01*
G75*
G02*
X125234375Y-45026553I657785J-239414D01*
G01*
X125234375Y-45026553D01*
G75*
G02*
X125652746Y-45923752I-239414J-657785D01*
G01*
G37*
D16*
X129768600Y-47421800D03*
X151384000Y-44831000D03*
G36*
G01*
X152882048Y-48946854D02*
X152882048Y-48946854D01*
G75*
G02*
X153779247Y-49365225I239414J-657785D01*
G01*
X153779247Y-49365225D01*
G75*
G02*
X153360876Y-50262424I-657785J-239414D01*
G01*
X153360876Y-50262424D01*
G75*
G02*
X152463677Y-49844053I-239414J657785D01*
G01*
X152463677Y-49844053D01*
G75*
G02*
X152882048Y-48946854I657785J239414D01*
G01*
G37*
X131572000Y-48133000D03*
G36*
G01*
X135687854Y-49631048D02*
X135687854Y-49631048D01*
G75*
G02*
X136585053Y-49212677I657785J-239414D01*
G01*
X136585053Y-49212677D01*
G75*
G02*
X137003424Y-50109876I-239414J-657785D01*
G01*
X137003424Y-50109876D01*
G75*
G02*
X136106225Y-50528247I-657785J239414D01*
G01*
X136106225Y-50528247D01*
G75*
G02*
X135687854Y-49631048I239414J657785D01*
G01*
G37*
G36*
G01*
X150850048Y-49708854D02*
X150850048Y-49708854D01*
G75*
G02*
X151747247Y-50127225I239414J-657785D01*
G01*
X151747247Y-50127225D01*
G75*
G02*
X151328876Y-51024424I-657785J-239414D01*
G01*
X151328876Y-51024424D01*
G75*
G02*
X150431677Y-50606053I-239414J657785D01*
G01*
X150431677Y-50606053D01*
G75*
G02*
X150850048Y-49708854I657785J239414D01*
G01*
G37*
X149352000Y-45593000D03*
X129413000Y-44831000D03*
G36*
G01*
X133528854Y-46329048D02*
X133528854Y-46329048D01*
G75*
G02*
X134426053Y-45910677I657785J-239414D01*
G01*
X134426053Y-45910677D01*
G75*
G02*
X134844424Y-46807876I-239414J-657785D01*
G01*
X134844424Y-46807876D01*
G75*
G02*
X133947225Y-47226247I-657785J239414D01*
G01*
X133947225Y-47226247D01*
G75*
G02*
X133528854Y-46329048I239414J657785D01*
G01*
G37*
G36*
G01*
X145821952Y-46531746D02*
X145821952Y-46531746D01*
G75*
G02*
X144924753Y-46113375I-239414J657785D01*
G01*
X144924753Y-46113375D01*
G75*
G02*
X145343124Y-45216176I657785J239414D01*
G01*
X145343124Y-45216176D01*
G75*
G02*
X146240323Y-45634547I239414J-657785D01*
G01*
X146240323Y-45634547D01*
G75*
G02*
X145821952Y-46531746I-657785J-239414D01*
G01*
G37*
X147320000Y-50647600D03*
D17*
X120637873Y-53634000D03*
X124968000Y-56134000D03*
X125322937Y-50519232D03*
X156699949Y-46611415D03*
X162031534Y-48407466D03*
X158496000Y-51943000D03*
D18*
X186182000Y-111252000D03*
X183642000Y-111252000D03*
X181102000Y-111252000D03*
X178562000Y-111252000D03*
D10*
X176022000Y-111252000D03*
M02*
