G04 #@! TF.GenerationSoftware,KiCad,Pcbnew,(5.1.9)-1*
G04 #@! TF.CreationDate,2021-10-05T22:25:52-05:00*
G04 #@! TF.ProjectId,astable_badge,61737461-626c-4655-9f62-616467652e6b,1*
G04 #@! TF.SameCoordinates,Original*
G04 #@! TF.FileFunction,Profile,NP*
%FSLAX46Y46*%
G04 Gerber Fmt 4.6, Leading zero omitted, Abs format (unit mm)*
G04 Created by KiCad (PCBNEW (5.1.9)-1) date 2021-10-05 22:25:52*
%MOMM*%
%LPD*%
G01*
G04 APERTURE LIST*
G04 #@! TA.AperFunction,Profile*
%ADD10C,0.050000*%
G04 #@! TD*
G04 APERTURE END LIST*
D10*
X108204000Y-81534000D02*
X107950000Y-86868000D01*
X107950000Y-77978000D02*
X108204000Y-81534000D01*
X106680000Y-72898000D02*
X107950000Y-77978000D01*
X106172000Y-71374000D02*
X106680000Y-72898000D01*
X105918000Y-69342000D02*
X106172000Y-71374000D01*
X105918000Y-66802000D02*
X105918000Y-69342000D01*
X106172000Y-65278000D02*
X105918000Y-66802000D01*
X106680000Y-63754000D02*
X106172000Y-65278000D01*
X107442000Y-61976000D02*
X106680000Y-63754000D01*
X108204000Y-60452000D02*
X107442000Y-61976000D01*
X134366000Y-21082000D02*
X133096000Y-22352000D01*
X135382000Y-20320000D02*
X134366000Y-21082000D01*
X136398000Y-19812000D02*
X135382000Y-20320000D01*
X137160000Y-19558000D02*
X136398000Y-19812000D01*
X148590000Y-20828000D02*
X149860000Y-22352000D01*
X147574000Y-20066000D02*
X148590000Y-20828000D01*
X145796000Y-19558000D02*
X147574000Y-20066000D01*
X137160000Y-19558000D02*
X145796000Y-19558000D01*
X126492000Y-36576000D02*
X124714000Y-37592000D01*
X127762000Y-35560000D02*
X126492000Y-36576000D01*
X129032000Y-33528000D02*
X127762000Y-35560000D01*
X132080000Y-23368000D02*
X133096000Y-22352000D01*
X131572000Y-24130000D02*
X132080000Y-23368000D01*
X130556000Y-26416000D02*
X131572000Y-24130000D01*
X130048000Y-28448000D02*
X130556000Y-26416000D01*
X129794000Y-31496000D02*
X130048000Y-28448000D01*
X129286000Y-33020000D02*
X129794000Y-31496000D01*
X129032000Y-33528000D02*
X129286000Y-33020000D01*
X113538000Y-43434000D02*
X114808000Y-41910000D01*
X113030000Y-45212000D02*
X113538000Y-43434000D01*
X113284000Y-47752000D02*
X113030000Y-45212000D01*
X112776000Y-49022000D02*
X113284000Y-47752000D01*
X111506000Y-51308000D02*
X112776000Y-49022000D01*
X110998000Y-52832000D02*
X111506000Y-51308000D01*
X110744000Y-56134000D02*
X110998000Y-52832000D01*
X110236000Y-57404000D02*
X110744000Y-56134000D01*
X108204000Y-60452000D02*
X110236000Y-57404000D01*
X176022000Y-156718000D02*
X173990000Y-157480000D01*
X178054000Y-155194000D02*
X176022000Y-156718000D01*
X180086000Y-152908000D02*
X178054000Y-155194000D01*
X181610000Y-150368000D02*
X180086000Y-152908000D01*
X182118000Y-147066000D02*
X181610000Y-150368000D01*
X182118000Y-143510000D02*
X182118000Y-147066000D01*
X182880000Y-141986000D02*
X182118000Y-143510000D01*
X183896000Y-140970000D02*
X182880000Y-141986000D01*
X186944000Y-140208000D02*
X183896000Y-140970000D01*
X189484000Y-139192000D02*
X186944000Y-140208000D01*
X192024000Y-137414000D02*
X189484000Y-139192000D01*
X193802000Y-135382000D02*
X192024000Y-137414000D01*
X195580000Y-132334000D02*
X193802000Y-135382000D01*
X196596000Y-129540000D02*
X195580000Y-132334000D01*
X197358000Y-124968000D02*
X196596000Y-129540000D01*
X197358000Y-122936000D02*
X197358000Y-124968000D01*
X196596000Y-119888000D02*
X197358000Y-122936000D01*
X195580000Y-117348000D02*
X196596000Y-119888000D01*
X194310000Y-115316000D02*
X195580000Y-117348000D01*
X192786000Y-113792000D02*
X194310000Y-115316000D01*
X192278000Y-112776000D02*
X192786000Y-113792000D01*
X192278000Y-111760000D02*
X192278000Y-112776000D01*
X192786000Y-110744000D02*
X192278000Y-111760000D01*
X194818000Y-109474000D02*
X192786000Y-110744000D01*
X196596000Y-107696000D02*
X194818000Y-109474000D01*
X197866000Y-105664000D02*
X196596000Y-107696000D01*
X198374000Y-103378000D02*
X197866000Y-105664000D01*
X198374000Y-87884000D02*
X198374000Y-103378000D01*
X196850000Y-79375000D02*
X198374000Y-87884000D01*
X105664000Y-157480000D02*
X173990000Y-157480000D01*
X102108000Y-156718000D02*
X105664000Y-157480000D01*
X98044000Y-155194000D02*
X102108000Y-156718000D01*
X94742000Y-152654000D02*
X98044000Y-155194000D01*
X92710000Y-149860000D02*
X94742000Y-152654000D01*
X91186000Y-146050000D02*
X92710000Y-149860000D01*
X90170000Y-140716000D02*
X91186000Y-146050000D01*
X90170000Y-131064000D02*
X90170000Y-140716000D01*
X152146000Y-26416000D02*
X152654000Y-28194000D01*
X150876000Y-23876000D02*
X152146000Y-26416000D01*
X149860000Y-22352000D02*
X150876000Y-23876000D01*
X152654000Y-28194000D02*
X152908000Y-30226000D01*
X137668000Y-21844000D02*
X137668000Y-25654000D01*
X145288000Y-21844000D02*
X137668000Y-21844000D01*
X145288000Y-25654000D02*
X145288000Y-21844000D01*
X137668000Y-25654000D02*
X145288000Y-25654000D01*
X196088000Y-75438000D02*
X196850000Y-79375000D01*
X194056000Y-71628000D02*
X196088000Y-75438000D01*
X189484000Y-65532000D02*
X194056000Y-71628000D01*
X182626000Y-60198000D02*
X189484000Y-65532000D01*
X177038000Y-57912000D02*
X182626000Y-60198000D01*
X171704000Y-54102000D02*
X177038000Y-57912000D01*
X170942000Y-52832000D02*
X171704000Y-54102000D01*
X170434000Y-49022000D02*
X170942000Y-52832000D01*
X169926000Y-45974000D02*
X170434000Y-49022000D01*
X168910000Y-43688000D02*
X169926000Y-45974000D01*
X167132000Y-41656000D02*
X168910000Y-43688000D01*
X163576000Y-39370000D02*
X167132000Y-41656000D01*
X160782000Y-38354000D02*
X163576000Y-39370000D01*
X156464000Y-38100000D02*
X160782000Y-38354000D01*
X154432000Y-37338000D02*
X156464000Y-38100000D01*
X154178000Y-35306000D02*
X154432000Y-37338000D01*
X152908000Y-30226000D02*
X154178000Y-35306000D01*
X123444000Y-38100000D02*
X124714000Y-37592000D01*
X121666000Y-38862000D02*
X123444000Y-38100000D01*
X119888000Y-40386000D02*
X121666000Y-38862000D01*
X114808000Y-41910000D02*
X119888000Y-40386000D01*
X107442000Y-89662000D02*
X107950000Y-86868000D01*
X106934000Y-93218000D02*
X107442000Y-89662000D01*
X106426000Y-97028000D02*
X106934000Y-93218000D01*
X105918000Y-100330000D02*
X106426000Y-97028000D01*
X105664000Y-101346000D02*
X105918000Y-100330000D01*
X105156000Y-102362000D02*
X105664000Y-101346000D01*
X104775000Y-102870000D02*
X105156000Y-102362000D01*
X100965000Y-106680000D02*
X104775000Y-102870000D01*
X98425000Y-109855000D02*
X100965000Y-106680000D01*
X95250000Y-114300000D02*
X98425000Y-109855000D01*
X92710000Y-118745000D02*
X95250000Y-114300000D01*
X90805000Y-123190000D02*
X92710000Y-118745000D01*
X90170000Y-131064000D02*
X90805000Y-123190000D01*
M02*
